<svg width="252" height="159" fill="none" xmlns="http://www.w3.org/2000/svg"><path d="M59.306 3.646c.276-.103.276-.103 0 .307C57.28 6.77 48.075 23.569 48.075 24.39c0 .154.164.256.33.256.33-.051.548-.307 1.096-1.384 1.642-3.125 2.904-5.121 3.342-5.428.219-.205.438-.41.438-.512 0-.103-.11-.103-.274.051-.164.153-.219.153-.219-.051 0-.358.603-1.282.822-1.282.164 0 .273-.154.273-.46 0-.513 1.15-2.716 1.533-2.92.11-.052.22-.257.22-.41 0-.103.111-.359.275-.563.384-.41 1.205-.87 1.205-.666 0 .051-.438 1.024-.986 2.099-1.316 2.46-4.053 7.787-4.768 9.272-.93 1.794-1.314 2.715-1.259 2.817.11.052.821-1.28.821-1.589 0-.102.055-.051.165.051.11.156.164.156.328-.102.11-.154.164-.46.164-.665 0-.41 2.083-4.354 2.63-4.968.22-.256.439-.563.439-.665 0-.103.055-.256.164-.359.438-.31-.93 3.174-2.245 5.684-2.685 5.328-3.123 6.199-4.108 8.3-1.317 2.815-3.123 6.145-3.397 6.247-.22.051-.22-.051-.11-.307.055-.205.11-.666.164-1.024.055-.87-.273-.665-.604.358-.165.512-.329.768-.603.87-.273.052-.383.256-.438.563 0 .259-.054.31-.054.156-.055-.156-.22-.258-.329-.258-.219 0-.219.051-.219.205.11.105.055.36 0 .565-.11.307-.164.205-.164-.41 0-.616.22-1.23 1.26-3.431.659-1.487 1.261-2.715 1.261-2.818 0-.05.547-1.128 1.204-2.408 1.424-2.613 1.533-2.971 1.04-2.92-.328.051-.328.051-.054-.205.164-.153.274-.358.219-.409-.22-.154-.438-.154-.438.051 0 .102-.438 1.075-1.04 2.152-.602 1.075-1.533 2.867-2.029 4.046-.547 1.126-1.259 2.716-1.697 3.535l-.711 1.484-2.357.256c-2.466.256-3.069.358-3.069.617 0 .153-.492.153-.547-.052-.055-.104-3.178.359-3.835.615a2.158 2.158 0 01-.493.102c-.766.051-6.465 1.33-6.739 1.536-.438.307-1.478.563-2.85.716-.82.051-1.587.154-1.696.205-.22.102-.274 0-.165-.563.055-.41.165-.614.274-.614.274.05.274-.051 0-.461-.164-.256-.219-.46-.11-.665.11-.256.165-.256.165.102 0 .256.11.46.219.46.274 0 1.973-3.278 2.083-3.943.055-.512.328-1.026.547-1.026.11 0 .165-.154.165-.307 0-.154.054-.307.164-.359.164-.05 3.287-5.837 4.492-8.297.438-.92 1.754-3.278 2.85-5.225 1.149-1.997 2.08-3.637 2.08-3.688 0 0 .438-.717.933-1.536.547-.87 1.587-2.715 2.354-4.097.767-1.436 1.59-2.869 1.864-3.227.219-.358.547-.973.766-1.333.493-.973 1.15-2.61 1.15-2.764 0-.052-.164-.205-.383-.256-.274-.103-.383-.259-.329-.463.11-.307-.328-.461-1.368-.563-.548-.052-1.426.665-1.426 1.18 0 .153-.11.255-.164.255-.11 0-.712.666-1.37 1.536-.656.819-1.258 1.64-1.368 1.742-.44.461-2.52 3.484-2.411 3.535 0 0-.165.256-.493.563-.767.768-1.645 1.894-1.645 2.15 0 .153-.055.255-.11.255-.164 0-.985 1.078-3.944 5.278-.712.972-1.369 1.845-1.478 1.896-.383.102-.329 1.023.11 1.638.218.307.437.716.437.921 0 .205.055.358.22.358.109 0 .273.052.328.103.11.153-.712 1.845-1.752 3.585-1.207 1.948-3.561 6.454-3.507 6.66.055.153 0 .255-.11.204-.109 0-.437.514-.768 1.23-.383.717-1.204 2.406-1.916 3.79-1.424 2.767-1.424 2.819-1.15 2.92.11.052.219 0 .219-.153 0-.102.11-.307.274-.511.274-.259.274-.259.164.05-.11.308-.11.359.055.308.11 0 .766-1.129 1.423-2.51a139.805 139.805 0 011.536-3.023c.383-.665 2.847-5.275 3.178-5.942.164-.256.328-.564.383-.717.11-.102.383-.614.657-1.075.438-.921 1.533-2.101 1.369-1.436a25.64 25.64 0 00-.329.975c-.274 1.024-.547 1.587-2.576 5.428-.492.975-.93 2.05-.985 2.409l-.11.614.438-.614c.712-1.024.329-.103-1.04 2.459-.657 1.28-1.314 2.508-1.423 2.764-.167.463-.988.873-1.81.873-.273 0-.602.102-.766.204-.274.154-.438.205-.657.103-.329-.154-.493 0-.383.358.164.307-.386.358-.66.102-.11-.05-.766.051-1.697.256-.821.205-2.028.41-2.685.461-1.205.102-2.08.307-2.08.563 0 .051-.11.102-.165.051-.164-.102-1.809.46-2.137.717-.055.051-.22.104-.384.104-.11 0-.711.205-1.259.41-.55.205-1.59.512-2.302.717-1.478.41-1.423.41-1.588.972-.054.307-.054.41.165.41.383 0 .492.358.273.921-.164.36-.11.463.11.668.383.307.602.307.876 0 .11-.103.383-.205.602-.205.22 0 .383-.102.383-.256 0-.102.11-.153.274-.102.164.05 1.262-.258 2.466-.617 2.357-.768 8.108-2.303 8.163-2.2.055 0-.11.46-.383.972-.384.921-.438 1.382-.055 1.177.055-.051.164 0 .219.051.055.103.055.205-.055.256-.219.154-.219.412 0 .412.164 0 .657-1.026.657-1.384 0-.154.055-.308.164-.359.055-.05.274-.358.493-.768.274-.665.386-.716 1.371-.972.548-.156 1.095-.207 1.15-.156.055.053-.328.975-1.916 4.253-.495.973-.55 1.485-.165.973.165-.205.22-.205.22-.051a.707.707 0 01-.22.511c-.166.205-.221.256-.221.103 0-.41-.328.051-.712.972-.219.515-.657 1.538-1.04 2.255-.328.665-.657 1.433-.657 1.589 0 .205-.11.563-.219.717-.547.716-2.576 5.889-3.287 8.348-.11.358-.274.665-.329.665-.055 0-.164.103-.274.256-.219.617-.602 2.664-.602 3.534 0 .822-.11 1.026-.44.668-.493-.565-.329-2.664.385-5.686.603-2.46 2.793-8.502 4.93-13.523.712-1.587.822-2.203.274-1.587-.274.307-.274.307-.164 0 .219-.667-.383-.41-.657.307-.11.359-.933 2.304-1.81 4.354-.82 2.05-1.751 4.302-1.97 5.018-.548 1.538-1.207 3.38-1.262 3.74-.055.104-.274.974-.493 1.895-.273.973-.492 2.409-.547 3.279-.11 1.382-.055 1.638.274 2.357.164.46.492.921.711 1.075.329.256.329.256.274-.052-.055-.204-.055-.358.055-.358.054 0 .164.205.219.46.112.564.33.718.988.82.273 0 .657 0 .766-.051.329-.052.657-.512.548-.666 0-.051-.11-.665-.11-1.382-.11-1.077 0-1.589.438-3.125.548-2.05.602-2.203.438-2.664-.11-.256-.11-.307.164-.256.22.052.329-.05.493-.614.222-.719.167-.923-.219-.821-.164.051-.219 0-.164-.051.055-.103.274-.154.44-.154.22 0 .329-.102.329-.307 0-.205.547-1.638.876-2.201.055-.154.164-.41.164-.614 0-.156.055-.412.11-.566.383-.563 1.204-2.508 1.259-2.97l.11-.564-.33.617c-.382.716-.328.46.275-1.026.219-.563.492-1.024.602-.973.055.051.055-.051.055-.205-.055-.153.054-.512.276-.87.219-.41.273-.514.219-.205-.055.307-.055.307.11.103.054-.154.109-.36.054-.412-.055-.154.164-.922.986-2.867.273-.616.383-1.128.328-1.23 0-.052.055-.154.219-.205.328-.154.985-1.433 1.04-2.099.055-.872.165-1.077.602-1.077.55 0 3.288-.563 3.562-.717.11-.05.33-.102.495-.153.219 0 .876-.103 1.533-.256.657-.154 1.642-.358 2.247-.512.602-.102 1.15-.307 1.204-.358.055-.103.438-.205.822-.205.438-.051.82-.154.82-.256.056-.102.11-.102.275 0 .273.205 1.097-.102 1.097-.41 0-.104.055-.207.164-.207.11 0 .165.052.165.103 0 .05.273.156.547.156s.493-.051.493-.207c0-.256.055-.256 1.423-.308.55 0 2.029-.204 3.288-.409 2.247-.41 3.999-.614 3.999-.512 0 .051-.712 1.845-1.588 3.995-2.685 6.454-3.944 9.733-3.944 10.04 0 .153.11.307.164.307.219 0 .219.563 0 .665-.055.051-.11 0-.055-.153.11-.256-.054-.308-.328 0-.384.358-2.685 6.454-2.85 7.582a5.868 5.868 0 01-.273.922c-.438.972-.548 1.894-.384 2.51.274.614.493.82.712.512.22-.307.767 0 .876.563.11.358.22.512.493.563.221.051.66.205.933.307.493.154.547.154.876-.102.164-.154.328-.46.328-.666 0-.255.165-.92.384-1.537.164-.615.328-1.229.328-1.383 0-.409-.328-.204-.602.308-.11.307-.274.563-.328.563-.11 0 0-.768.218-1.382.11-.205.274-.87.438-1.385.165-.563.439-1.075.548-1.177.11-.154.219-.256.164-.358-.054-.051.055-.256.274-.512.164-.205.276-.256.219-.154-.164.614-.712 2.048-.986 2.715-.383.922-.383 1.024 0 .922.22-.051.439-.307.548-.82.328-1.179.824-2.51 1.152-3.175.164-.358.712-1.692 1.205-2.971.438-1.28 1.314-3.432 1.864-4.865.547-1.385.985-2.613.985-2.716 0-.153.11-.41.274-.614.274-.36.274-.36-.164-.514-.329-.102-.438-.256-.384-.41.055-.153.11-.307.11-.358 0-.102.11-.153.274-.256.219-.051.219 0 .164.307-.164.615.328.615.602.051.055-.255.274-.716.383-.972.11-.256.438-.87.657-1.433.22-.514.657-1.334.879-1.845.383-.768.383-.87.164-1.075-.386-.256-.331-.359.164-.359.274 0 .438.103.438.205 0 .154.055.256.164.256.055 0 .165.102.165.205 0 .153.219.205.766.256.767 0 .876-.051 1.588-.82.495-.411.824-.872.824-1.025 0-.205.11-.307.219-.307.11 0 .054-.154-.11-.41-.164-.205-.274-.512-.274-.716 0-.205-.328-.666-.714-1.024l-.766-.72 1.261-2.61c.657-1.486 1.588-3.33 1.971-4.1.438-.767.767-1.484.657-1.586-.054-.051 0-.154.11-.154.164 0 .933-1.382 3.89-7.427.547-1.126 3.287-6.147 5.37-9.886.602-1.075 1.642-2.664 2.245-3.585.659-.87 1.37-1.896 1.645-2.306.273-.358.547-.972.656-1.28.11-.358.274-.818.329-1.023a1.71 1.71 0 00.164-.72c0-.46-.602-1.176-.93-1.074-.165.051-.439 0-.657-.102-.384-.103-.439-.154-.274-.359.164-.153.11-.256-.329-.46-.219-.154-.769-.256-1.097-.256-.602.05-.712.102-1.478 1.075-.493.563-1.095 1.228-1.314 1.486-.55.615-.605.768-.167.615zM28.353 21.829c-.055.153-.164.153-.164.102 0-.102.11-.256.164-.41.11-.102.164-.153.164-.05a.658.658 0 01-.164.358zm3.616-4.917c.164-.258.274-.565.274-.719 0-.256 1.37-2.303 1.645-2.457.109-.05.218-.256.273-.463.11-.46 1.095-1.996 1.205-1.894.11.052-1.314 2.613-1.752 3.176-.164.205-.55.82-.77 1.229-.273.512-.601 1.024-.82 1.282l-.329.358.274-.512zm-.712-3.124c.11-.154.11-.154.164.153 0 .154-.11.307-.164.307-.219 0-.219-.153 0-.46zm-.493 5.12c.055 0 .11.052.11.103-.602 1.28-1.205 2.203-1.371 2.101-.11-.051-.11 0-.055.102.055.103-.055.461-.274.82l-.438.665.055-.615c0-.307.219-.819.438-1.126.274-.307.66-.923.878-1.333.274-.41.548-.716.657-.716zm-1.04.41c.11 0-.055.41-.33.82-.275.462-.548.872-.548.923 0 .102-.055.153-.165.153-.219 0-.219-.05.165-.767.328-.77.711-1.282.878-1.129zm-.933-.716c.11 0-.11.511-.329.665-.219.154-.438.154-.438 0s.657-.665.767-.665zm-.986 1.33c.11-.204.22-.256.22-.153 0 .256-.493.924-.493.668 0-.156.11-.361.273-.515zm-5.477 14.6c-.11 0-.11-.102-.055-.256.055-.104.11-.207.165-.207 0 0 .054.103.054.207 0 .154-.054.256-.164.256zm-.055-.975c0-.153.11-.256.165-.204.054.05 0 .204-.11.307-.167.153-.167.102-.055-.103zm-9.26 11.476c-.054.05-.164 0-.11-.103.11-.205.33-.258.33-.05 0 .05-.11.101-.22.153zm.767 1.126c-.164.102-.164.05-.11-.205.055-.205.165-.256.22-.154 0 .103-.055.308-.11.359zM7.095 62.14c.11-.36.386-.668.386-.412 0 .051-.11.256-.221.463-.22.256-.22.256-.165-.051zm12.329-21.72c-.11.307-.274.614-.383.666-.11.102-.11.05 0-.154.054-.154.11-.358.164-.46 0-.154.11-.308.219-.41.164-.154.164-.051 0 .358zm13.038-.256c-.274.051-.767.103-.986.154l-.493.102.493-.205c.274-.05.602-.204.657-.255.11-.052.329-.052.493 0 .328.05.274.102-.164.204zm1.042-.256c-.276 0-.385 0-.276-.05.11-.052.331-.052.495 0 .165.05.055.05-.219.05zm3.34-.614c-.164.102-.712.205-1.15.256-.492.051-.712.051-.492-.051.164-.051.711-.154 1.15-.205.547-.102.711-.051.492 0zm2.247-.307c-.219.051-.274 0-.219-.051.055-.051.164-.051.274-.051.164.05.11.102-.055.102zm5.149-.768c.055 0 .164.102.219.205.055.051 0 .153-.11.153-.054 0-.164-.102-.164-.153 0-.102.055-.205.055-.205zm-1.478 2.252c.055.051.055.154 0 .256-.055.154-.055.103-.055-.05 0-.206 0-.257.055-.206zm-.329-3.943c.055-.154.165-.256.22-.205.054.051 0 .153-.11.256-.164.153-.22.153-.11-.051zm0 3.227c.055.102-.054.256-.164.358-.219.154-.274.102-.274-.153 0-.308.22-.461.438-.205zm-4.218 17.466c-.219.717-1.04 2.562-1.095 2.357 0-.205.986-2.766 1.205-2.971.054-.102 0 .205-.11.614zm2.08-6.045c-.054.052-.164 0-.164-.153 0-.256.11-.307.274-.102.055.102 0 .204-.11.255zm1.043-2.098c-.492 1.33-.933 1.791-.55.563.112-.256.277-.768.386-1.178.11-.411.22-.616.329-.514.11.103.054.514-.165 1.129zm1.095-3.125c-.328 0-.328-.154 0-.512.22-.307.22-.307.22.102 0 .308-.055.41-.22.41zm-1.314.563c-.164.154-.273.41-.219.563.055.154 0 .46-.221.768-.22.256-.383.514-.329.668.055.256-.492 1.791-1.752 4.66-.492 1.33-1.59 4.2-2.411 6.352-1.642 4.558-1.861 5.07-2.026 4.66-.055-.102 0-.46.055-.768.986-2.817 2.464-7.068 2.573-7.324.055-.153.605-1.435 1.207-2.818.548-1.433 1.205-3.022 1.424-3.585.711-1.691 1.754-4.456 1.754-4.61 0-.411-.328-.102-.44.36a1.684 1.684 0 01-.438.87c-.22.204-.329.409-.22.665.055.256 0 .41-.054.41-.11 0-.22.204-.329.511-.11.463-.602 1.692-1.204 2.971-.164.307-.383.873-.548 1.231a4.38 4.38 0 01-.328.768.765.765 0 00-.164.46c0 .205-.055.41-.11.461-.11.103-.55 1.075-.988 2.255a47.676 47.676 0 01-.93 2.252c-.055.051-.22.463-.329.924-.11.41-.274.972-.438 1.28-.11.255-.438 1.074-.657 1.845-.274.819-.66 1.689-1.043 2.2-.657.82-.876 1.078-.876.82 0-.308.986-3.688 1.481-5.07 2.245-6.301 4.492-12.087 5.313-13.83.164-.256.274-.614.274-.717 0-.102.055-.205.164-.205.055 0 .383-.511.712-1.077.274-.563.602-1.126.712-1.28.221-.255.878-1.74.988-2.356.11-.41.164-.461.383-.205.164.154.219.307.055.617-.11.255-.11.409 0 .46.11.102.164 0 .164-.102 0-.154.11-.256.219-.256.164 0 .383-.258.547-.566.22-.409.329-.511.493-.409.11.154 0 .614-.383 1.64-.93 2.304-1.807 4.251-2.08 4.507zm3.176-4.865c.164.154.11.358-.055.614-.164.358-.219.358-.219.103-.055-.256-.055-.205-.274.153-.11.307-.273.512-.273.512-.165 0 .547-1.999.93-2.766.276-.461.44-.922.44-1.075 0-.051.11-.205.165-.256.11-.051-.055.512-.328 1.177-.386.921-.496 1.384-.386 1.538zm.66-1.026c-.274.617-.496.77-.33.205.165-.512.548-1.127.548-.922.055.103-.11.461-.219.717zm1.149-.307c-.657.46-.712.41-.274-.256.274-.41.876-.614.876-.307 0 .102-.274.358-.602.563zm1.423-4.968c-.054.103-.11.052-.11-.102-.054-.154 0-.256.056-.205.054.051.054.205.054.307zm-.328-.665c0-.154.164-.41.274-.566.11-.153.219-.204.219-.153 0 .31-.438.975-.493.719zm37.035 4.865c-.222 0-.933.615-1.043 1.025-.055.153-.274.256-.438.307-.219.051-.766.463-1.26.975-.547.46-.985.819-1.04.819 0-.052.11-.256.33-.461.163-.154.328-.41.218-.563-.055-.154-.547.205-1.645 1.228-.985.87-1.642 1.383-1.697 1.28-.11-.102-.657.205-1.48.924-3.067 2.457-5.15 3.79-7.835 4.916-1.204.512-2.08.666-2.737.512-.386-.051-.386-.154-.386-.973 0-1.228.495-2.868 1.645-5.532.547-1.331 1.26-3.023 1.533-3.842.274-.768.769-2.099 1.097-2.869.329-.972.548-1.74.548-2.252 0-.768-.383-1.743-.712-1.743-.11 0-.385-.153-.604-.358-.165-.153-.438-.41-.548-.46-.164-.103-.438-.512-.712-.973a3.542 3.542 0 00-.985-1.23 3.493 3.493 0 01-.767-.513c-.11-.153-.604-.307-1.042-.41-1.095-.255-1.862-.05-2.738.717-.33.256-.824.563-1.043.563-.273.103-.93.668-1.97 1.692-1.755 1.843-3.124 3.38-3.069 3.534 0 .051-.383.614-.93 1.177-.493.615-.88 1.231-.88 1.334 0 .153-.109.307-.218.41-.164.102-1.752 2.098-2.464 3.175a23.103 23.103 0 01-1.59 2.099c-.219.256-.547.77-.712 1.128-.219.307-.438.614-.492.614-.11 0-.165.052-.165.154 0 .102.11.102.274 0 .493-.41.328 0-.383.972-.657.82-.767 1.075-.657 1.334.054.256 0 .563-.274 1.023-.164.41-.328.82-.328.973 0 .205-.055.205-.165.051-.221-.307.11-1.74.602-2.715.548-1.075.548-1.075.329-1.075-.11 0-.383.512-.712 1.075-.933 1.794-.878 3.125.055 3.79.164.102.164.205.055.256-.164.105-.055.668.164.668.055 0 .219.102.328.256.11.102.438.307.767.46.657.359 1.04.256 2.466-.92 1.424-1.078 1.752-1.488 4.109-4.356 1.04-1.28 2.354-2.867 3.014-3.586.602-.716 1.259-1.484 1.423-1.74.164-.256.328-.41.328-.359 0 .307.603-.511.603-.819 0-.155.11-.258.219-.258.11 0 .985-.665 1.864-1.484 1.259-1.178 1.752-1.536 2.19-1.638.438-.051.657-.259 1.097-.924.329-.41.876-.921 1.204-1.126l.548-.358-.766 1.382c-.712 1.282-2.193 4.458-3.014 6.608-.22.614-.493 1.228-.548 1.384-.328.512-.602 2.098-.602 2.969 0 1.128.383 2.1.986 2.561.219.205.438.461.438.563.054.41.93 1.129 1.59 1.385 1.478.614 3.011.512 5.258-.41 2.302-.923 6.137-3.534 6.137-4.15 0-.103.11-.205.164-.154.165.102 2.792-2.252 2.792-2.508 0-.051.715-.873 1.59-1.743.877-.87 1.534-1.69 1.534-1.74 0-.103.11-.154.164-.154.055 0 .219-.205.219-.463.055-.256.328-.665.605-.87.492-.41.547-.563.164-.563zm-31.941 2.153c.11 0 .164-.102.164-.205 0-.153.055-.204.164-.153.11.051.055.205-.054.358-.22.307-.384.41-.384.154 0-.051.055-.154.11-.154zm7.068-.617c-.165-.204-.165-.255 0-.358.164-.153.219-.102.273.103.11.358-.054.514-.273.255zm2.794-3.585c-.164.205-.274.463-.274.566.055.102-.054.153-.221.153-.22 0-.93.666-2.135 1.894-1.04 1.024-1.864 1.896-1.919 1.896-.11 0 1.48-1.64 3.068-3.176.986-.921 1.645-1.538 1.481-1.333zm1.971-4.097c-.602 1.282-.766 1.487-2.245 2.92-1.37 1.28-1.535 1.487-1.316 1.691.164.205.164.256-.22.205-.382-.051-.601.154-1.97 1.536-.933.972-1.48 1.64-1.426 1.742.11.103.11.308 0 .461-.055.154-.11.205-.11.102-.054-.614-.711.052-3.615 3.33-1.533 1.69-1.862 1.996-1.862 1.74 0-.307 2.628-4.507 3.178-5.07.11-.153.876-1.077 1.697-2.1.767-.973 1.864-2.255 2.466-2.818 1.862-1.894 2.464-2.56 2.464-2.867 0-.104.055-.31.164-.36.165-.051.165 0 .11.153-.164.31.11.31.44-.05.384-.41 2.738-2.202 2.847-2.15 0 .05-.273.716-.602 1.535z" fill="#FE951C"/><path d="M102.092 14.709c.931-.051 2.192-.154 3.561-.205.821-.051 2.192-.102 3.068-.153 2.136-.154 8.82-.359 9.86-.308 4.166.103 9.862.512 10.3.666.219.102.11.205-.438.358-.93.154-2.247.666-2.247.82 0 .102-2.025.665-3.23.87-.44.05-.44.258-.055.258.165 0 .384.05.493.102.11.102.493.154 1.095.154.493 0 .986 0 1.04.05.219.052 2.904-.306 3.452-.46.219-.105.493-.105.547-.105.329.052 1.755-.87 1.864-1.228.165-.512.11-.921-.109-1.075-.164-.051-.219-.256-.219-.46 0-.206-.11-.461-.164-.564-.274-.31-1.591-.821-2.74-1.026-1.095-.205-1.314-.205-7.177-.205-4.547 0-6.685.052-8.546.154-1.645.102-5.754.41-9.315.665.988-1.484 1.864-2.712 2.412-3.38.93-1.075 2.025-2.662 2.025-3.02.055-.154.222-.361.386-.515.712-.511.219-2.2-.66-2.303-.273 0-.492-.102-.437-.205 0-.256-1.369-1.026-2.081-1.077-.657-.102-1.426.41-1.535.975 0 .153-.329.717-.657 1.228-.548.717-3.835 6.147-5.368 8.71l-.657.102c-.44 0-1.098.05-1.536.102-.438 0-1.861.102-3.178.256-1.314.102-4.492.307-7.067.512-2.573.205-5.423.41-6.299.512-4.713.41-9.807.716-8.877.511.22-.05.548-.102.822-.102.221 0 .44-.051.44-.102s-.274-.051-.66-.051c-.382.05-2.244.153-4.108.307-1.861.153-3.78.256-4.218.307-.712.051-.821.051-1.04-.205-.548-.512-1.7-.563-2.466-.154-.493.308-.548.308-1.862.308-1.371 0-1.371 0-1.48.256-.055.153-.165.307-.22.41-.273.153-.273 1.025 0 1.025.11-.051.165.051.165.205 0 .307.602.87.988.972.438.052 4.546-.153 6.08-.307 3.67-.41 8.216-.819 15.944-1.486 9.312-.82 9.257-.82 9.367-.87.328-.103 8.381-.82 8.381-.717h.493c-7.451 13.113-12.217 24.074-15.833 36.315-1.642 5.481-2.354 8.606-2.849 12.703-.766 6.147-.493 9.323.988 11.37.493.669.986 1.18 1.095 1.232.11 0 .438.153.766.41.274.204.767.511 1.095.716.386.153.934.358 1.262.41.821.102 1.971-.308 2.026-.768 0-.154.164-.41.274-.563.273-.205-.329-2.562-.712-2.562-.11-.051-.657.205-1.205.563-.547.358-1.095.614-1.15.614-.273-.051-.659-1.535-.768-2.662-.274-3.841.714-10.963 2.247-15.674.219-.717.712-2.409 1.095-3.688 1.754-5.994 5.863-16.852 7.505-19.773.603-1.074 1.974-3.84 2.85-5.888 1.259-2.818 1.864-3.944 5.972-11.168.384-.717.822-1.434 1.205-2.1zm21.422-1.743c1.259-.205 4.437.154 5.86.668.548.153.219.205-.383.051-.548-.153-2.628-.36-3.452-.36-.383 0-.766-.052-.821-.103-.055-.051-.438-.102-.876-.051-.821 0-1.04-.102-.328-.205zm-1.864-.051c.547 0 .93.051.876.051-.219.051-.219.051 0 .154.112.05.112.05-.11.05-.109 0-.274 0-.274-.05 0-.051-.273-.103-.657-.103-.438 0-.766 0-.821-.05-.055-.052.383-.052.986-.052zm-6.63.051c.441-.051 5.206-.102 5.097 0-.055 0-.986.051-2.083.103-1.095 0-2.081.05-2.19.05-.055.052-.383 0-.657 0-.55-.05-.55-.102-.167-.153zm-7.615.463c.164-.104.331-.104 1.754-.156.603-.05 1.698-.102 2.412-.153 1.697-.154 2.792-.154 2.792 0 0 .05-.109.05-.274.05-.547 0-2.409.155-2.573.206-.331.156-.988.207-1.754.104-.438-.104-.931-.104-1.041-.104-.273.104-.219.104.165.156.383.05.383.05-.165.05-.328 0-.547-.05-.492-.102.054-.05-.11-.05-.384 0-.276 0-.495 0-.44-.05zm-22.736 1.69c-.82.102-2.409.204-3.67.306-1.15.103-2.957.256-3.945.359-2.737.205-3.67.256-3.56.205.054-.052.878-.103 1.863-.205.986-.103 2.685-.256 3.78-.359 1.971-.204 5.697-.46 6.794-.511.329 0 .657-.052.767-.103.054-.05.164-.05.164.051 0 .103-.274.154-2.193.256zm2.795-.154c-.055 0-.11-.051-.11-.103 0-.05.055-.102.11-.102.11 0 .164.051.164.102 0 .052-.055.103-.164.103zm.712-.103c-.165 0-.22-.05-.165-.102a.434.434 0 01.274-.102c.055 0 .11.05.11.102 0 .051-.11.102-.22.102zm2.247-.204c-.274.102-.438.102-.438 0 0-.051.164-.103.328-.103.274 0 .329.052.11.103zm2.85-.154c-.55.051-1.372.103-1.81.103-.438.05-.766.05-.712 0 .11-.052 3.562-.308 3.562-.256 0 .05-.438.102-1.04.153zM79.848 67.62c-.055.102-.11.921-.11 1.794.055.921 0 1.74-.054 1.74-.165.154-.165-.87-.055-2.868.11-1.331.164-1.74.219-1.331.11.256.11.563 0 .665zm.274-3.278c-.055.153-.11.102-.11-.103.055-.256.11-.358.164-.256.055.052 0 .205-.054.359zm12.766-36.52c-.055.512-.714 2.15-.878 2.15-.055-.051-.22.205-.274.46-.11.257-.274.464-.383.464-.11 0-.22.46-.274 1.075-.11.614-.274 1.126-.438 1.228-.383.256-.876 1.436-.821 1.845.054.205.054.256-.055.154-.11-.103-.274.256-.438.87-.11.563-.331 1.075-.386 1.126-.11.102-.273.46-.328.924-.11.46-.329 1.023-.493 1.28-.383.614-.986 2.151-1.642 4.148-.274.819-.603 1.691-.767 1.896-.164.205-.328.666-.386.973-.328 1.794-.657 2.766-.876 2.613-.11-.052-.273.05-.383.255-.055.205-.055.41.055.461.055.051 0 .46-.164.87-1.095 3.381-1.424 4.251-1.479 4.765-.054.359-.219.87-.438 1.178-.328.512-.328.614-.11.921.22.307.22.358-.109.563-.276.154-.44.72-.823 2.46-.493 2.612-.931 3.738-.712 1.998.055-.668.274-1.794.493-2.562.164-.767.492-2.152.711-3.124.222-.922.77-2.818 1.207-4.149.438-1.384.986-3.125 1.26-3.892.82-2.92 2.028-6.25 3.451-9.58.712-1.64 1.04-2.203 1.26-2.203.273.051.273 0 .054-.204-.219-.154-.055-.564.77-2.509 1.587-3.639 3.506-7.224 3.396-6.454zm3.285-8.402c-1.478 2.613-5.258 10.142-6.299 12.448-1.535 3.586-3.944 9.426-3.999 9.733-.055.205-.878 2.457-1.48 3.944-.11.307-.274.819-.384 1.177-.11.307-.383 1.228-.602 1.998a36.196 36.196 0 00-.93 2.867c-.274.821-.658 2.05-.934 2.766-.219.717-.547 1.794-.657 2.408-.164.615-.493 2.05-.821 3.227-.328 1.331-.766 3.74-1.15 6.506-.602 4.456-.876 5.633-.821 3.432 0-.666-.055-1.64-.11-2.152-.166-1.28.657-7.888 1.04-7.785.22.102.275 0 .055-.512-.164-.307-.054-.82.22-2.05.273-.922.547-1.74.656-1.792.22-.153.493-.77.274-.77-.273-.051-.164-.41.93-3.995.55-1.791 1.044-3.176 1.153-3.176.11.051.821-1.638 1.533-3.688 1.59-4.404 4.218-10.653 4.875-11.677.274-.41.496-.768.496-.87 0-.103.273-.666.656-1.282 1.26-2.304 1.917-3.586 1.917-3.893 0-.153.054-.256.11-.256.109 0 .218-.153.218-.41.164-.665 3.069-5.89 3.616-6.402.274-.256.657-.666.824-.922.547-.665.438-.358-.386 1.126z" fill="#FE951C"/><path d="M108.831 50.41c0-.103.055-.256.219-.307.274-.154 1.314-1.178 2.463-2.511 2.521-2.815 3.014-3.432 3.89-4.814 3.507-5.123 3.999-6.096 3.999-6.915l-.054-.512-.219.359c-.165.153-.219.358-.165.41.165.153-.219.818-.383.716-.109 0-.164 0-.055.102.11.102-2.19 3.278-2.959 4.046-.328.31-.383.36-.328.103 0-.154.109-.359.219-.512.605-.768 2.028-2.816 2.685-3.79.383-.615.821-1.229.986-1.331.109-.154.164-.307.109-.41-.109-.256-.328 0-.985 1.024-.274.46-.603.921-.657 1.024-.11.102-.274.41-.438.614-.11.207-.219.36-.274.258 0-.051.383-.616.821-1.333.438-.614.767-1.228.657-1.28-.055-.05 0-.153.11-.153.273-.051 1.095-1.487.93-1.59-.054-.05-.219.205-.438.564-.219.36-.438.668-.547.668-.11 0-.602.665-1.095 1.433-2.959 4.455-8.932 11.063-13.095 14.393-1.916 1.538-3.397 2.459-4.273 2.613l-.712.153-.055-.614c-.054-.41-.054-.768 0-.82.22-.255.11-.667-.164-.513-.11.05-.164.05-.164-.052 0-.102.11-.204.274-.204.11 0 .219-.256.328-.717.329-1.843 1.645-5.53 2.521-7.068.11-.154.383-.717.602-1.178.219-.46.548-1.077.712-1.384.164-.307.602-1.024.986-1.69.328-.614.823-1.432 1.042-1.844.219-.359.657-1.075.876-1.587.274-.46.603-1.126.822-1.485.164-.36.328-.82.328-1.18l-.055-.613-1.04-.615c-.876-.563-1.15-.665-1.59-.614-.493.051-.602.154-1.314 1.075-.712.972-.986 1.433-2.521 4.404-.438.87-.986 1.948-1.204 2.357a18.24 18.24 0 00-.931 2.099 72.756 72.756 0 01-.876 2.203c-.164.461-.438 1.229-.55 1.64-.164.41-.329 1.076-.438 1.434-.329 1.126-1.15 5.277-1.095 5.635 0 .102.328.512.712.973 1.207 1.433 2.794 2.203 4.437 2.152h.823c.657 0 3.507-1.487 4.657-2.51 1.423-1.18 2.466-2.204 2.466-2.306zm5.477-8.553c.219.05.383.153.438.153 0 0-.109.052-.328.103-.219 0-.384-.051-.384-.154 0-.102.055-.153.274-.102zm-7.341-16.443c.109.102.219.256.274.307 0 .102.219.358.438.614.273.307.492.41.933.41.274 0 .602 0 .657.051.274.307.821-.358 1.861-2.252a26.665 26.665 0 012.685-3.995c.384-.463.767-1.077.767-1.282 0-.205.109-.512.164-.614.11-.205.055-.41-.219-.922-.493-1.026-.766-.975-2.135.205-1.426 1.229-4.111 4.558-5.042 6.096-.602 1.126-.657 1.229-.383 1.382z" fill="#FE951C"/><path d="M171.121 32.431c-.164-.05-1.535 1.28-4.385 4.405-2.792 3.022-8.162 7.94-10.243 9.323-1.371.921-3.013 1.638-3.725 1.535l-.605-.05-.164-1.434c-.164-.973-.219-3.227-.164-6.403 0-5.019-.055-5.84-.657-6.557-.11-.153-.219-.307-.219-.41a2.001 2.001 0 00-.493-.511c-.547-.46-2.521-.614-3.178-.205-2.299 1.229-6.684 5.738-9.75 10.04l-.605.819.055-.563c.769-4.098.824-4.66.824-7.683.054-3.074 0-3.125-.441-4.1-.547-1.126-.876-1.535-1.204-1.535-.165 0-.548-.205-.876-.46-.548-.36-.712-.41-1.645-.36-.821.052-1.205.206-1.807.564-1.15.87-4.054 3.79-6.192 6.3-1.04 1.28-2.025 2.458-2.189 2.614-.329.358 1.916-4.356 3.232-6.762.548-1.077 1.533-2.562 2.081-3.33.547-.77 1.095-1.588 1.207-1.844.109-.256.273-.512.383-.564.383-.153.274-.614-.11-.614-.273 0-.273-.102-.273-.563.054-.514 0-.616-.386-.668-.219 0-.493-.153-.712-.307-.328-.358-1.533-.614-2.026-.46-.383.102-2.411 2.715-3.999 5.174-.659.973-1.426 2.048-1.754 2.457-.657.822-.657 1.282 0 .822.219-.154.493-.205.547-.154.055.102-1.423 3.432-3.287 7.478-3.835 8.143-6.682 15.365-6.627 16.852 0 1.229.821 3.02 1.478 3.02.11 0 .274.103.329.256.054.105.328.258.547.258v.051c.274 0 .493.052.548.052.219.102 1.316-1.282 1.316-1.59 0-.102.219-.46.547-.767.329-.256.876-1.178 1.314-2.05 2.795-5.889 8.713-14.29 14.3-20.335.931-.973 1.7-1.792 1.809-1.792.055 0 .11.666.11 1.485 0 .82.054 1.486.164 1.538.219.153.055 1.586-.274 3.124-.44 1.843-.878 4.763-.878 5.992 0 1.691.109 2.152.878 2.97.383.359.821.976.985 1.385.384.768.931 1.075 1.533.665.219-.102.548-.256.657-.358.274-.102.386-.205.824-1.18.11-.255.438-.819.657-1.228.219-.358.602-1.075.821-1.587.822-1.64 2.576-3.944 4.875-6.454 1.426-1.64 4.164-4.097 4.44-4.097.11 0 .11.921.11 2.047-.055 1.692 0 2.101.164 2.101s.164.154.109.563c-.054.307-.109 1.792-.109 3.33 0 2.561 0 2.817.328 3.534.822 1.638 2.3 3.33 3.288 3.688 1.971.768 3.23.716 5.094-.307 1.095-.563 2.411-1.487 2.521-1.692 0-.102.602-.665 1.314-1.228.657-.615 1.533-1.587 1.973-2.204.657-.972 3.504-4.097 5.642-6.196.985-1.026 1.697-2.408 1.752-3.534l.057-.821-.878.821.328-.514c.493-.82.11-.717-.712.207-.383.46-1.095 1.126-1.587 1.536-.438.358.109-.256 1.204-1.434 1.15-1.128 1.919-2.05 1.809-2.1zm-58.073 23.46c-.164.359-.164.359-.219-.204 0-.41.055-.512.219-.359.109.103.109.256 0 .563zm2.575-7.068c-.659 1.74-2.466 5.48-2.466 5.223 0-.307.986-2.664 1.314-3.176.165-.256.438-.819.603-1.33.111-.461.33-.922.385-.973.11-.102.164-.307.164-.463 0-.307.603-1.28.657-1.024 0 .102-.328.87-.657 1.743zm5.423-11.834c-1.861 3.842-2.521 5.175-3.725 7.89a179.283 179.283 0 01-.931 1.996c-.164 0 0-1.075.164-1.177.11-.051.219-.358.274-.614.055-.307.383-1.026.657-1.692.328-.665.602-1.28.602-1.382 0-.153 0-.307.11-.307.219-.102 1.48-2.613 1.371-2.766-.11-.256.657-1.743 1.861-3.586.603-.87 1.098-1.589 1.153-1.589.054 0-.66 1.487-1.536 3.227zm5.644-2.047c-.219.307-.495.563-.55.563-.219 0-.109-.102.441-.614l.492-.512-.383.563zm1.643-1.948c-.11.154-.274.256-.329.256 0 0 .055-.102.164-.256.11-.153.219-.255.274-.255.055 0 0 .102-.109.255z" fill="#FE951C"/><path d="M198.238 39.55c-.221 0-.933.615-1.042 1.025-.055.153-.274.256-.438.307-.219.051-.767.463-1.26.975-.547.46-.985.819-1.04.819 0-.052.11-.256.329-.461.164-.154.328-.41.219-.563-.055-.154-.548.205-1.645 1.228-.986.87-1.643 1.383-1.697 1.28-.11-.102-.657.205-1.481.924-3.066 2.457-5.149 3.79-7.834 4.916-1.205.512-2.081.666-2.738.512-.385-.051-.385-.154-.385-.973 0-1.228.495-2.868 1.645-5.532.547-1.331 1.259-3.023 1.533-3.842.273-.768.769-2.099 1.097-2.869.329-.972.548-1.74.548-2.252 0-.768-.384-1.743-.712-1.743-.11 0-.386-.153-.605-.358-.164-.153-.438-.41-.547-.46-.165-.103-.438-.512-.712-.973a3.54 3.54 0 00-.986-1.23 3.487 3.487 0 01-.766-.513c-.11-.153-.605-.307-1.043-.41-1.095-.255-1.861-.05-2.737.717-.331.256-.824.563-1.043.563-.274.103-.931.668-1.971 1.692-1.754 1.843-3.123 3.38-3.068 3.534 0 .051-.384.614-.931 1.177-.493.615-.879 1.231-.879 1.334 0 .153-.109.307-.219.41-.164.102-1.752 2.098-2.463 3.175a23.322 23.322 0 01-1.59 2.099c-.219.256-.548.77-.712 1.128-.219.307-.438.614-.493.614-.109 0-.164.052-.164.154 0 .102.109.102.274 0 .492-.41.328 0-.384.972-.657.82-.766 1.075-.657 1.334.055.256 0 .563-.273 1.023-.165.41-.329.82-.329.973 0 .205-.055.205-.164.051-.222-.307.109-1.74.602-2.715.548-1.075.548-1.075.329-1.075-.11 0-.384.512-.712 1.075-.933 1.794-.879 3.125.055 3.79.164.102.164.205.054.256-.164.105-.054.668.165.668.054 0 .219.102.328.256.11.102.438.307.767.46.657.359 1.04.256 2.466-.92 1.423-1.078 1.752-1.488 4.108-4.356 1.041-1.28 2.355-2.867 3.014-3.586.602-.716 1.259-1.484 1.424-1.74.164-.256.328-.41.328-.359 0 .307.602-.511.602-.819 0-.155.11-.258.219-.258.11 0 .986-.665 1.864-1.484 1.259-1.178 1.752-1.536 2.19-1.638.438-.051.657-.259 1.098-.924.328-.41.876-.921 1.204-1.126l.548-.358-.767 1.382c-.712 1.282-2.192 4.458-3.014 6.608-.219.614-.492 1.228-.547 1.384-.329.512-.602 2.098-.602 2.969 0 1.128.383 2.1.985 2.561.219.205.438.461.438.563.055.41.931 1.129 1.59 1.385 1.479.614 3.012.512 5.259-.41 2.302-.923 6.137-3.534 6.137-4.15 0-.103.109-.205.164-.154.164.102 2.792-2.252 2.792-2.508 0-.051.714-.873 1.59-1.743.876-.87 1.533-1.69 1.533-1.74 0-.103.11-.154.164-.154.055 0 .219-.205.219-.463.055-.256.329-.665.605-.87.493-.41.548-.563.164-.563zm-31.941 2.153c.11 0 .165-.102.165-.205 0-.153.054-.204.164-.153.109.051.055.205-.055.358-.219.307-.383.41-.383.154 0-.051.055-.154.109-.154zm7.068-.617c-.164-.204-.164-.255 0-.358.164-.153.219-.102.274.103.109.358-.055.514-.274.255zm2.795-3.585c-.165.205-.274.463-.274.566.055.102-.055.153-.222.153-.219 0-.93.666-2.135 1.894-1.04 1.024-1.864 1.896-1.918 1.896-.11 0 1.48-1.64 3.068-3.176.985-.921 1.645-1.538 1.481-1.333zm1.971-4.097c-.603 1.282-.767 1.487-2.245 2.92-1.371 1.28-1.535 1.487-1.316 1.691.164.205.164.256-.219.205-.384-.051-.603.154-1.971 1.536-.934.972-1.481 1.64-1.426 1.742.109.103.109.308 0 .461-.055.154-.11.205-.11.102-.055-.614-.712.052-3.616 3.33-1.533 1.69-1.861 1.996-1.861 1.74 0-.307 2.628-4.507 3.178-5.07.109-.153.876-1.077 1.697-2.1.766-.973 1.864-2.255 2.466-2.818 1.862-1.894 2.464-2.56 2.464-2.867 0-.104.054-.31.164-.36.164-.051.164 0 .109.153-.164.31.11.31.441-.05.383-.41 2.737-2.202 2.847-2.15 0 .05-.274.716-.602 1.535z" fill="#FE951C"/><path d="M233.847 39.449l-.328.563c-.493.665-.493.87-.055.46l.329-.307-.274.359c-.164.204-.274.358-.329.307-.054-.052-.549.411-1.152 1.026-1.478 1.535-3.67 3.073-6.517 4.711-3.123 1.743-6.794 3.279-9.041 3.79-.274.052-.657.154-.931.205-.274.051-.657.154-.931.205-.219.051-.604.154-.823.205-.876.256-5.314.665-7.123.665-2.847 0-6.025-.614-8.546-1.638l-1.259-.512.931-.46c.547-.256 1.04-.512 1.15-.512.823-.051 7.341-4.816 10.245-7.532.821-.819 1.259-1.177 2.685-2.508.274-.205.712-.614.986-.821 1.095-.922 4.437-4.354 5.699-5.94 1.423-1.743 3.561-5.072 4.382-6.915.438-.973.493-1.231.438-2.101-.055-.87-.109-1.075-.438-1.229-.164-.102-.274-.204-.219-.204.11 0 0-.205-.109-.41-.384-.512-.876-.41-1.098.256-.274.717-.876 1.433-1.861 2.201-.931.719-1.15 1.129-.329.668l.493-.258-.548.514c-.273.256-.383.46-.219.358.274-.102.274-.051.219.205 0 .205 0 .358.055.41.219.05-1.371 2.356-2.466 3.687-2.3 2.715-6.739 7.017-10.519 10.193-3.507 2.92-9.203 7.018-9.477 6.813-.109-.102 1.533-4.097 2.19-5.277.219-.41.55-1.126.66-1.536.164-.46.602-1.486 1.04-2.357.438-.819.766-1.535.766-1.638 0-.05.11-.255.329-.46.164-.205.547-1.129.931-2.101.385-.973.988-2.204 1.425-2.92.438-.614.931-1.485 1.041-1.894.109-.358.602-1.282.985-2.05.438-.768.769-1.433.769-1.484-.055-.052.055-.154.219-.154.11 0 .164-.051.11-.154-.11-.207.383-1.282 1.149-2.459a21.09 21.09 0 001.095-2.203c.329-.666.767-1.587 1.098-2.099a50.02 50.02 0 00.876-1.743c.274-.767.876-1.74 3.78-6.044.438-.615.821-1.126.876-1.178.438-.204-.274-1.433-.821-1.382-.11 0-.219-.102-.219-.204 0-.207-.165-.259-.438-.259-.329.052-.605-.05-.769-.358-.219-.307-.329-.307-.602-.154-.165.103-.384.205-.438.205l-.274.256c-.164.207-.164.207.109 0 .11-.102.219-.153.219-.102-.054.102-.164.463-.328.77-.11.358-.274.614-.329.563-.109-.051-.93 1.075-1.918 2.562-3.395 5.172-8.218 13.571-8.437 14.802-.054.256-.219.665-.438.921-.164.256-.328.512-.328.615 0 .05-.602 1.333-1.259 2.715-.715 1.433-1.755 3.585-2.357 4.814-.548 1.18-1.15 2.306-1.259 2.51-.493.768-1.7 3.535-1.645 3.79 0 .103-.11.205-.164.205-.11.051-.11.103-.11.154.055.102 0 .307-.164.512-.164.207-.274.463-.274.514 0 .102-.328.87-.766 1.689-.384.87-1.041 2.306-1.372 3.227a32.482 32.482 0 01-1.204 2.869c-.767 1.843-2.576 6.915-3.342 9.476-.657 2.304-1.26 5.326-1.26 6.452 0 1.334.438 2.613.931 2.665.164 0 .438.255.657.511.329.461.602.617 1.7 1.026.657.307.821.256 1.15 0 .164-.153.273-.46.273-.975 0-.819 0-.819-.602-1.074l-.602-.256.109-.82c.055-.974.438-2.356.931-3.585.164-.512.493-1.589.657-2.305.164-.768.438-1.69.657-2.05.167-.41.441-1.024.495-1.382.438-1.536.931-2.92 1.314-3.637.219-.41.438-1.024.548-1.382.055-.358.274-.924.492-1.333l.329-.768.714.819c.329.46.767.87.931.924.164.05.328.153.328.256 0 .204 1.314.972 2.467 1.382 1.368.512 3.285.921 5.367 1.177 1.752.205 2.412.205 4.547 0 1.317-.102 2.904-.358 3.452-.512.547-.153 1.918-.512 3.013-.819 3.89-1.075 9.698-3.79 12.819-5.942 1.043-.717 1.098-.87.055-.256-1.095.716-.767.358.383-.41 2.247-1.484 3.726-2.92 4.932-4.66.548-.924.603-1.129.11-1.896l-.329-.563zm-43.774 14.75c-.054.718-.876 3.074-1.04 2.972-.109 0-.109.051-.109.154.109.358-.11 1.177-.329 1.384-.109.102-.164.256-.109.358 0 .051-.11.768-.331 1.587-.165.82-.438 1.896-.548 2.408-.109.512-.328 1.331-.383 1.792-.219 1.282-.274.358-.055-1.126.274-2.255 1.919-7.837 2.74-9.58l.219-.409-.055.46zm1.424-3.329c-.931 2.46-1.15 2.87-1.314 2.613-.164-.204.109-1.023.383-1.177.11-.051.329-.563.493-1.18.164-.563.438-1.484.712-2.098.331-.82.44-.975.495-.666.055.154-.274 1.229-.769 2.508zm3.232-7.785c-.218.563-.602 1.382-.875 1.794-.274.46-.438.87-.438 1.024 0 .358-.493 1.535-.712 1.535-.11 0-.11.052-.055.154.055.051.055.154 0 .154-.328 0 .329-2.15 1.424-4.507.383-.768 1.368-3.022 2.247-4.968.876-1.947 1.752-3.841 1.971-4.253.219-.41.711-1.33 1.04-2.047.331-.717.659-1.334.714-1.334.11 0-.438 1.692-.714 2-.219.357-3.89 8.605-4.602 10.448zm34.736 1.794c-1.262.973-4.111 2.662-5.754 3.432-1.642.717-2.904 1.177-2.411.87.11-.102 1.207-.665 2.357-1.23 2.247-1.127 6.137-3.535 6.903-4.2.219-.205.493-.41.548-.41.219 0-.603.717-1.643 1.538z" fill="#FE951C"/><path d="M241.407 50.41c0-.103.055-.256.219-.307.274-.154 1.314-1.178 2.464-2.511 2.521-2.815 3.013-3.432 3.889-4.814 3.507-5.123 3.999-6.096 3.999-6.915l-.054-.512-.219.359c-.165.153-.219.358-.165.41.165.153-.219.818-.383.716-.109 0-.164 0-.055.102.11.102-2.189 3.278-2.958 4.046-.329.31-.384.36-.329.103 0-.154.11-.359.219-.512.605-.768 2.028-2.816 2.685-3.79.383-.615.821-1.229.986-1.331.109-.154.164-.307.109-.41-.109-.256-.328 0-.985 1.024-.274.46-.603.921-.657 1.024-.11.102-.274.41-.438.614-.11.207-.219.36-.274.258 0-.051.383-.616.821-1.333.438-.614.767-1.228.657-1.28-.055-.05 0-.153.11-.153.273-.051 1.095-1.487.93-1.59-.054-.05-.219.205-.438.564-.219.36-.438.668-.547.668-.11 0-.602.665-1.095 1.433-2.959 4.455-8.932 11.063-13.095 14.393-1.916 1.538-3.397 2.459-4.273 2.613l-.712.153-.054-.614c-.055-.41-.055-.768 0-.82.219-.255.109-.667-.165-.513-.109.05-.164.05-.164-.052 0-.102.11-.204.274-.204.109 0 .219-.256.328-.717.329-1.843 1.645-5.53 2.521-7.068.11-.154.384-.717.603-1.178.219-.46.547-1.077.711-1.384.165-.307.603-1.024.986-1.69.328-.614.824-1.432 1.043-1.844.219-.359.657-1.075.876-1.587.273-.46.602-1.126.821-1.485.164-.36.328-.82.328-1.18l-.054-.613-1.041-.615c-.876-.563-1.149-.665-1.59-.614-.493.051-.602.154-1.314 1.075-.712.972-.985 1.433-2.521 4.404-.438.87-.985 1.948-1.204 2.357a18.27 18.27 0 00-.931 2.099 73.555 73.555 0 01-.876 2.203c-.164.461-.438 1.229-.55 1.64-.164.41-.328 1.076-.438 1.434-.328 1.126-1.15 5.277-1.095 5.635 0 .102.329.512.712.973 1.207 1.433 2.794 2.203 4.437 2.152h.824c.657 0 3.506-1.487 4.656-2.51 1.423-1.18 2.466-2.204 2.466-2.306zm5.477-8.553c.219.05.384.153.438.153 0 0-.109.052-.328.103-.219 0-.383-.051-.383-.154 0-.102.054-.153.273-.102zm-7.341-16.443c.11.102.219.256.274.307 0 .102.219.358.438.614.273.307.492.41.933.41.274 0 .602 0 .657.051.274.307.821-.358 1.861-2.252a26.6 26.6 0 012.686-3.995c.383-.463.766-1.077.766-1.282 0-.205.11-.512.164-.614.11-.205.055-.41-.219-.922-.492-1.026-.766-.975-2.135.205-1.426 1.229-4.111 4.558-5.042 6.096-.602 1.126-.657 1.229-.383 1.382zM72.432 123.698c-1.64 0-3.04-.3-4.2-.9-1.16-.6-2.19-1.47-3.09-2.61l1.92-1.92c.66.92 1.42 1.62 2.28 2.1.86.46 1.92.69 3.18.69 1.24 0 2.23-.27 2.97-.81.76-.54 1.14-1.28 1.14-2.22 0-.78-.18-1.41-.54-1.89-.36-.48-.85-.87-1.47-1.17-.6-.32-1.26-.6-1.98-.84-.72-.26-1.44-.53-2.16-.81-.72-.3-1.38-.66-1.98-1.08-.6-.44-1.09-1.01-1.47-1.71-.36-.7-.54-1.58-.54-2.64 0-1.18.28-2.18.84-3 .58-.84 1.36-1.48 2.34-1.92 1-.46 2.12-.69 3.36-.69 1.36 0 2.58.27 3.66.81 1.08.52 1.96 1.21 2.64 2.07l-1.92 1.92c-.62-.72-1.29-1.26-2.01-1.62-.7-.36-1.51-.54-2.43-.54-1.12 0-2.01.25-2.67.75-.66.48-.99 1.16-.99 2.04 0 .7.18 1.27.54 1.71.38.42.87.78 1.47 1.08.6.3 1.26.58 1.98.84.74.24 1.47.51 2.19.81.72.3 1.38.68 1.98 1.14.6.46 1.08 1.06 1.44 1.8.38.72.57 1.63.57 2.73 0 1.84-.64 3.28-1.92 4.32-1.26 1.04-2.97 1.56-5.13 1.56zm18.672 0c-1.54 0-2.92-.34-4.14-1.02a7.79 7.79 0 01-2.85-2.85c-.7-1.22-1.05-2.6-1.05-4.14v-13.11h2.82v13.05c0 1.1.23 2.05.69 2.85.46.8 1.08 1.42 1.86 1.86.8.44 1.69.66 2.67.66 1.02 0 1.91-.22 2.67-.66.78-.44 1.39-1.06 1.83-1.86.46-.8.69-1.74.69-2.82v-13.08h2.85v13.14c0 1.54-.35 2.91-1.05 4.11a7.79 7.79 0 01-2.85 2.85c-1.2.68-2.58 1.02-4.14 1.02zm17.905 0c-1.64 0-3.04-.3-4.2-.9-1.16-.6-2.19-1.47-3.09-2.61l1.92-1.92c.66.92 1.42 1.62 2.28 2.1.86.46 1.92.69 3.18.69 1.24 0 2.23-.27 2.97-.81.76-.54 1.14-1.28 1.14-2.22 0-.78-.18-1.41-.54-1.89-.36-.48-.85-.87-1.47-1.17-.6-.32-1.26-.6-1.98-.84-.72-.26-1.44-.53-2.16-.81-.72-.3-1.38-.66-1.98-1.08-.6-.44-1.09-1.01-1.47-1.71-.36-.7-.54-1.58-.54-2.64 0-1.18.28-2.18.84-3 .58-.84 1.36-1.48 2.34-1.92 1-.46 2.12-.69 3.36-.69 1.36 0 2.58.27 3.66.81 1.08.52 1.96 1.21 2.64 2.07l-1.92 1.92c-.62-.72-1.29-1.26-2.01-1.62-.7-.36-1.51-.54-2.43-.54-1.12 0-2.01.25-2.67.75-.66.48-.99 1.16-.99 2.04 0 .7.18 1.27.54 1.71.38.42.87.78 1.47 1.08.6.3 1.26.58 1.98.84.74.24 1.47.51 2.19.81.72.3 1.38.68 1.98 1.14.6.46 1.08 1.06 1.44 1.8.38.72.57 1.63.57 2.73 0 1.84-.64 3.28-1.92 4.32-1.26 1.04-2.97 1.56-5.13 1.56zm10.52-.3v-20.82h2.82v20.82h-2.82zm13.44 0v-20.82h2.82v20.82h-2.82zm-11.52-9.48v-2.58h12.21v2.58h-12.21zm18.932 9.48v-20.82h2.82v20.82h-2.82zm15.205 0v-2.46h6.3c1.2 0 2.14-.35 2.82-1.05.68-.72 1.02-1.58 1.02-2.58 0-.68-.15-1.29-.45-1.83-.3-.56-.74-1-1.32-1.32-.56-.32-1.22-.48-1.98-.48h-6.39v-2.46h5.97c1 0 1.79-.26 2.37-.78.6-.54.9-1.31.9-2.31s-.31-1.76-.93-2.28c-.62-.54-1.44-.81-2.46-.81h-5.85v-2.46h5.91c1.36 0 2.49.25 3.39.75.92.48 1.61 1.12 2.07 1.92.48.8.72 1.68.72 2.64 0 1.12-.31 2.1-.93 2.94-.6.84-1.49 1.5-2.67 1.98l.24-.9c1.34.48 2.38 1.21 3.12 2.19.76.96 1.14 2.1 1.14 3.42 0 1.1-.27 2.09-.81 2.97-.54.88-1.32 1.59-2.34 2.13-1 .52-2.23.78-3.69.78h-6.15zm-1.89 0v-20.82h2.82v20.82h-2.82zm16.831 0l8.52-20.82h2.04l8.49 20.82h-3.06l-6.99-17.61h1.05l-7.05 17.61h-3zm4.05-4.71v-2.46h10.95v2.46h-10.95zm19.694-4.35v-2.37h5.64c1.22 0 2.16-.31 2.82-.93.66-.62.99-1.46.99-2.52 0-1-.33-1.83-.99-2.49-.64-.66-1.57-.99-2.79-.99h-5.67v-2.46h5.76c1.32 0 2.47.26 3.45.78.98.5 1.73 1.19 2.25 2.07.54.88.81 1.89.81 3.03 0 1.18-.27 2.21-.81 3.09-.52.88-1.27 1.57-2.25 2.07-.98.48-2.13.72-3.45.72h-5.76zm-1.89 9.06v-20.82h2.82v20.82h-2.82zm12 0l-7.56-9.33 2.67-.93 8.46 10.26h-3.57z" fill="#FE951C"/></svg>