<svg width="252" height="159" viewBox="0 0 252 159" fill="none" xmlns="http://www.w3.org/2000/svg">
<path d="M59.3059 3.64553C59.5821 3.54316 59.5821 3.54316 59.3059 3.95265C57.2802 6.77027 48.0749 23.569 48.0749 24.3903C48.0749 24.5438 48.2392 24.6462 48.4059 24.6462C48.7344 24.595 48.9534 24.3391 49.5009 23.2618C51.1433 20.1371 52.4051 18.1408 52.843 17.8337C53.062 17.6289 53.281 17.4242 53.281 17.3218C53.281 17.2194 53.1715 17.2194 53.0073 17.373C52.843 17.5265 52.7883 17.5265 52.7883 17.3218C52.7883 16.9635 53.3905 16.0398 53.6095 16.0398C53.7738 16.0398 53.8833 15.8862 53.8833 15.5791C53.8833 15.0672 55.033 12.8639 55.4162 12.6591C55.5257 12.6079 55.6352 12.4032 55.6352 12.2496C55.6352 12.1472 55.7472 11.8913 55.9115 11.6866C56.2947 11.2771 57.1159 10.8164 57.1159 11.0211C57.1159 11.0723 56.6779 12.0449 56.1305 13.1198C54.814 15.5791 52.0766 20.9072 51.3623 22.3916C50.4316 24.1855 50.0484 25.1069 50.1031 25.2093C50.2126 25.2605 50.9244 23.9296 50.9244 23.6201C50.9244 23.5178 50.9791 23.569 51.0886 23.6713C51.1981 23.8272 51.2528 23.8272 51.4171 23.569C51.5266 23.4154 51.5813 23.1083 51.5813 22.9035C51.5813 22.494 53.6643 18.5503 54.2118 17.936C54.4308 17.6801 54.6498 17.373 54.6498 17.2706C54.6498 17.1682 54.7045 17.0147 54.814 16.9123C55.252 16.6029 53.8833 20.0859 52.5693 22.5964C49.8841 27.9245 49.4461 28.7947 48.4607 30.8957C47.1442 33.711 45.3375 37.0405 45.0637 37.1428C44.8448 37.194 44.8448 37.0917 44.9543 36.8357C45.009 36.631 45.0638 36.1703 45.1185 35.812C45.1732 34.9418 44.8448 35.1465 44.5138 36.1703C44.3495 36.6822 44.1853 36.9381 43.9115 37.0405C43.6378 37.0917 43.5283 37.2964 43.4735 37.6035C43.4735 37.8618 43.4188 37.913 43.4188 37.7594C43.364 37.6035 43.1998 37.5012 43.0903 37.5012C42.8713 37.5012 42.8713 37.5523 42.8713 37.7059C42.9808 37.8106 42.9261 38.0665 42.8713 38.2713C42.7618 38.5784 42.7071 38.476 42.7071 37.8618C42.7071 37.2452 42.9261 36.631 43.9663 34.4299C44.6258 32.9432 45.228 31.7147 45.228 31.6123C45.228 31.5611 45.7755 30.4839 46.4325 29.2042C47.8559 26.5913 47.9654 26.233 47.4727 26.2842C47.1442 26.3354 47.1442 26.3354 47.4179 26.0794C47.5822 25.9259 47.6917 25.7211 47.6369 25.67C47.4179 25.5164 47.199 25.5164 47.199 25.7211C47.199 25.8235 46.761 26.7961 46.1587 27.8733C45.5565 28.9483 44.6258 30.7398 44.1305 31.9194C43.583 33.0455 42.8713 34.6347 42.4333 35.4537L41.7216 36.9381L39.3649 37.194C36.8987 37.45 36.2965 37.5523 36.2965 37.8106C36.2965 37.9642 35.8037 37.9642 35.749 37.7594C35.6942 37.6547 32.5711 38.1177 31.9141 38.3737C31.7498 38.4248 31.5309 38.476 31.4214 38.476C30.6549 38.5272 24.956 39.8069 24.6823 40.0116C24.2443 40.3188 23.2041 40.5747 21.8329 40.7283C21.0116 40.7795 20.2451 40.8818 20.1356 40.933C19.9167 41.0354 19.8619 40.933 19.9714 40.37C20.0262 39.9605 20.1356 39.7557 20.2451 39.7557C20.5189 39.8069 20.5189 39.7045 20.2451 39.295C20.0809 39.0391 20.0262 38.8343 20.1356 38.6296C20.2451 38.3737 20.2999 38.3737 20.2999 38.732C20.2999 38.9879 20.4094 39.1927 20.5189 39.1927C20.7926 39.1927 22.4923 35.9144 22.6018 35.2489C22.6566 34.737 22.9303 34.2229 23.1493 34.2229C23.2588 34.2229 23.3136 34.0693 23.3136 33.9157C23.3136 33.7622 23.3683 33.6086 23.4778 33.5574C23.6421 33.5062 26.7652 27.7198 27.9697 25.2605C28.4077 24.3391 29.7241 21.9822 30.8191 20.0347C31.9688 18.0384 32.8996 16.3981 32.8996 16.3469C32.8996 16.3469 33.3376 15.6303 33.8328 14.8113C34.3803 13.9411 35.4205 12.0961 36.187 10.714C36.9535 9.27844 37.7772 7.8452 38.0509 7.48689C38.2699 7.12858 38.5984 6.51434 38.8174 6.1537C39.3102 5.18115 39.9671 3.54316 39.9671 3.3896C39.9671 3.33841 39.8029 3.18485 39.5839 3.13366C39.3102 3.03129 39.2007 2.8754 39.2554 2.67065C39.3649 2.36353 38.9269 2.20997 37.8867 2.10759C37.3392 2.0564 36.4607 2.77302 36.4607 3.28722C36.4607 3.44078 36.3512 3.54316 36.2965 3.54316C36.187 3.54316 35.5848 4.20859 34.9278 5.07877C34.2708 5.89777 33.6685 6.71909 33.559 6.82146C33.1186 7.28214 31.0381 10.3045 31.1476 10.3557C31.1476 10.3557 30.9834 10.6116 30.6549 10.9188C29.8884 11.6866 29.0099 12.8127 29.0099 13.0686C29.0099 13.2222 28.9552 13.3245 28.9004 13.3245C28.7362 13.3245 27.9149 14.4018 24.956 18.6015C24.2443 19.574 23.5873 20.4465 23.4778 20.4977C23.0946 20.6001 23.1493 21.5215 23.5873 22.1357C23.8063 22.4428 24.0253 22.8523 24.0253 23.0571C24.0253 23.2618 24.08 23.4154 24.2443 23.4154C24.3538 23.4154 24.518 23.4666 24.5728 23.5178C24.6823 23.6713 23.8611 25.3628 22.8208 27.1032C21.6139 29.0506 19.2597 33.5574 19.3144 33.7622C19.3692 33.9157 19.3144 34.0181 19.2049 33.9669C19.0954 33.9669 18.7669 34.4811 18.4359 35.1977C18.0527 35.9144 17.2315 37.6035 16.5197 38.9879C15.0963 41.7543 15.0963 41.8055 15.37 41.9079C15.4795 41.9591 15.589 41.9079 15.589 41.7543C15.589 41.652 15.6985 41.4472 15.8628 41.2425C16.1365 40.9842 16.1365 40.9842 16.027 41.2937C15.9175 41.6008 15.9175 41.652 16.0818 41.6008C16.1912 41.6008 16.8482 40.4723 17.5052 39.0903C18.1622 37.7594 18.8764 36.375 19.0407 36.0679C19.4239 35.4025 21.8876 30.7933 22.2186 30.1256C22.3828 29.8696 22.5471 29.5625 22.6018 29.4089C22.7113 29.3066 22.9851 28.7947 23.2588 28.334C23.6968 27.4126 24.7918 26.233 24.6275 26.8984C24.5728 27.052 24.4085 27.515 24.299 27.8733C24.0253 28.8971 23.7516 29.4601 21.7234 33.3015C21.2306 34.2764 20.7926 35.3513 20.7379 35.7096L20.6284 36.3238L21.0664 35.7096C21.7781 34.6859 21.3949 35.6072 20.0262 38.1689C19.3692 39.4486 18.7122 40.6771 18.6027 40.933C18.4359 41.396 17.6147 41.8055 16.7935 41.8055C16.5197 41.8055 16.1912 41.9079 16.027 42.0103C15.7533 42.1638 15.589 42.215 15.37 42.1126C15.0415 41.9591 14.8773 42.1126 14.9868 42.471C15.151 42.7781 14.601 42.8293 14.3273 42.5733C14.2178 42.5221 13.5608 42.6245 12.6301 42.8293C11.8089 43.034 10.6019 43.2388 9.94492 43.29C8.74044 43.3923 7.86446 43.5971 7.86446 43.853C7.86446 43.9042 7.75497 43.9554 7.70022 43.9042C7.53597 43.8018 5.89102 44.3649 5.56253 44.6208C5.50778 44.672 5.34353 44.7255 5.17929 44.7255C5.06979 44.7255 4.46755 44.9303 3.92007 45.135C3.37009 45.3398 2.32986 45.6469 1.61813 45.8516C0.139913 46.2611 0.194662 46.2611 0.0304162 46.8242C-0.0243329 47.1313 -0.0243329 47.2337 0.194662 47.2337C0.577903 47.2337 0.687401 47.592 0.468406 48.1551C0.30416 48.5157 0.358908 48.6181 0.577903 48.8228C0.961145 49.1299 1.18014 49.1299 1.45388 48.8228C1.56338 48.7204 1.83712 48.6181 2.05612 48.6181C2.27511 48.6181 2.43936 48.5157 2.43936 48.3621C2.43936 48.2598 2.54886 48.2086 2.7131 48.2598C2.87735 48.3109 3.97481 48.0015 5.17929 47.6432C7.53597 46.8754 13.2871 45.3398 13.3418 45.4421C13.3966 45.4421 13.2323 45.9028 12.9586 46.4147C12.5753 47.3361 12.5206 47.7967 12.9038 47.592C12.9586 47.5408 13.0681 47.592 13.1228 47.6432C13.1776 47.7456 13.1776 47.8479 13.0681 47.8991C12.8491 48.0527 12.8491 48.3109 13.0681 48.3109C13.2323 48.3109 13.7251 47.2849 13.7251 46.9266C13.7251 46.773 13.7798 46.6194 13.8893 46.5683C13.9441 46.5171 14.1631 46.2099 14.3821 45.8004C14.6558 45.135 14.7678 45.0838 15.7533 44.8279C16.3007 44.672 16.8482 44.6208 16.903 44.672C16.9577 44.7255 16.5745 45.6469 14.9868 48.9252C14.4916 49.8977 14.4368 50.4096 14.8225 49.8977C14.9868 49.693 15.0415 49.693 15.0415 49.8466C15.0415 50.0001 14.9868 50.2049 14.8225 50.3584C14.6558 50.5632 14.601 50.6144 14.601 50.4608C14.601 50.0513 14.2726 50.512 13.8893 51.4334C13.6703 51.9476 13.2323 52.9713 12.8491 53.6879C12.5206 54.3533 12.1921 55.1212 12.1921 55.277C12.1921 55.4818 12.0826 55.8401 11.9731 55.9937C11.4256 56.7103 9.39743 61.8825 8.68569 64.3418C8.5762 64.7001 8.41195 65.0072 8.3572 65.0072C8.30245 65.0072 8.19296 65.1096 8.08346 65.2632C7.86446 65.8798 7.48122 67.9272 7.48122 68.7974C7.48122 69.6187 7.37172 69.8235 7.04074 69.4652C6.54801 68.8998 6.71225 66.8011 7.42647 63.7788C8.02871 61.3194 10.2187 55.277 12.3563 50.2561C13.0681 48.6693 13.1776 48.0527 12.6301 48.6693C12.3563 48.9764 12.3563 48.9764 12.4658 48.6693C12.6848 48.0015 12.0826 48.2598 11.8089 48.9764C11.6994 49.3347 10.8756 51.2798 9.99967 53.3296C9.17843 55.3794 8.2477 57.6316 8.02871 58.3483C7.48122 59.8862 6.82175 61.7289 6.767 62.0873C6.71225 62.192 6.49326 63.0621 6.27426 63.9835C6.00052 64.9561 5.78152 66.3916 5.72677 67.2618C5.61728 68.6439 5.67203 68.8998 6.00052 69.6187C6.16476 70.0794 6.49326 70.5401 6.71225 70.6937C7.04074 70.9496 7.04074 70.9496 6.986 70.6425C6.93125 70.4377 6.93125 70.2842 7.04074 70.2842C7.09549 70.2842 7.20499 70.4889 7.25974 70.7449C7.37172 71.3079 7.59072 71.4615 8.2477 71.5639C8.52145 71.5639 8.90469 71.5639 9.01419 71.5127C9.34268 71.4615 9.67117 71.0008 9.56168 70.8472C9.56168 70.796 9.45218 70.1818 9.45218 69.4652C9.34268 68.3879 9.45218 67.8761 9.89017 66.3404C10.4377 64.2906 10.4924 64.1371 10.3282 63.6764C10.2187 63.4204 10.2187 63.3693 10.4924 63.4204C10.7114 63.4716 10.8209 63.3693 10.9851 62.8062C11.2066 62.0873 11.1519 61.8825 10.7661 61.9849C10.6019 62.0361 10.5472 61.9849 10.6019 61.9337C10.6567 61.8313 10.8756 61.7801 11.0424 61.7801C11.2614 61.7801 11.3709 61.6778 11.3709 61.473C11.3709 61.2683 11.9184 59.835 12.2469 59.272C12.3016 59.1184 12.4111 58.8625 12.4111 58.6577C12.4111 58.5018 12.4658 58.2459 12.5206 58.0923C12.9038 57.5293 13.7251 55.5842 13.7798 55.1212L13.8893 54.5581L13.5608 55.1747C13.1776 55.8913 13.2323 55.6353 13.8346 54.1486C14.0536 53.5855 14.3273 53.1249 14.4368 53.176C14.4916 53.2272 14.4916 53.1249 14.4916 52.9713C14.4368 52.8177 14.5463 52.4594 14.7678 52.1011C14.9868 51.6916 15.0415 51.5869 14.9868 51.8964C14.932 52.2035 14.932 52.2035 15.0963 51.9987C15.151 51.8452 15.2058 51.6381 15.151 51.5869C15.0963 51.4334 15.3153 50.6655 16.1365 48.7204C16.4102 48.1039 16.5197 47.592 16.465 47.4896C16.465 47.4384 16.5197 47.3361 16.684 47.2849C17.0125 47.1313 17.6695 45.8516 17.7242 45.1862C17.779 44.3137 17.8885 44.1089 18.3265 44.1089C18.8764 44.1089 21.6139 43.5459 21.8876 43.3923C21.9971 43.3411 22.2186 43.29 22.3828 43.2388C22.6018 43.2388 23.2588 43.1364 23.9158 42.9828C24.5728 42.8293 25.5583 42.6245 26.163 42.471C26.7652 42.3686 27.3127 42.1638 27.3675 42.1126C27.4222 42.0103 27.8055 41.9079 28.1887 41.9079C28.6267 41.8567 29.0099 41.7543 29.0099 41.652C29.0647 41.5496 29.1194 41.5496 29.2837 41.652C29.5574 41.8567 30.3811 41.5496 30.3811 41.2425C30.3811 41.1378 30.4359 41.0354 30.5454 41.0354C30.6549 41.0354 30.7096 41.0866 30.7096 41.1378C30.7096 41.1889 30.9834 41.2937 31.2571 41.2937C31.5309 41.2937 31.7498 41.2425 31.7498 41.0866C31.7498 40.8306 31.8046 40.8306 33.1733 40.7795C33.7233 40.7795 35.2015 40.5747 36.4607 40.37C38.7079 39.9605 40.4599 39.7557 40.4599 39.8581C40.4599 39.9093 39.7481 41.7031 38.8722 43.853C36.187 50.3072 34.9278 53.5855 34.9278 53.8927C34.9278 54.0462 35.0373 54.1998 35.092 54.1998C35.311 54.1998 35.311 54.7628 35.092 54.8652C35.0373 54.9164 34.9825 54.8652 35.0373 54.7117C35.1468 54.4557 34.9825 54.4045 34.7088 54.7117C34.3255 55.07 32.0236 61.1659 31.8593 62.2943C31.8046 62.5503 31.6951 62.9598 31.5856 63.2157C31.1476 64.1883 31.0381 65.1096 31.2024 65.7262C31.4761 66.3404 31.6951 66.5452 31.9141 66.2381C32.1331 65.9309 32.6806 66.2381 32.7901 66.8011C32.8996 67.1594 33.0091 67.313 33.2828 67.3642C33.5043 67.4154 33.9423 67.5689 34.216 67.6713C34.7088 67.8249 34.7635 67.8249 35.092 67.5689C35.2563 67.4154 35.4205 67.1082 35.4205 66.9035C35.4205 66.6476 35.5848 65.9821 35.8037 65.3656C35.968 64.7513 36.1322 64.1371 36.1322 63.9835C36.1322 63.574 35.8037 63.7788 35.53 64.2906C35.4205 64.5977 35.2563 64.8537 35.2015 64.8537C35.092 64.8537 35.2015 64.0859 35.4205 63.4716C35.53 63.2669 35.6942 62.6015 35.8585 62.0873C36.0227 61.5242 36.2965 61.0123 36.406 60.91C36.5155 60.7564 36.625 60.654 36.5702 60.5516C36.5155 60.5005 36.625 60.2957 36.844 60.0398C37.0082 59.835 37.1202 59.7838 37.063 59.8862C36.8987 60.5005 36.3512 61.9337 36.0775 62.6015C35.6942 63.5228 35.6942 63.6252 36.0775 63.5228C36.2965 63.4716 36.5155 63.2157 36.625 62.7038C36.9535 61.5242 37.4487 60.1933 37.7772 59.5279C37.9414 59.1696 38.4889 57.8364 38.9817 56.5567C39.4197 55.277 40.2956 53.1249 40.8456 51.6916C41.3931 50.3072 41.8311 49.0787 41.8311 48.9764C41.8311 48.8228 41.9406 48.5669 42.1048 48.3621C42.3786 48.0015 42.3786 48.0015 41.9406 47.8479C41.6121 47.7456 41.5026 47.592 41.5573 47.4384C41.6121 47.2849 41.6668 47.1313 41.6668 47.0801C41.6668 46.9777 41.7763 46.9266 41.9406 46.8242C42.1596 46.773 42.1596 46.8242 42.1048 47.1313C41.9406 47.7456 42.4333 47.7456 42.7071 47.1825C42.7618 46.9266 42.9808 46.4659 43.0903 46.2099C43.1998 45.954 43.5283 45.3398 43.7473 44.7767C43.9663 44.2625 44.4043 43.4435 44.6258 42.9316C45.009 42.1638 45.009 42.0615 44.79 41.8567C44.4043 41.6008 44.459 41.4984 44.9543 41.4984C45.228 41.4984 45.3922 41.6008 45.3922 41.7031C45.3922 41.8567 45.447 41.9591 45.5565 41.9591C45.6112 41.9591 45.7207 42.0615 45.7207 42.1638C45.7207 42.3174 45.9397 42.3686 46.4872 42.4198C47.2537 42.4198 47.3632 42.3686 48.0749 41.6008C48.5702 41.1889 48.8987 40.7283 48.8987 40.5747C48.8987 40.37 49.0081 40.2676 49.1176 40.2676C49.2271 40.2676 49.1724 40.114 49.0081 39.8581C48.8439 39.6533 48.7344 39.3462 48.7344 39.1415C48.7344 38.9367 48.4059 38.476 48.0202 38.1177L47.2537 37.3988L48.5154 34.7882C49.1724 33.3015 50.1031 31.4587 50.4864 30.6886C50.9244 29.9208 51.2528 29.2042 51.1433 29.1018C51.0886 29.0506 51.1433 28.9483 51.2528 28.9483C51.4171 28.9483 52.1861 27.5662 55.1425 21.5215C55.69 20.3954 58.4299 15.3744 60.5129 11.6354C61.1151 10.5604 62.1553 8.97132 62.7575 8.04995C63.417 7.17977 64.1288 6.1537 64.4025 5.7442C64.6762 5.38589 64.95 4.77165 65.0595 4.46453C65.169 4.10622 65.3332 3.64553 65.388 3.44078C65.4975 3.23604 65.5522 2.92659 65.5522 2.72184C65.5522 2.26115 64.95 1.54453 64.6215 1.64691C64.4572 1.6981 64.1835 1.64691 63.9645 1.54453C63.5813 1.44216 63.5265 1.39097 63.6908 1.18622C63.855 1.03266 63.8003 0.930288 63.3623 0.72554C63.1433 0.571979 62.5933 0.469604 62.2648 0.469604C61.6626 0.520791 61.5531 0.571979 60.7866 1.54453C60.2939 2.10759 59.6916 2.77302 59.4726 3.03129C58.9226 3.64553 58.8679 3.79909 59.3059 3.64553ZM28.3529 21.8286C28.2982 21.9822 28.1887 21.9822 28.1887 21.931C28.1887 21.8286 28.2982 21.675 28.3529 21.5215C28.4624 21.4191 28.5172 21.3679 28.5172 21.4703C28.5172 21.5215 28.4624 21.7262 28.3529 21.8286ZM31.9688 16.9123C32.1331 16.654 32.2426 16.3469 32.2426 16.1934C32.2426 15.9374 33.6138 13.8899 33.8875 13.7364C33.997 13.6852 34.1065 13.4804 34.1613 13.2734C34.2708 12.8127 35.2563 11.2771 35.3658 11.3794C35.4753 11.4306 34.0518 13.9923 33.6138 14.5554C33.4496 14.7601 33.0638 15.3744 32.8448 15.7839C32.5711 16.2957 32.2426 16.8076 32.0236 17.0659L31.6951 17.4242L31.9688 16.9123ZM31.2571 13.7876C31.3666 13.634 31.3666 13.634 31.4214 13.9411C31.4214 14.0947 31.3119 14.2482 31.2571 14.2482C31.0381 14.2482 31.0381 14.0947 31.2571 13.7876ZM30.7644 18.9086C30.8191 18.9086 30.8739 18.9598 30.8739 19.011C30.2716 20.2906 29.6694 21.2143 29.5027 21.112C29.3932 21.0608 29.3932 21.112 29.4479 21.2143C29.5027 21.3167 29.3932 21.675 29.1742 22.0333L28.7362 22.6988L28.7909 22.0845C28.7909 21.7774 29.0099 21.2655 29.2289 20.9584C29.5027 20.6513 29.8884 20.0347 30.1074 19.6252C30.3811 19.2157 30.6549 18.9086 30.7644 18.9086ZM29.7241 19.3181C29.8336 19.3181 29.6694 19.7276 29.3932 20.1371C29.1194 20.6001 28.8457 21.0096 28.8457 21.0608C28.8457 21.1632 28.7909 21.2143 28.6814 21.2143C28.4624 21.2143 28.4624 21.1632 28.8457 20.4465C29.1742 19.6764 29.5574 19.1645 29.7241 19.3181ZM28.7909 18.6015C28.9004 18.6015 28.6814 19.1133 28.4624 19.2669C28.2434 19.4205 28.0244 19.4205 28.0244 19.2669C28.0244 19.1133 28.6814 18.6015 28.7909 18.6015ZM27.8055 19.9323C27.9149 19.7276 28.0244 19.6764 28.0244 19.7788C28.0244 20.0347 27.5317 20.7025 27.5317 20.4465C27.5317 20.2906 27.6412 20.0859 27.8055 19.9323ZM22.3281 34.5323C22.2186 34.5323 22.2186 34.4299 22.2733 34.2764C22.3281 34.1717 22.3828 34.0693 22.4376 34.0693C22.4376 34.0693 22.4923 34.1717 22.4923 34.2764C22.4923 34.4299 22.4376 34.5323 22.3281 34.5323ZM22.2733 33.5574C22.2733 33.4039 22.3828 33.3015 22.4376 33.3527C22.4923 33.4039 22.4376 33.5574 22.3281 33.6598C22.1614 33.8134 22.1614 33.7622 22.2733 33.5574ZM13.0133 45.0326C12.9586 45.0838 12.8491 45.0326 12.9038 44.9303C13.0133 44.7255 13.2323 44.672 13.2323 44.8791C13.2323 44.9303 13.1228 44.9814 13.0133 45.0326ZM13.7798 46.1588C13.6156 46.2611 13.6156 46.2099 13.6703 45.954C13.7251 45.7493 13.8346 45.6981 13.8893 45.8004C13.8893 45.9028 13.8346 46.1076 13.7798 46.1588ZM7.09549 62.1408C7.20499 61.7801 7.48122 61.473 7.48122 61.7289C7.48122 61.7801 7.37172 61.9849 7.25974 62.192C7.04074 62.4479 7.04074 62.4479 7.09549 62.1408ZM19.4239 40.4211C19.3144 40.7283 19.1502 41.0354 19.0407 41.0866C18.9312 41.1889 18.9312 41.1378 19.0407 40.933C19.0954 40.7795 19.1502 40.5747 19.2049 40.4723C19.2049 40.3188 19.3144 40.1652 19.4239 40.0628C19.5882 39.9093 19.5882 40.0116 19.4239 40.4211ZM32.4616 40.1652C32.1878 40.2164 31.6951 40.2676 31.4761 40.3188L30.9834 40.4211L31.4761 40.2164C31.7498 40.1652 32.0783 40.0116 32.1331 39.9605C32.2426 39.9093 32.4616 39.9093 32.6258 39.9605C32.9543 40.0116 32.8996 40.0628 32.4616 40.1652ZM33.5043 39.9093C33.2281 39.9093 33.1186 39.9093 33.2281 39.8581C33.3376 39.8069 33.559 39.8069 33.7233 39.8581C33.8875 39.9093 33.778 39.9093 33.5043 39.9093ZM36.844 39.295C36.6797 39.3974 36.1322 39.4998 35.6942 39.551C35.2015 39.6021 34.9825 39.6021 35.2015 39.4998C35.3658 39.4486 35.9132 39.3462 36.3512 39.295C36.8987 39.1927 37.063 39.2438 36.844 39.295ZM39.0912 38.9879C38.8722 39.0391 38.8174 38.9879 38.8722 38.9367C38.9269 38.8855 39.0364 38.8855 39.1459 38.8855C39.3102 38.9367 39.2554 38.9879 39.0912 38.9879ZM44.24 38.2201C44.2948 38.2201 44.4043 38.3225 44.459 38.4248C44.5138 38.476 44.459 38.5784 44.3495 38.5784C44.2948 38.5784 44.1853 38.476 44.1853 38.4248C44.1853 38.3225 44.24 38.2201 44.24 38.2201ZM42.7618 40.4723C42.8166 40.5235 42.8166 40.6259 42.7618 40.7283C42.7071 40.8818 42.7071 40.8306 42.7071 40.6771C42.7071 40.4723 42.7071 40.4211 42.7618 40.4723ZM42.4333 36.5286C42.4881 36.375 42.5976 36.2727 42.6523 36.3238C42.7071 36.375 42.6523 36.4774 42.5428 36.5798C42.3786 36.7333 42.3238 36.7333 42.4333 36.5286ZM42.4333 39.7557C42.4881 39.8581 42.3786 40.0116 42.2691 40.114C42.0501 40.2676 41.9953 40.2164 41.9953 39.9605C41.9953 39.6533 42.2143 39.4998 42.4333 39.7557ZM38.2152 57.2221C37.9962 57.9388 37.175 59.7838 37.1202 59.5791C37.1202 59.3743 38.1057 56.8127 38.3247 56.6079C38.3794 56.5055 38.3247 56.8127 38.2152 57.2221ZM40.2956 51.1774C40.2409 51.2286 40.1314 51.1774 40.1314 51.0239C40.1314 50.7679 40.2409 50.7167 40.4051 50.9215C40.4599 51.0239 40.4051 51.1262 40.2956 51.1774ZM41.3383 49.0787C40.8456 50.4096 40.4051 50.8703 40.7884 49.6418C40.9004 49.3859 41.0646 48.874 41.1741 48.4645C41.2836 48.0527 41.3931 47.8479 41.5026 47.9503C41.6121 48.0527 41.5573 48.4645 41.3383 49.0787ZM42.4333 45.954C42.1048 45.954 42.1048 45.8004 42.4333 45.4421C42.6523 45.135 42.6523 45.135 42.6523 45.5445C42.6523 45.8516 42.5976 45.954 42.4333 45.954ZM41.1194 46.5171C40.9551 46.6706 40.8456 46.9266 40.9004 47.0801C40.9551 47.2337 40.9004 47.5408 40.6789 47.8479C40.4599 48.1039 40.2956 48.3621 40.3504 48.5157C40.4051 48.7716 39.8576 50.3072 38.5984 53.176C38.1057 54.5069 37.0082 57.3757 36.187 59.5279C34.5445 64.0859 34.3255 64.5977 34.1613 64.1883C34.1065 64.0859 34.1613 63.7276 34.216 63.4204C35.2015 60.6028 36.6797 56.352 36.7892 56.096C36.844 55.9425 37.3939 54.6605 37.9962 53.2784C38.5437 51.8452 39.2007 50.2561 39.4197 49.693C40.1314 48.0015 41.1741 45.2374 41.1741 45.0838C41.1741 44.672 40.8456 44.9814 40.7336 45.4421C40.6789 45.8004 40.4599 46.1588 40.2956 46.3123C40.0766 46.5171 39.9671 46.7218 40.0766 46.9777C40.1314 47.2337 40.0766 47.3872 40.0219 47.3872C39.9124 47.3872 39.8029 47.592 39.6934 47.8991C39.5839 48.3621 39.0912 49.5906 38.4889 50.8703C38.3247 51.1774 38.1057 51.7428 37.9414 52.1011C37.8319 52.4594 37.6677 52.7665 37.6129 52.8689C37.5582 52.9201 37.4487 53.1249 37.4487 53.3296C37.4487 53.5344 37.3939 53.7391 37.3392 53.7903C37.2297 53.8927 36.7892 54.8652 36.3512 56.0448C35.9132 57.171 35.4753 58.1947 35.4205 58.2971C35.3658 58.3483 35.2015 58.7601 35.092 59.2208C34.9825 59.6303 34.8183 60.1933 34.654 60.5005C34.5445 60.7564 34.216 61.5754 33.997 62.3455C33.7233 63.1645 33.3376 64.0347 32.9543 64.5466C32.2973 65.3656 32.0783 65.6238 32.0783 65.3656C32.0783 65.0584 33.0638 61.6778 33.559 60.2957C35.8037 53.995 38.0509 48.2086 38.8722 46.4659C39.0364 46.2099 39.1459 45.8516 39.1459 45.7493C39.1459 45.6469 39.2007 45.5445 39.3102 45.5445C39.3649 45.5445 39.6934 45.0326 40.0219 44.4673C40.2956 43.9042 40.6241 43.3411 40.7336 43.1876C40.9551 42.9316 41.6121 41.4472 41.7216 40.8306C41.8311 40.4211 41.8858 40.37 42.1048 40.6259C42.2691 40.7795 42.3238 40.933 42.1596 41.2425C42.0501 41.4984 42.0501 41.652 42.1596 41.7031C42.2691 41.8055 42.3238 41.7031 42.3238 41.6008C42.3238 41.4472 42.4333 41.3448 42.5428 41.3448C42.7071 41.3448 42.9261 41.0866 43.0903 40.7795C43.3093 40.37 43.4188 40.2676 43.583 40.37C43.6925 40.5235 43.583 40.9842 43.1998 42.0103C42.2691 44.3137 41.3931 46.2611 41.1194 46.5171ZM44.2948 41.652C44.459 41.8055 44.4043 42.0103 44.24 42.2662C44.0758 42.6245 44.021 42.6245 44.021 42.3686C43.9663 42.1126 43.9663 42.1638 43.7473 42.5221C43.6378 42.8293 43.4735 43.034 43.4735 43.034C43.3093 43.034 44.021 41.0354 44.4043 40.2676C44.6805 39.8069 44.8448 39.3462 44.8448 39.1927C44.8448 39.1415 44.9543 38.9879 45.009 38.9367C45.1185 38.8855 44.9543 39.4486 44.6805 40.114C44.2948 41.0354 44.1853 41.4984 44.2948 41.652ZM44.9543 40.6259C44.6805 41.2425 44.459 41.396 44.6258 40.8306C44.79 40.3188 45.1732 39.7045 45.1732 39.9093C45.228 40.0116 45.0638 40.37 44.9543 40.6259ZM46.104 40.3188C45.447 40.7795 45.3922 40.7283 45.8302 40.0628C46.104 39.6533 46.7062 39.4486 46.7062 39.7557C46.7062 39.8581 46.4325 40.114 46.104 40.3188ZM47.5274 35.3513C47.4727 35.4537 47.4179 35.4025 47.4179 35.2489C47.3632 35.0954 47.4179 34.993 47.4727 35.0442C47.5274 35.0954 47.5274 35.2489 47.5274 35.3513ZM47.199 34.6859C47.199 34.5323 47.3632 34.2764 47.4727 34.1205C47.5822 33.9669 47.6917 33.9157 47.6917 33.9669C47.6917 34.2764 47.2537 34.9418 47.199 34.6859Z" fill="#FE951C"/>
<path d="M84.2338 39.5509C84.0123 39.5509 83.3006 40.1652 83.1911 40.5747C83.1364 40.7282 82.9174 40.8306 82.7531 40.8818C82.5341 40.933 81.9866 41.3448 81.4939 41.8567C80.9464 42.3174 80.5084 42.6757 80.4537 42.6757C80.4537 42.6245 80.5632 42.4197 80.7822 42.215C80.9464 42.0614 81.1106 41.8055 81.0011 41.6519C80.9464 41.4984 80.4537 41.8567 79.3562 42.8804C78.3707 43.7506 77.7137 44.2625 77.659 44.1601C77.5495 44.0577 77.002 44.3648 76.1783 45.0838C73.1124 47.5408 71.0294 48.874 68.3442 50.0001C67.1398 50.512 66.2638 50.6655 65.6068 50.512C65.2211 50.4608 65.2211 50.3584 65.2211 49.5394C65.2211 48.3109 65.7163 46.6706 66.866 44.0065C67.4135 42.6757 68.1252 40.9842 68.399 40.1652C68.6727 39.3974 69.168 38.0665 69.4964 37.2964C69.8249 36.3238 70.0439 35.556 70.0439 35.0441C70.0439 34.2763 69.6607 33.3014 69.3322 33.3014C69.2227 33.3014 68.9465 33.1479 68.7275 32.9431C68.5632 32.7896 68.2895 32.5336 68.18 32.4825C68.0157 32.3801 67.742 31.9706 67.4683 31.5099C67.1945 30.9468 66.8113 30.535 66.4828 30.2791C66.1543 30.1255 65.8258 29.8696 65.7163 29.7672C65.6068 29.6137 65.1116 29.4601 64.6736 29.3577C63.5786 29.1018 62.8121 29.3065 61.9361 30.0743C61.6052 30.3303 61.1124 30.6374 60.8934 30.6374C60.6197 30.7398 59.9627 31.3052 58.9225 32.3289C57.168 34.1716 55.7993 35.7096 55.8541 35.8631C55.8541 35.9143 55.4708 36.4774 54.9233 37.0404C54.4306 37.6547 54.0449 38.2713 54.0449 38.3736C54.0449 38.5272 53.9354 38.6807 53.8259 38.7831C53.6616 38.8855 52.0739 40.8818 51.3622 41.9591C51.0337 42.4709 50.2647 43.4947 49.772 44.0577C49.553 44.3137 49.2245 44.8279 49.0602 45.1862C48.8412 45.4933 48.6222 45.8004 48.5675 45.8004C48.458 45.8004 48.4032 45.8516 48.4032 45.954C48.4032 46.0563 48.5127 46.0563 48.677 45.954C49.1697 45.5445 49.0055 45.954 48.2938 46.9265C47.6368 47.7455 47.5273 48.0015 47.6368 48.2597C47.6915 48.5157 47.6368 48.8228 47.363 49.2835C47.1988 49.693 47.0345 50.1025 47.0345 50.256C47.0345 50.4608 46.9798 50.4608 46.8703 50.3072C46.6488 50.0001 46.9798 48.5668 47.4725 47.592C48.02 46.517 48.02 46.517 47.801 46.517C47.6915 46.517 47.4178 47.0289 47.0893 47.592C46.1561 49.3858 46.2108 50.7167 47.144 51.3821C47.3083 51.4845 47.3083 51.5869 47.1988 51.6381C47.0345 51.7428 47.144 52.3058 47.363 52.3058C47.4178 52.3058 47.582 52.4082 47.6915 52.5618C47.801 52.6641 48.1295 52.8689 48.458 53.0224C49.115 53.3808 49.4982 53.2784 50.9242 52.1011C52.3476 51.0238 52.6761 50.6143 55.0328 47.7455C56.073 46.4658 57.387 44.879 58.0465 44.1601C58.6487 43.4435 59.3057 42.6757 59.47 42.4197C59.6342 42.1638 59.7985 42.0102 59.7985 42.0614C59.7985 42.3685 60.4007 41.5496 60.4007 41.2424C60.4007 41.0865 60.5102 40.9842 60.6197 40.9842C60.7292 40.9842 61.6052 40.3187 62.4836 39.4997C63.7429 38.3224 64.2356 37.9641 64.6736 37.8618C65.1116 37.8106 65.3306 37.6035 65.771 36.9381C66.0995 36.5286 66.647 36.0167 66.9755 35.8119L67.523 35.4536L66.7565 36.8357C66.0448 38.1177 64.5641 41.2936 63.7429 43.4435C63.5239 44.0577 63.2501 44.672 63.1954 44.8279C62.8669 45.3397 62.5931 46.9265 62.5931 47.7967C62.5931 48.9252 62.9764 49.8977 63.5786 50.3584C63.7976 50.5631 64.0166 50.8191 64.0166 50.9214C64.0713 51.3309 64.9473 52.0499 65.6068 52.3058C67.085 52.9201 68.618 52.8177 70.8652 51.8963C73.1671 50.9726 77.002 48.3621 77.002 47.7455C77.002 47.6431 77.1115 47.5408 77.1662 47.592C77.3305 47.6943 79.9584 45.3397 79.9584 45.0838C79.9584 45.0326 80.6727 44.2113 81.5486 43.3411C82.4246 42.4709 83.0816 41.6519 83.0816 41.6007C83.0816 41.4984 83.1911 41.4472 83.2458 41.4472C83.3006 41.4472 83.4648 41.2424 83.4648 40.9842C83.5196 40.7282 83.7933 40.3187 84.0696 40.114C84.5623 39.7045 84.6171 39.5509 84.2338 39.5509ZM52.2929 41.7031C52.4024 41.7031 52.4571 41.6007 52.4571 41.4984C52.4571 41.3448 52.5119 41.2936 52.6214 41.3448C52.7309 41.396 52.6761 41.5496 52.5666 41.7031C52.3476 42.0102 52.1834 42.1126 52.1834 41.8567C52.1834 41.8055 52.2381 41.7031 52.2929 41.7031ZM59.3605 41.0865C59.1962 40.8818 59.1962 40.8306 59.3605 40.7282C59.5247 40.5747 59.5795 40.6259 59.6342 40.8306C59.7437 41.1889 59.5795 41.3448 59.3605 41.0865ZM62.1551 37.5011C61.9909 37.7059 61.8814 37.9641 61.8814 38.0665C61.9361 38.1689 61.8266 38.2201 61.6599 38.2201C61.4409 38.2201 60.7292 38.8855 59.5247 40.114C58.4845 41.1377 57.6608 42.0102 57.606 42.0102C57.4965 42.0102 59.0867 40.3699 60.6744 38.8343C61.6599 37.9129 62.3194 37.2964 62.1551 37.5011ZM64.1261 33.4038C63.5239 34.6858 63.3596 34.8906 61.8814 36.3238C60.5102 37.6035 60.3459 37.8106 60.5649 38.0153C60.7292 38.2201 60.7292 38.2713 60.3459 38.2201C59.9627 38.1689 59.7437 38.3736 58.375 39.7557C57.4418 40.7282 56.8943 41.396 56.949 41.4984C57.0585 41.6007 57.0585 41.8055 56.949 41.9591C56.8943 42.1126 56.8395 42.1638 56.8395 42.0614C56.7848 41.4472 56.1278 42.1126 53.2236 45.3909C51.6907 47.0801 51.3622 47.3872 51.3622 47.1313C51.3622 46.8242 53.9901 42.6245 54.5401 42.0614C54.6496 41.9079 55.4161 40.9842 56.2373 39.9604C57.0038 38.9879 58.1012 37.7059 58.7035 37.1428C60.5649 35.2489 61.1672 34.5835 61.1672 34.2763C61.1672 34.1716 61.2219 33.9669 61.3314 33.9157C61.4957 33.8645 61.4957 33.9157 61.4409 34.0693C61.2767 34.3787 61.5504 34.3787 61.8814 34.0181C62.2646 33.6086 64.6188 31.817 64.7283 31.8682C64.7283 31.9194 64.4546 32.5848 64.1261 33.4038Z" fill="#FE951C"/>
<path d="M102.092 14.7089C103.023 14.6577 104.284 14.5553 105.653 14.5041C106.474 14.453 107.845 14.4018 108.721 14.3506C110.857 14.197 117.541 13.9923 118.581 14.0435C122.747 14.1458 128.443 14.5553 128.881 14.7089C129.1 14.8113 128.991 14.9136 128.443 15.0672C127.513 15.2208 126.196 15.7326 126.196 15.8862C126.196 15.9886 124.171 16.5516 122.966 16.7564C122.526 16.8076 122.526 17.0146 122.911 17.0146C123.076 17.0146 123.295 17.0658 123.404 17.117C123.514 17.2194 123.897 17.2706 124.499 17.2706C124.992 17.2706 125.485 17.2706 125.539 17.3218C125.758 17.3729 128.443 17.0146 128.991 16.8611C129.21 16.7564 129.484 16.7564 129.538 16.7564C129.867 16.8076 131.293 15.8862 131.402 15.5279C131.567 15.016 131.512 14.6065 131.293 14.453C131.129 14.4018 131.074 14.197 131.074 13.9923C131.074 13.7875 130.964 13.5316 130.91 13.4292C130.636 13.1198 129.319 12.6079 128.17 12.4031C127.075 12.1984 126.856 12.1984 120.993 12.1984C116.446 12.1984 114.308 12.2496 112.447 12.352C110.802 12.4543 106.693 12.7614 103.132 13.0174C104.12 11.533 104.996 10.3045 105.544 9.63671C106.474 8.56178 107.569 6.97498 107.569 6.61667C107.624 6.46311 107.791 6.25603 107.955 6.10247C108.667 5.5906 108.174 3.90143 107.295 3.79905C107.022 3.79905 106.803 3.69668 106.858 3.5943C106.858 3.33837 105.489 2.56823 104.777 2.51705C104.12 2.41467 103.351 2.92654 103.242 3.49193C103.242 3.64549 102.913 4.20855 102.585 4.72042C102.037 5.43704 98.7497 10.8675 97.2167 13.4292L96.5598 13.5316C96.1193 13.5316 95.4623 13.5828 95.0243 13.634C94.5863 13.634 93.1629 13.7363 91.8464 13.8899C90.5324 13.9923 87.3545 14.197 84.7788 14.4018C82.2056 14.6065 79.3562 14.8113 78.4802 14.9136C73.7669 15.3231 68.6727 15.6303 69.6035 15.4255C69.8225 15.3743 70.151 15.3231 70.4247 15.3231C70.6462 15.3231 70.8652 15.2719 70.8652 15.2208C70.8652 15.1696 70.5914 15.1696 70.2057 15.1696C69.8225 15.2208 67.961 15.3231 66.0971 15.4767C64.2356 15.6303 62.3169 15.7326 61.8789 15.7838C61.1672 15.835 61.0577 15.835 60.8387 15.5791C60.2912 15.0672 59.139 15.016 58.3725 15.4255C57.8798 15.7326 57.825 15.7326 56.5111 15.7326C55.1398 15.7326 55.1398 15.7326 55.0304 15.9886C54.9756 16.1421 54.8661 16.2957 54.8114 16.3981C54.5376 16.5516 54.5376 17.4241 54.8114 17.4241C54.9209 17.3729 54.9756 17.4753 54.9756 17.6289C54.9756 17.936 55.5778 18.4991 55.9636 18.6014C56.4016 18.6526 60.5102 18.4479 62.0432 18.2943C65.7138 17.8848 70.2605 17.4753 77.9875 16.8076C87.2998 15.9886 87.245 15.9886 87.3545 15.9374C87.683 15.835 95.736 15.1184 95.736 15.2208C95.736 15.2208 95.9003 15.2208 96.2288 15.2208C88.778 28.334 84.0123 39.295 80.3964 51.5357C78.754 57.0174 78.0422 60.1421 77.547 64.2394C76.7805 70.3865 77.0543 73.5624 78.535 75.6099C79.0277 76.2777 79.5205 76.7895 79.63 76.8407C79.7395 76.8407 80.0679 76.9943 80.3964 77.2502C80.6702 77.455 81.1629 77.7621 81.4914 77.9669C81.8771 78.1204 82.4246 78.3252 82.7531 78.3764C83.5744 78.4787 84.7241 78.0692 84.7788 77.6085C84.7788 77.455 84.9431 77.199 85.0526 77.0455C85.3263 76.8407 84.7241 74.4838 84.3408 74.4838C84.2313 74.4326 83.6839 74.6885 83.1364 75.0469C82.5889 75.4052 82.0414 75.6611 81.9866 75.6611C81.7129 75.6099 81.3272 74.1255 81.2177 72.9994C80.9439 69.158 81.9319 62.036 83.4649 57.3245C83.6839 56.6079 84.1766 54.9164 84.5598 53.6367C86.3143 47.6431 90.4229 36.7845 92.0654 33.8645C92.6676 32.7896 94.0388 30.0231 94.9148 27.9757C96.174 25.158 96.7788 24.0319 100.887 16.8076C101.271 16.0909 101.709 15.3743 102.092 14.7089ZM123.514 12.9662C124.773 12.7614 127.951 13.1198 129.374 13.634C129.922 13.7875 129.593 13.8387 128.991 13.6851C128.443 13.5316 126.363 13.3245 125.539 13.3245C125.156 13.3245 124.773 13.2733 124.718 13.2221C124.663 13.1709 124.28 13.1198 123.842 13.1709C123.021 13.1709 122.802 13.0686 123.514 12.9662ZM121.65 12.915C122.197 12.915 122.58 12.9662 122.526 12.9662C122.307 13.0174 122.307 13.0174 122.526 13.1198C122.638 13.1709 122.638 13.1709 122.416 13.1709C122.307 13.1709 122.142 13.1709 122.142 13.1198C122.142 13.0686 121.869 13.0174 121.485 13.0174C121.047 13.0174 120.719 13.0174 120.664 12.9662C120.609 12.915 121.047 12.915 121.65 12.915ZM115.02 12.9662C115.461 12.915 120.226 12.8638 120.117 12.9662C120.062 12.9662 119.131 13.0174 118.034 13.0686C116.939 13.0686 115.953 13.1198 115.844 13.1198C115.789 13.1709 115.461 13.1198 115.187 13.1198C114.637 13.0686 114.637 13.0174 115.02 12.9662ZM107.405 13.4292C107.569 13.3245 107.736 13.3245 109.159 13.2733C109.762 13.2221 110.857 13.1709 111.571 13.1198C113.268 12.9662 114.363 12.9662 114.363 13.1198C114.363 13.1709 114.254 13.1709 114.089 13.1709C113.542 13.1709 111.68 13.3245 111.516 13.3757C111.185 13.5316 110.528 13.5828 109.762 13.4804C109.324 13.3757 108.831 13.3757 108.721 13.3757C108.448 13.4804 108.502 13.4804 108.886 13.5316C109.269 13.5828 109.269 13.5828 108.721 13.5828C108.393 13.5828 108.174 13.5316 108.229 13.4804C108.283 13.4292 108.119 13.4292 107.845 13.4804C107.569 13.4804 107.35 13.4804 107.405 13.4292ZM84.6693 15.1184C83.8481 15.2208 82.2604 15.3231 80.9987 15.4255C79.849 15.5279 78.0422 15.6814 77.0543 15.7838C74.3168 15.9886 73.3836 16.0398 73.4931 15.9886C73.5479 15.9374 74.3716 15.8862 75.3571 15.7838C76.3425 15.6814 78.0422 15.5279 79.1372 15.4255C81.1082 15.2208 84.8336 14.9648 85.931 14.9136C86.2595 14.9136 86.588 14.8624 86.6975 14.8113C86.7523 14.7601 86.8618 14.7601 86.8618 14.8624C86.8618 14.9648 86.588 15.016 84.6693 15.1184ZM87.464 14.9648C87.4093 14.9648 87.3545 14.9136 87.3545 14.8624C87.3545 14.8113 87.4093 14.7601 87.464 14.7601C87.5735 14.7601 87.6283 14.8113 87.6283 14.8624C87.6283 14.9136 87.5735 14.9648 87.464 14.9648ZM88.1757 14.8624C88.0115 14.8624 87.9567 14.8113 88.0115 14.7601C88.0662 14.7089 88.1757 14.6577 88.2852 14.6577C88.34 14.6577 88.3947 14.7089 88.3947 14.7601C88.3947 14.8113 88.2852 14.8624 88.1757 14.8624ZM90.4229 14.6577C90.1492 14.7601 89.9849 14.7601 89.9849 14.6577C89.9849 14.6065 90.1492 14.5553 90.3134 14.5553C90.5872 14.5553 90.6419 14.6065 90.4229 14.6577ZM93.2724 14.5041C92.7224 14.5553 91.9011 14.6065 91.4632 14.6065C91.0252 14.6577 90.6967 14.6577 90.7514 14.6065C90.8609 14.5553 94.3126 14.2994 94.3126 14.3506C94.3126 14.4018 93.8746 14.453 93.2724 14.5041ZM79.849 67.6201C79.7942 67.7225 79.7395 68.5414 79.7395 69.4139C79.7942 70.3353 79.7395 71.1543 79.6847 71.1543C79.5205 71.3079 79.5205 70.2841 79.63 68.2855C79.7395 66.9546 79.7942 66.5451 79.849 66.9546C79.9585 67.2106 79.9585 67.5177 79.849 67.6201ZM80.1227 64.3418C80.0679 64.4953 80.0132 64.4441 80.0132 64.2394C80.0679 63.9835 80.1227 63.8811 80.1774 63.9835C80.2322 64.0346 80.1774 64.1882 80.1227 64.3418ZM92.8891 27.8221C92.8344 28.334 92.1749 29.972 92.0106 29.972C91.9559 29.9208 91.7916 30.1767 91.7369 30.4326C91.6274 30.6886 91.4632 30.8956 91.3537 30.8956C91.2442 30.8956 91.1347 31.3563 91.0799 31.9706C90.9704 32.5848 90.8062 33.0967 90.6419 33.1991C90.2587 33.455 89.7659 34.6346 89.8207 35.0441C89.8754 35.2489 89.8754 35.3001 89.7659 35.1977C89.6564 35.0953 89.4922 35.4536 89.328 36.0679C89.2185 36.6309 88.997 37.1428 88.9422 37.194C88.8327 37.2964 88.6685 37.6547 88.6137 38.1177C88.5042 38.5784 88.2852 39.1414 88.121 39.3974C87.7378 40.0116 87.1355 41.5495 86.4785 43.5458C86.2048 44.3648 85.8763 45.2373 85.712 45.4421C85.5478 45.6468 85.3836 46.1075 85.3263 46.4146C84.9978 48.2085 84.6693 49.1811 84.4503 49.0275C84.3408 48.9763 84.1766 49.0787 84.0671 49.2835C84.0123 49.4882 84.0123 49.693 84.1218 49.7441C84.1766 49.7953 84.1218 50.2048 83.9576 50.6143C82.8626 53.995 82.5341 54.8652 82.4794 55.3794C82.4246 55.7377 82.2604 56.2496 82.0414 56.5567C81.7129 57.0686 81.7129 57.1709 81.9319 57.478C82.1509 57.7852 82.1509 57.8364 81.8224 58.0411C81.5462 58.1947 81.3819 58.7601 80.9987 60.5004C80.5059 63.1133 80.0679 64.2394 80.2869 62.499C80.3417 61.8313 80.5607 60.7052 80.7797 59.9374C80.9439 59.1695 81.2724 57.7852 81.4914 56.8126C81.7129 55.8912 82.2604 53.995 82.6984 52.6641C83.1364 51.2798 83.6839 49.5394 83.9576 48.7716C84.7788 45.8516 85.9858 42.5221 87.4093 39.1926C88.121 37.5523 88.4495 36.9892 88.6685 36.9892C88.9422 37.0404 88.9422 36.9892 88.7232 36.7845C88.5042 36.6309 88.6685 36.2214 89.4922 34.2763C91.0799 30.6374 92.9986 27.052 92.8891 27.8221ZM96.174 19.4204C94.6958 22.0333 90.9157 29.5625 89.8754 31.8682C88.34 35.4536 85.931 41.2936 85.8763 41.6007C85.8215 41.8055 84.9978 44.0577 84.3956 45.5445C84.2861 45.8516 84.1218 46.3635 84.0123 46.7218C83.9028 47.0289 83.6291 47.9503 83.4101 48.7204C83.1364 49.437 82.6984 50.7679 82.4794 51.5869C82.2056 52.4082 81.8224 53.6367 81.5462 54.3533C81.3272 55.0699 80.9987 56.1472 80.8892 56.7614C80.7249 57.3757 80.3964 58.8112 80.0679 59.9885C79.7395 61.3194 79.3015 63.7275 78.9182 66.494C78.316 70.9496 78.0422 72.1269 78.097 69.9258C78.097 69.2604 78.0422 68.2855 77.9875 67.7736C77.8208 66.494 78.6445 59.8862 79.0277 59.9885C79.2467 60.0909 79.3015 59.9885 79.0825 59.4767C78.9182 59.1695 79.0277 58.6577 79.3015 57.4269C79.5752 56.5055 79.849 55.6865 79.9585 55.6353C80.1774 55.4817 80.4512 54.8652 80.2322 54.8652C79.9585 54.814 80.0679 54.4557 81.1629 50.8703C81.7129 49.0787 82.2056 47.6943 82.3151 47.6943C82.4246 47.7455 83.1364 46.0563 83.8481 44.0065C85.4383 39.6021 88.0662 33.3526 88.7232 32.3289C88.997 31.9194 89.2185 31.5611 89.2185 31.4587C89.2185 31.3563 89.4922 30.7933 89.8754 30.1767C91.1347 27.8733 91.7916 26.5913 91.7916 26.2842C91.7916 26.1306 91.8464 26.0282 91.9011 26.0282C92.0106 26.0282 92.1201 25.8747 92.1201 25.6187C92.2844 24.9533 95.1886 19.7276 95.736 19.2157C96.0098 18.9597 96.393 18.5502 96.5598 18.2943C97.1073 17.6289 96.9978 17.936 96.174 19.4204Z" fill="#FE951C"/>
<path d="M108.831 50.4096C108.831 50.3073 108.886 50.1537 109.05 50.1025C109.324 49.949 110.364 48.9252 111.513 47.592C114.034 44.7767 114.527 44.1602 115.403 42.7781C118.91 37.6548 119.402 36.6822 119.402 35.8632L119.348 35.3513L119.129 35.7096C118.964 35.8632 118.91 36.068 118.964 36.1191C119.129 36.2727 118.745 36.9381 118.581 36.8358C118.472 36.8358 118.417 36.8358 118.526 36.9381C118.636 37.0405 116.336 40.2164 115.567 40.9842C115.239 41.2937 115.184 41.3449 115.239 41.0866C115.239 40.9331 115.348 40.7283 115.458 40.5747C116.063 39.8069 117.486 37.7595 118.143 36.7846C118.526 36.1703 118.964 35.5561 119.129 35.4537C119.238 35.3001 119.293 35.1466 119.238 35.0442C119.129 34.7883 118.91 35.0442 118.253 36.068C117.979 36.5286 117.65 36.9893 117.596 37.0917C117.486 37.1941 117.322 37.5012 117.158 37.7059C117.048 37.913 116.939 38.0666 116.884 37.9642C116.884 37.913 117.267 37.3476 117.705 36.631C118.143 36.0168 118.472 35.4025 118.362 35.3513C118.307 35.3001 118.362 35.1978 118.472 35.1978C118.745 35.1466 119.567 33.711 119.402 33.6086C119.348 33.5575 119.183 33.8134 118.964 34.1717C118.745 34.5323 118.526 34.8395 118.417 34.8395C118.307 34.8395 117.815 35.5049 117.322 36.2727C114.363 40.7283 108.39 47.3361 104.227 50.6656C102.311 52.2035 100.83 53.1249 99.954 53.2785L99.2423 53.432L99.1875 52.8178C99.1328 52.4083 99.1328 52.05 99.1875 51.9988C99.4065 51.7428 99.297 51.331 99.0233 51.4846C98.9138 51.5358 98.8591 51.5358 98.8591 51.4334C98.8591 51.331 98.9686 51.2286 99.1328 51.2286C99.2423 51.2286 99.3518 50.9727 99.4613 50.512C99.7898 48.6693 101.106 44.9815 101.982 43.4436C102.092 43.29 102.365 42.7269 102.584 42.2662C102.803 41.8056 103.132 41.189 103.296 40.8819C103.46 40.5747 103.898 39.8581 104.282 39.1927C104.61 38.5784 105.105 37.7595 105.324 37.3476C105.543 36.9893 105.981 36.2727 106.2 35.7608C106.474 35.3001 106.803 34.6347 107.022 34.2764C107.186 33.9158 107.35 33.4551 107.35 33.0968L107.295 32.4825L106.255 31.8683C105.379 31.3052 105.105 31.2028 104.665 31.254C104.172 31.3052 104.063 31.4076 103.351 32.329C102.639 33.3015 102.365 33.7622 100.83 36.7334C100.392 37.6036 99.8445 38.6808 99.6255 39.0903C99.4065 39.4998 98.9686 40.4212 98.6948 41.189C98.4211 41.9079 98.0378 42.8805 97.8188 43.3924C97.6546 43.853 97.3808 44.6209 97.2689 45.0327C97.1046 45.4422 96.9404 46.1076 96.8309 46.4659C96.5024 47.592 95.6811 51.7428 95.7359 52.1012C95.7359 52.2035 96.0644 52.613 96.4476 53.0737C97.6546 54.5069 99.2423 55.2771 100.885 55.2259C101.325 55.2259 101.654 55.2259 101.708 55.2259C102.365 55.2259 105.215 53.7391 106.365 52.7154C107.788 51.5358 108.831 50.512 108.831 50.4096ZM114.308 41.8567C114.527 41.9079 114.691 42.0103 114.746 42.0103C114.746 42.0103 114.637 42.0615 114.418 42.1127C114.199 42.1127 114.034 42.0615 114.034 41.9591C114.034 41.8567 114.089 41.8056 114.308 41.8567ZM106.967 25.4141C107.076 25.5164 107.186 25.67 107.241 25.7212C107.241 25.8235 107.46 26.0795 107.679 26.3354C107.952 26.6425 108.171 26.7449 108.612 26.7449C108.886 26.7449 109.214 26.7449 109.269 26.7961C109.543 27.1032 110.09 26.4378 111.13 24.5439C111.897 23.1595 112.666 21.9822 113.815 20.5489C114.199 20.0859 114.582 19.4717 114.582 19.2669C114.582 19.0622 114.691 18.7551 114.746 18.6527C114.856 18.448 114.801 18.2432 114.527 17.7313C114.034 16.7053 113.761 16.7565 112.392 17.9361C110.966 19.1646 108.281 22.4941 107.35 24.032C106.748 25.1581 106.693 25.2605 106.967 25.4141Z" fill="#FE951C"/>
<path d="M171.121 32.4314C170.957 32.3802 169.586 33.711 166.736 36.8358C163.944 39.8581 158.574 44.7768 156.493 46.1588C155.122 47.0802 153.48 47.7968 152.768 47.6944L152.163 47.6432L151.999 46.21C151.835 45.2374 151.78 42.9829 151.835 39.807C151.835 34.7883 151.78 33.967 151.178 33.2503C151.068 33.0968 150.959 32.9432 150.959 32.8409C150.904 32.7385 150.685 32.4825 150.466 32.329C149.919 31.8683 147.945 31.7147 147.288 32.1242C144.989 33.3527 140.604 37.8618 137.538 42.1639L136.933 42.9829L136.988 42.4198C137.757 38.3225 137.812 37.7595 137.812 34.7371C137.866 31.6635 137.812 31.6124 137.371 30.6375C136.824 29.5114 136.495 29.1019 136.167 29.1019C136.002 29.1019 135.619 28.8971 135.291 28.6412C134.743 28.2829 134.579 28.2317 133.646 28.2829C132.825 28.3341 132.441 28.4876 131.839 28.8459C130.689 29.7161 127.785 32.6361 125.647 35.1466C124.607 36.4263 123.622 37.6036 123.458 37.7595C123.129 38.1178 125.374 33.4039 126.69 30.9981C127.238 29.9209 128.223 28.4364 128.771 27.6686C129.318 26.8985 129.866 26.0795 129.978 25.8236C130.087 25.5676 130.251 25.3117 130.361 25.2605C130.744 25.1069 130.635 24.6463 130.251 24.6463C129.978 24.6463 129.978 24.5439 129.978 24.0832C130.032 23.569 129.978 23.4666 129.592 23.4154C129.373 23.4154 129.099 23.2619 128.88 23.1083C128.552 22.75 127.347 22.4941 126.854 22.6476C126.471 22.75 124.443 25.3629 122.855 27.8222C122.196 28.7947 121.429 29.8697 121.101 30.2792C120.444 31.1005 120.444 31.5612 121.101 31.1005C121.32 30.9469 121.594 30.8957 121.648 30.9469C121.703 31.0493 120.225 34.3788 118.361 38.4249C114.526 46.5683 111.679 53.7903 111.734 55.2771C111.734 56.5056 112.555 58.2971 113.212 58.2971C113.322 58.2971 113.486 58.3995 113.541 58.5531C113.595 58.6578 113.869 58.8113 114.088 58.8113V58.8625C114.362 58.8625 114.581 58.9137 114.636 58.9137C114.855 59.0161 115.952 57.6317 115.952 57.3246C115.952 57.2222 116.171 56.8639 116.499 56.5568C116.828 56.3008 117.375 55.3795 117.813 54.507C120.608 48.6181 126.526 40.2164 132.113 34.1717C133.044 33.1992 133.813 32.3802 133.922 32.3802C133.977 32.3802 134.032 33.0456 134.032 33.8646C134.032 34.6859 134.086 35.3513 134.196 35.4025C134.415 35.5561 134.251 36.9893 133.922 38.5273C133.482 40.37 133.044 43.29 133.044 44.5185C133.044 46.21 133.153 46.6707 133.922 47.4897C134.305 47.848 134.743 48.4646 134.907 48.8741C135.291 49.6419 135.838 49.949 136.44 49.5395C136.659 49.4371 136.988 49.2835 137.097 49.1812C137.371 49.0788 137.483 48.9764 137.921 48.0015C138.031 47.7456 138.359 47.1825 138.578 46.7731C138.797 46.4147 139.18 45.6981 139.399 45.1863C140.221 43.5459 141.975 41.2425 144.274 38.732C145.7 37.0917 148.438 34.6347 148.714 34.6347C148.824 34.6347 148.824 35.5561 148.824 36.6822C148.769 38.3737 148.824 38.7832 148.988 38.7832C149.152 38.7832 149.152 38.9368 149.097 39.3463C149.043 39.6534 148.988 41.1378 148.988 42.6758C148.988 45.2374 148.988 45.4934 149.316 46.21C150.138 47.848 151.616 49.5395 152.604 49.8978C154.575 50.6656 155.834 50.6144 157.698 49.5907C158.793 49.0276 160.109 48.1039 160.219 47.8992C160.219 47.7968 160.821 47.2337 161.533 46.6707C162.19 46.0564 163.066 45.0839 163.506 44.4673C164.163 43.4948 167.01 40.37 169.148 38.2713C170.133 37.2453 170.845 35.8632 170.9 34.7371L170.957 33.9158L170.079 34.7371L170.407 34.2229C170.9 33.4039 170.517 33.5063 169.695 34.43C169.312 34.8907 168.6 35.5561 168.108 35.9656C167.67 36.3239 168.217 35.7097 169.312 34.5324C170.462 33.4039 171.231 32.4825 171.121 32.4314ZM113.048 55.8913C112.884 56.2496 112.884 56.2496 112.829 55.6866C112.829 55.2771 112.884 55.1747 113.048 55.3283C113.157 55.4307 113.157 55.5842 113.048 55.8913ZM115.623 48.8229C114.964 50.5632 113.157 54.3022 113.157 54.0463C113.157 53.7392 114.143 51.3822 114.471 50.8703C114.636 50.6144 114.909 50.0514 115.074 49.5395C115.185 49.0788 115.404 48.6181 115.459 48.5669C115.569 48.4646 115.623 48.2598 115.623 48.1039C115.623 47.7968 116.226 46.8242 116.28 47.0802C116.28 47.1825 115.952 47.9504 115.623 48.8229ZM121.046 36.9893C119.185 40.8307 118.525 42.1639 117.321 44.8791C116.828 45.9541 116.39 46.8754 116.39 46.8754C116.226 46.8754 116.39 45.8005 116.554 45.6981C116.664 45.6469 116.773 45.3398 116.828 45.0839C116.883 44.7768 117.211 44.0578 117.485 43.3924C117.813 42.7269 118.087 42.1127 118.087 42.0103C118.087 41.8568 118.087 41.7032 118.197 41.7032C118.416 41.6008 119.677 39.0903 119.568 38.9368C119.458 38.6808 120.225 37.1941 121.429 35.3513C122.032 34.4812 122.527 33.7622 122.582 33.7622C122.636 33.7622 121.922 35.249 121.046 36.9893ZM126.69 34.9418C126.471 35.249 126.195 35.5049 126.14 35.5049C125.921 35.5049 126.031 35.4025 126.581 34.8907L127.073 34.3788L126.69 34.9418ZM128.333 32.9944C128.223 33.148 128.059 33.2503 128.004 33.2503C128.004 33.2503 128.059 33.148 128.168 32.9944C128.278 32.8409 128.387 32.7385 128.442 32.7385C128.497 32.7385 128.442 32.8409 128.333 32.9944Z" fill="#FE951C"/>
<path d="M198.238 39.5509C198.017 39.5509 197.305 40.1652 197.196 40.5747C197.141 40.7282 196.922 40.8306 196.758 40.8818C196.539 40.933 195.991 41.3448 195.498 41.8567C194.951 42.3174 194.513 42.6757 194.458 42.6757C194.458 42.6245 194.568 42.4197 194.787 42.215C194.951 42.0614 195.115 41.8055 195.006 41.6519C194.951 41.4984 194.458 41.8567 193.361 42.8804C192.375 43.7506 191.718 44.2625 191.664 44.1601C191.554 44.0577 191.007 44.3648 190.183 45.0838C187.117 47.5408 185.034 48.874 182.349 50.0001C181.144 50.512 180.268 50.6655 179.611 50.512C179.226 50.4608 179.226 50.3584 179.226 49.5394C179.226 48.3109 179.721 46.6706 180.871 44.0065C181.418 42.6757 182.13 40.9842 182.404 40.1652C182.677 39.3974 183.173 38.0665 183.501 37.2964C183.83 36.3238 184.049 35.556 184.049 35.0441C184.049 34.2763 183.665 33.3014 183.337 33.3014C183.227 33.3014 182.951 33.1479 182.732 32.9431C182.568 32.7896 182.294 32.5336 182.185 32.4825C182.02 32.3801 181.747 31.9706 181.473 31.5099C181.199 30.9468 180.816 30.535 180.487 30.2791C180.159 30.1255 179.83 29.8696 179.721 29.7672C179.611 29.6137 179.116 29.4601 178.678 29.3577C177.583 29.1018 176.817 29.3065 175.941 30.0743C175.61 30.3303 175.117 30.6374 174.898 30.6374C174.624 30.7398 173.967 31.3052 172.927 32.3289C171.173 34.1716 169.804 35.7096 169.859 35.8631C169.859 35.9143 169.475 36.4774 168.928 37.0404C168.435 37.6547 168.049 38.2713 168.049 38.3736C168.049 38.5272 167.94 38.6807 167.83 38.7831C167.666 38.8855 166.078 40.8818 165.367 41.9591C165.038 42.4709 164.269 43.4947 163.777 44.0577C163.558 44.3137 163.229 44.8279 163.065 45.1862C162.846 45.4933 162.627 45.8004 162.572 45.8004C162.463 45.8004 162.408 45.8516 162.408 45.954C162.408 46.0563 162.517 46.0563 162.682 45.954C163.174 45.5445 163.01 45.954 162.298 46.9265C161.641 47.7455 161.532 48.0015 161.641 48.2597C161.696 48.5157 161.641 48.8228 161.368 49.2835C161.203 49.693 161.039 50.1025 161.039 50.256C161.039 50.4608 160.984 50.4608 160.875 50.3072C160.653 50.0001 160.984 48.5668 161.477 47.592C162.025 46.517 162.025 46.517 161.806 46.517C161.696 46.517 161.422 47.0289 161.094 47.592C160.161 49.3858 160.215 50.7167 161.149 51.3821C161.313 51.4845 161.313 51.5869 161.203 51.6381C161.039 51.7428 161.149 52.3058 161.368 52.3058C161.422 52.3058 161.587 52.4082 161.696 52.5618C161.806 52.6641 162.134 52.8689 162.463 53.0224C163.12 53.3808 163.503 53.2784 164.929 52.1011C166.352 51.0238 166.681 50.6143 169.037 47.7455C170.078 46.4658 171.392 44.879 172.051 44.1601C172.653 43.4435 173.31 42.6757 173.475 42.4197C173.639 42.1638 173.803 42.0102 173.803 42.0614C173.803 42.3685 174.405 41.5496 174.405 41.2424C174.405 41.0865 174.515 40.9842 174.624 40.9842C174.734 40.9842 175.61 40.3187 176.488 39.4997C177.747 38.3224 178.24 37.9641 178.678 37.8618C179.116 37.8106 179.335 37.6035 179.776 36.9381C180.104 36.5286 180.652 36.0167 180.98 35.8119L181.528 35.4536L180.761 36.8357C180.049 38.1177 178.569 41.2936 177.747 43.4435C177.528 44.0577 177.255 44.672 177.2 44.8279C176.871 45.3397 176.598 46.9265 176.598 47.7967C176.598 48.9252 176.981 49.8977 177.583 50.3584C177.802 50.5631 178.021 50.8191 178.021 50.9214C178.076 51.3309 178.952 52.0499 179.611 52.3058C181.09 52.9201 182.623 52.8177 184.87 51.8963C187.172 50.9726 191.007 48.3621 191.007 47.7455C191.007 47.6431 191.116 47.5408 191.171 47.592C191.335 47.6943 193.963 45.3397 193.963 45.0838C193.963 45.0326 194.677 44.2113 195.553 43.3411C196.429 42.4709 197.086 41.6519 197.086 41.6007C197.086 41.4984 197.196 41.4472 197.25 41.4472C197.305 41.4472 197.469 41.2424 197.469 40.9842C197.524 40.7282 197.798 40.3187 198.074 40.114C198.567 39.7045 198.622 39.5509 198.238 39.5509ZM166.297 41.7031C166.407 41.7031 166.462 41.6007 166.462 41.4984C166.462 41.3448 166.516 41.2936 166.626 41.3448C166.735 41.396 166.681 41.5496 166.571 41.7031C166.352 42.0102 166.188 42.1126 166.188 41.8567C166.188 41.8055 166.243 41.7031 166.297 41.7031ZM173.365 41.0865C173.201 40.8818 173.201 40.8306 173.365 40.7282C173.529 40.5747 173.584 40.6259 173.639 40.8306C173.748 41.1889 173.584 41.3448 173.365 41.0865ZM176.16 37.5011C175.995 37.7059 175.886 37.9641 175.886 38.0665C175.941 38.1689 175.831 38.2201 175.664 38.2201C175.445 38.2201 174.734 38.8855 173.529 40.114C172.489 41.1377 171.665 42.0102 171.611 42.0102C171.501 42.0102 173.091 40.3699 174.679 38.8343C175.664 37.9129 176.324 37.2964 176.16 37.5011ZM178.131 33.4038C177.528 34.6858 177.364 34.8906 175.886 36.3238C174.515 37.6035 174.351 37.8106 174.57 38.0153C174.734 38.2201 174.734 38.2713 174.351 38.2201C173.967 38.1689 173.748 38.3736 172.38 39.7557C171.446 40.7282 170.899 41.396 170.954 41.4984C171.063 41.6007 171.063 41.8055 170.954 41.9591C170.899 42.1126 170.844 42.1638 170.844 42.0614C170.789 41.4472 170.132 42.1126 167.228 45.3909C165.695 47.0801 165.367 47.3872 165.367 47.1313C165.367 46.8242 167.995 42.6245 168.545 42.0614C168.654 41.9079 169.421 40.9842 170.242 39.9604C171.008 38.9879 172.106 37.7059 172.708 37.1428C174.57 35.2489 175.172 34.5835 175.172 34.2763C175.172 34.1716 175.226 33.9669 175.336 33.9157C175.5 33.8645 175.5 33.9157 175.445 34.0693C175.281 34.3787 175.555 34.3787 175.886 34.0181C176.269 33.6086 178.623 31.817 178.733 31.8682C178.733 31.9194 178.459 32.5848 178.131 33.4038Z" fill="#FE951C"/>
<path d="M233.847 39.4486L233.519 40.0117C233.026 40.6771 233.026 40.8819 233.464 40.4724L233.793 40.1653L233.519 40.5236C233.355 40.7283 233.245 40.8819 233.19 40.8307C233.136 40.7795 232.641 41.2425 232.038 41.8568C230.56 43.3924 228.368 44.9303 225.521 46.5683C222.398 48.311 218.727 49.8466 216.48 50.3585C216.206 50.4097 215.823 50.512 215.549 50.5632C215.275 50.6144 214.892 50.7168 214.618 50.768C214.399 50.8192 214.014 50.9215 213.795 50.9727C212.919 51.2287 208.481 51.6382 206.672 51.6382C203.825 51.6382 200.647 51.0239 198.126 50.0002L196.867 49.4883L197.798 49.0276C198.345 48.7717 198.838 48.5157 198.948 48.5157C199.771 48.4646 206.289 43.6995 209.193 40.9843C210.014 40.1653 210.452 39.807 211.878 38.4761C212.152 38.2713 212.59 37.8618 212.864 37.6548C213.959 36.7334 217.301 33.3015 218.563 31.7147C219.986 29.9721 222.124 26.6426 222.945 24.7998C223.383 23.8273 223.438 23.569 223.383 22.6988C223.328 21.8286 223.274 21.6239 222.945 21.4703C222.781 21.368 222.671 21.2656 222.726 21.2656C222.836 21.2656 222.726 21.0608 222.617 20.8561C222.233 20.3442 221.741 20.4466 221.519 21.112C221.245 21.8286 220.643 22.5453 219.658 23.3131C218.727 24.032 218.508 24.4415 219.329 23.9808L219.822 23.7226L219.274 24.2368C219.001 24.4927 218.891 24.6975 219.055 24.5951C219.329 24.4927 219.329 24.5439 219.274 24.7998C219.274 25.0046 219.274 25.1581 219.329 25.2093C219.548 25.2605 217.958 27.5663 216.863 28.8971C214.563 31.6124 210.124 35.9144 206.344 39.0903C202.837 42.0103 197.141 46.1076 196.867 45.9029C196.758 45.8005 198.4 41.8056 199.057 40.6259C199.276 40.2165 199.607 39.4998 199.717 39.0903C199.881 38.6297 200.319 37.6036 200.757 36.7334C201.195 35.9144 201.523 35.1978 201.523 35.0954C201.523 35.0442 201.633 34.8395 201.852 34.6347C202.016 34.43 202.399 33.5063 202.783 32.5337C203.168 31.5612 203.771 30.3304 204.208 29.6137C204.646 28.9995 205.139 28.1293 205.249 27.7198C205.358 27.3615 205.851 26.4378 206.234 25.67C206.672 24.9022 207.003 24.2368 207.003 24.1856C206.948 24.1344 207.058 24.032 207.222 24.032C207.332 24.032 207.386 23.9808 207.332 23.8785C207.222 23.6714 207.715 22.5965 208.481 21.4191C208.81 20.8561 209.303 19.8812 209.576 19.2158C209.905 18.5503 210.343 17.629 210.674 17.1171C210.948 16.6029 211.331 15.8351 211.55 15.3744C211.824 14.6066 212.426 13.6341 215.33 9.32968C215.768 8.71544 216.151 8.20357 216.206 8.15238C216.644 7.94763 215.932 6.71914 215.385 6.77033C215.275 6.77033 215.166 6.66795 215.166 6.56558C215.166 6.3585 215.001 6.30732 214.728 6.30732C214.399 6.35851 214.123 6.25613 213.959 5.94901C213.74 5.64189 213.63 5.64189 213.357 5.79545C213.192 5.89782 212.973 6.0002 212.919 6.0002C212.864 6.05138 212.754 6.15376 212.645 6.25613C212.481 6.46321 212.481 6.46321 212.754 6.25613C212.864 6.15376 212.973 6.10257 212.973 6.15376C212.919 6.25613 212.809 6.61677 212.645 6.92389C212.535 7.2822 212.371 7.53814 212.316 7.48695C212.207 7.43576 211.386 8.56188 210.398 10.0486C207.003 15.2209 202.18 23.6202 201.961 24.851C201.907 25.1069 201.742 25.5164 201.523 25.7724C201.359 26.0283 201.195 26.2843 201.195 26.3866C201.195 26.4378 200.593 27.7198 199.936 29.1019C199.221 30.5351 198.181 32.6873 197.579 33.9158C197.031 35.0954 196.429 36.2215 196.32 36.4263C195.827 37.1941 194.62 39.9605 194.675 40.2165C194.675 40.3188 194.565 40.4212 194.511 40.4212C194.401 40.4724 194.401 40.5236 194.401 40.5748C194.456 40.6771 194.401 40.8819 194.237 41.0866C194.073 41.2937 193.963 41.5496 193.963 41.6008C193.963 41.7032 193.635 42.471 193.197 43.29C192.813 44.1602 192.156 45.5957 191.825 46.5171C191.497 47.4385 190.949 48.7205 190.621 49.3859C189.854 51.2287 188.045 56.3008 187.279 58.8625C186.622 61.1659 186.019 64.1883 186.019 65.3144C186.019 66.6476 186.457 67.9273 186.95 67.9785C187.114 67.9785 187.388 68.2344 187.607 68.4903C187.936 68.951 188.209 69.1069 189.307 69.5164C189.964 69.8235 190.128 69.7724 190.457 69.5164C190.621 69.3629 190.73 69.0557 190.73 68.5415C190.73 67.7225 190.73 67.7225 190.128 67.4666L189.526 67.2107L189.635 66.3917C189.69 65.4168 190.073 64.0347 190.566 62.8063C190.73 62.2944 191.059 61.2171 191.223 60.5005C191.387 59.7327 191.661 58.8113 191.88 58.4507C192.047 58.0412 192.321 57.427 192.375 57.0686C192.813 55.533 193.306 54.1487 193.689 53.432C193.908 53.0225 194.127 52.4083 194.237 52.05C194.292 51.6917 194.511 51.1263 194.729 50.7168L195.058 49.949L195.772 50.768C196.101 51.2287 196.539 51.6382 196.703 51.6917C196.867 51.7429 197.031 51.8452 197.031 51.9476C197.031 52.1524 198.345 52.9202 199.498 53.3297C200.866 53.8415 202.783 54.251 204.865 54.507C206.617 54.7117 207.277 54.7117 209.412 54.507C210.729 54.4046 212.316 54.1487 212.864 53.9951C213.411 53.8415 214.782 53.4832 215.877 53.1761C219.767 52.1012 225.575 49.3859 228.696 47.2337C229.739 46.5171 229.794 46.3636 228.751 46.9778C227.656 47.6944 227.984 47.3361 229.134 46.5683C231.381 45.0839 232.86 43.6483 234.066 41.908C234.614 40.9843 234.669 40.7795 234.176 40.0117L233.847 39.4486ZM190.073 54.1998C190.019 54.9165 189.197 57.2734 189.033 57.171C188.924 57.171 188.924 57.2222 188.924 57.3246C189.033 57.6829 188.814 58.5019 188.595 58.709C188.486 58.8113 188.431 58.9649 188.486 59.0673C188.486 59.1185 188.376 59.8351 188.155 60.6541C187.99 61.4731 187.717 62.5503 187.607 63.0622C187.498 63.5741 187.279 64.3931 187.224 64.8537C187.005 66.1357 186.95 65.212 187.169 63.7276C187.443 61.4731 189.088 55.8913 189.909 54.1487L190.128 53.7392L190.073 54.1998ZM191.497 50.8703C190.566 53.3297 190.347 53.7392 190.183 53.4832C190.019 53.2785 190.292 52.4595 190.566 52.3059C190.676 52.2547 190.895 51.7429 191.059 51.1263C191.223 50.5632 191.497 49.6419 191.771 49.0276C192.102 48.2086 192.211 48.0527 192.266 48.3622C192.321 48.5157 191.992 49.5907 191.497 50.8703ZM194.729 43.0853C194.511 43.6483 194.127 44.4673 193.854 44.8791C193.58 45.3398 193.416 45.7493 193.416 45.9029C193.416 46.2612 192.923 47.4385 192.704 47.4385C192.594 47.4385 192.594 47.4897 192.649 47.592C192.704 47.6432 192.704 47.7456 192.649 47.7456C192.321 47.7456 192.978 45.5958 194.073 43.2388C194.456 42.471 195.441 40.2165 196.32 38.2713C197.196 36.3239 198.072 34.43 198.291 34.0182C198.51 33.6087 199.002 32.6873 199.331 31.9707C199.662 31.2541 199.99 30.6375 200.045 30.6375C200.155 30.6375 199.607 32.329 199.331 32.6361C199.112 32.9944 195.441 41.2425 194.729 43.0853ZM229.465 44.8791C228.203 45.8517 225.354 47.5409 223.711 48.311C222.069 49.0276 220.807 49.4883 221.3 49.1812C221.41 49.0788 222.507 48.5157 223.657 47.9504C225.904 46.8242 229.794 44.4161 230.56 43.7507C230.779 43.5459 231.053 43.3412 231.108 43.3412C231.327 43.3412 230.505 44.0578 229.465 44.8791Z" fill="#FE951C"/>
<path d="M241.407 50.4096C241.407 50.3073 241.462 50.1537 241.626 50.1025C241.9 49.949 242.94 48.9252 244.09 47.592C246.611 44.7767 247.103 44.1602 247.979 42.7781C251.486 37.6548 251.978 36.6822 251.978 35.8632L251.924 35.3513L251.705 35.7096C251.54 35.8632 251.486 36.068 251.54 36.1191C251.705 36.2727 251.321 36.9381 251.157 36.8358C251.048 36.8358 250.993 36.8358 251.102 36.9381C251.212 37.0405 248.913 40.2164 248.144 40.9842C247.815 41.2937 247.76 41.3449 247.815 41.0866C247.815 40.9331 247.925 40.7283 248.034 40.5747C248.639 39.8069 250.062 37.7595 250.719 36.7846C251.102 36.1703 251.54 35.5561 251.705 35.4537C251.814 35.3001 251.869 35.1466 251.814 35.0442C251.705 34.7883 251.486 35.0442 250.829 36.068C250.555 36.5286 250.226 36.9893 250.172 37.0917C250.062 37.1941 249.898 37.5012 249.734 37.7059C249.624 37.913 249.515 38.0666 249.46 37.9642C249.46 37.913 249.843 37.3476 250.281 36.631C250.719 36.0168 251.048 35.4025 250.938 35.3513C250.883 35.3001 250.938 35.1978 251.048 35.1978C251.321 35.1466 252.143 33.711 251.978 33.6086C251.924 33.5575 251.759 33.8134 251.54 34.1717C251.321 34.5323 251.102 34.8395 250.993 34.8395C250.883 34.8395 250.391 35.5049 249.898 36.2727C246.939 40.7283 240.966 47.3361 236.803 50.6656C234.887 52.2035 233.406 53.1249 232.53 53.2785L231.818 53.432L231.764 52.8178C231.709 52.4083 231.709 52.05 231.764 51.9988C231.983 51.7428 231.873 51.331 231.599 51.4846C231.49 51.5358 231.435 51.5358 231.435 51.4334C231.435 51.331 231.545 51.2286 231.709 51.2286C231.818 51.2286 231.928 50.9727 232.037 50.512C232.366 48.6693 233.682 44.9815 234.558 43.4436C234.668 43.29 234.942 42.7269 235.161 42.2662C235.38 41.8056 235.708 41.189 235.872 40.8819C236.037 40.5747 236.475 39.8581 236.858 39.1927C237.186 38.5784 237.682 37.7595 237.901 37.3476C238.12 36.9893 238.558 36.2727 238.777 35.7608C239.05 35.3001 239.379 34.6347 239.598 34.2764C239.762 33.9158 239.926 33.4551 239.926 33.0968L239.872 32.4825L238.831 31.8683C237.955 31.3052 237.682 31.2028 237.241 31.254C236.748 31.3052 236.639 31.4076 235.927 32.329C235.215 33.3015 234.942 33.7622 233.406 36.7334C232.968 37.6036 232.421 38.6808 232.202 39.0903C231.983 39.4998 231.545 40.4212 231.271 41.189C230.997 41.9079 230.614 42.8805 230.395 43.3924C230.231 43.853 229.957 44.6209 229.845 45.0327C229.681 45.4422 229.517 46.1076 229.407 46.4659C229.079 47.592 228.257 51.7428 228.312 52.1012C228.312 52.2035 228.641 52.613 229.024 53.0737C230.231 54.5069 231.818 55.2771 233.461 55.2259C233.901 55.2259 234.23 55.2259 234.285 55.2259C234.942 55.2259 237.791 53.7391 238.941 52.7154C240.364 51.5358 241.407 50.512 241.407 50.4096ZM246.884 41.8567C247.103 41.9079 247.268 42.0103 247.322 42.0103C247.322 42.0103 247.213 42.0615 246.994 42.1127C246.775 42.1127 246.611 42.0615 246.611 41.9591C246.611 41.8567 246.665 41.8056 246.884 41.8567ZM239.543 25.4141C239.653 25.5164 239.762 25.67 239.817 25.7212C239.817 25.8235 240.036 26.0795 240.255 26.3354C240.528 26.6425 240.747 26.7449 241.188 26.7449C241.462 26.7449 241.79 26.7449 241.845 26.7961C242.119 27.1032 242.666 26.4378 243.706 24.5439C244.473 23.1595 245.242 21.9822 246.392 20.5489C246.775 20.0859 247.158 19.4717 247.158 19.2669C247.158 19.0622 247.268 18.7551 247.322 18.6527C247.432 18.448 247.377 18.2432 247.103 17.7313C246.611 16.7053 246.337 16.7565 244.968 17.9361C243.542 19.1646 240.857 22.4941 239.926 24.032C239.324 25.1581 239.269 25.2605 239.543 25.4141Z" fill="#FE951C"/>
<path d="M72.4323 123.698C70.7923 123.698 69.3923 123.398 68.2323 122.798C67.0723 122.198 66.0423 121.328 65.1423 120.188L67.0623 118.268C67.7223 119.188 68.4823 119.888 69.3423 120.368C70.2023 120.828 71.2623 121.058 72.5223 121.058C73.7623 121.058 74.7523 120.788 75.4923 120.248C76.2523 119.708 76.6323 118.968 76.6323 118.028C76.6323 117.248 76.4523 116.618 76.0923 116.138C75.7323 115.658 75.2423 115.268 74.6223 114.968C74.0223 114.648 73.3623 114.368 72.6423 114.128C71.9223 113.868 71.2023 113.598 70.4823 113.318C69.7623 113.018 69.1023 112.658 68.5023 112.238C67.9023 111.798 67.4123 111.228 67.0323 110.528C66.6723 109.828 66.4923 108.948 66.4923 107.888C66.4923 106.708 66.7723 105.708 67.3323 104.888C67.9123 104.048 68.6923 103.408 69.6723 102.968C70.6723 102.508 71.7923 102.278 73.0323 102.278C74.3923 102.278 75.6123 102.548 76.6923 103.088C77.7723 103.608 78.6523 104.298 79.3323 105.158L77.4123 107.078C76.7923 106.358 76.1223 105.818 75.4023 105.458C74.7023 105.098 73.8923 104.918 72.9723 104.918C71.8523 104.918 70.9623 105.168 70.3023 105.668C69.6423 106.148 69.3123 106.828 69.3123 107.708C69.3123 108.408 69.4923 108.978 69.8523 109.418C70.2323 109.838 70.7223 110.198 71.3223 110.498C71.9223 110.798 72.5823 111.078 73.3023 111.338C74.0423 111.578 74.7723 111.848 75.4923 112.148C76.2123 112.448 76.8723 112.828 77.4723 113.288C78.0723 113.748 78.5523 114.348 78.9123 115.088C79.2923 115.808 79.4823 116.718 79.4823 117.818C79.4823 119.658 78.8423 121.098 77.5623 122.138C76.3023 123.178 74.5923 123.698 72.4323 123.698ZM91.1045 123.698C89.5645 123.698 88.1845 123.358 86.9645 122.678C85.7645 121.978 84.8145 121.028 84.1145 119.828C83.4145 118.608 83.0645 117.228 83.0645 115.688V102.578H85.8845V115.628C85.8845 116.728 86.1145 117.678 86.5745 118.478C87.0345 119.278 87.6545 119.898 88.4345 120.338C89.2345 120.778 90.1245 120.998 91.1045 120.998C92.1245 120.998 93.0145 120.778 93.7745 120.338C94.5545 119.898 95.1645 119.278 95.6045 118.478C96.0645 117.678 96.2945 116.738 96.2945 115.658V102.578H99.1445V115.718C99.1445 117.258 98.7945 118.628 98.0945 119.828C97.3945 121.028 96.4445 121.978 95.2445 122.678C94.0445 123.358 92.6645 123.698 91.1045 123.698ZM109.009 123.698C107.369 123.698 105.969 123.398 104.809 122.798C103.649 122.198 102.619 121.328 101.719 120.188L103.639 118.268C104.299 119.188 105.059 119.888 105.919 120.368C106.779 120.828 107.839 121.058 109.099 121.058C110.339 121.058 111.329 120.788 112.069 120.248C112.829 119.708 113.209 118.968 113.209 118.028C113.209 117.248 113.029 116.618 112.669 116.138C112.309 115.658 111.819 115.268 111.199 114.968C110.599 114.648 109.939 114.368 109.219 114.128C108.499 113.868 107.779 113.598 107.059 113.318C106.339 113.018 105.679 112.658 105.079 112.238C104.479 111.798 103.989 111.228 103.609 110.528C103.249 109.828 103.069 108.948 103.069 107.888C103.069 106.708 103.349 105.708 103.909 104.888C104.489 104.048 105.269 103.408 106.249 102.968C107.249 102.508 108.369 102.278 109.609 102.278C110.969 102.278 112.189 102.548 113.269 103.088C114.349 103.608 115.229 104.298 115.909 105.158L113.989 107.078C113.369 106.358 112.699 105.818 111.979 105.458C111.279 105.098 110.469 104.918 109.549 104.918C108.429 104.918 107.539 105.168 106.879 105.668C106.219 106.148 105.889 106.828 105.889 107.708C105.889 108.408 106.069 108.978 106.429 109.418C106.809 109.838 107.299 110.198 107.899 110.498C108.499 110.798 109.159 111.078 109.879 111.338C110.619 111.578 111.349 111.848 112.069 112.148C112.789 112.448 113.449 112.828 114.049 113.288C114.649 113.748 115.129 114.348 115.489 115.088C115.869 115.808 116.059 116.718 116.059 117.818C116.059 119.658 115.419 121.098 114.139 122.138C112.879 123.178 111.169 123.698 109.009 123.698ZM119.529 123.398V102.578H122.349V123.398H119.529ZM132.969 123.398V102.578H135.789V123.398H132.969ZM121.449 113.918V111.338H133.659V113.918H121.449ZM140.381 123.398V102.578H143.201V123.398H140.381ZM155.586 123.398V120.938H161.886C163.086 120.938 164.026 120.588 164.706 119.888C165.386 119.168 165.726 118.308 165.726 117.308C165.726 116.628 165.576 116.018 165.276 115.478C164.976 114.918 164.536 114.478 163.956 114.158C163.396 113.838 162.736 113.678 161.976 113.678H155.586V111.218H161.556C162.556 111.218 163.346 110.958 163.926 110.438C164.526 109.898 164.826 109.128 164.826 108.128C164.826 107.128 164.516 106.368 163.896 105.848C163.276 105.308 162.456 105.038 161.436 105.038H155.586V102.578H161.496C162.856 102.578 163.986 102.828 164.886 103.328C165.806 103.808 166.496 104.448 166.956 105.248C167.436 106.048 167.676 106.928 167.676 107.888C167.676 109.008 167.366 109.988 166.746 110.828C166.146 111.668 165.256 112.328 164.076 112.808L164.316 111.908C165.656 112.388 166.696 113.118 167.436 114.098C168.196 115.058 168.576 116.198 168.576 117.518C168.576 118.618 168.306 119.608 167.766 120.488C167.226 121.368 166.446 122.078 165.426 122.618C164.426 123.138 163.196 123.398 161.736 123.398H155.586ZM153.696 123.398V102.578H156.516V123.398H153.696ZM170.527 123.398L179.047 102.578H181.087L189.577 123.398H186.517L179.527 105.788H180.577L173.527 123.398H170.527ZM174.577 118.688V116.228H185.527V118.688H174.577ZM194.271 114.338V111.968H199.911C201.131 111.968 202.071 111.658 202.731 111.038C203.391 110.418 203.721 109.578 203.721 108.518C203.721 107.518 203.391 106.688 202.731 106.028C202.091 105.368 201.161 105.038 199.941 105.038H194.271V102.578H200.031C201.351 102.578 202.501 102.838 203.481 103.358C204.461 103.858 205.211 104.548 205.731 105.428C206.271 106.308 206.541 107.318 206.541 108.458C206.541 109.638 206.271 110.668 205.731 111.548C205.211 112.428 204.461 113.118 203.481 113.618C202.501 114.098 201.351 114.338 200.031 114.338H194.271ZM192.381 123.398V102.578H195.201V123.398H192.381ZM204.381 123.398L196.821 114.068L199.491 113.138L207.951 123.398H204.381Z" fill="#FE951C"/>
</svg>
