<svg viewBox="0 0 114 114" xmlns="http://www.w3.org/2000/svg" xmlns:xlink="http://www.w3.org/1999/xlink"><style>:root&gt;svg{display:none}:root&gt;svg:target{display:block}</style><svg fill="none" viewBox="0 0 114 114" id="facebook-big" xmlns="http://www.w3.org/2000/svg"><mask id="aa" style="mask-type:luminance" maskUnits="userSpaceOnUse" x="0" y="0" width="114" height="114"><path d="M0 0h114v114H0V0z" fill="#fff"/></mask><g mask="url(#aa)"><path d="M17.1 0h79.8a17.076 17.076 0 018.06 2.019c.495.264.975.551 1.441.863a17.281 17.281 0 013.718 3.37c.354.433.688.883.999 1.347a16.995 16.995 0 012.145 4.537A16.961 16.961 0 01114 17.1v79.8a17.069 17.069 0 01-2.882 9.5c-.311.466-.645.916-.999 1.349-.356.433-.732.848-1.127 1.244-.396.395-.811.771-1.244 1.127-.433.354-.883.688-1.347.999a17.309 17.309 0 01-2.957 1.58 16.78 16.78 0 01-1.58.565c-.536.162-1.079.299-1.627.409A17.069 17.069 0 0196.9 114H17.1a17.069 17.069 0 01-8.06-2.019 17.32 17.32 0 01-2.788-1.862 17.281 17.281 0 01-3.37-3.72 16.951 16.951 0 01-2.145-4.535A17.09 17.09 0 010 96.9V17.1a17.07 17.07 0 011.302-6.544 17.147 17.147 0 013.706-5.548A17.256 17.256 0 017.6 2.882 17.147 17.147 0 0113.763.328 16.958 16.958 0 0117.102 0z" fill="#3B5998"/></g><path d="M63.902 101.531V34.957c0-4.676 1.336-7.793 7.793-7.793h8.461V13.137c-1.558-.223-6.457-.668-12.246-.668-12.023 0-20.262 7.347-20.262 20.93v68.132m31.84-56.554H33.844v16.03h43.64" fill="#fff"/></svg><svg fill="none" viewBox="0 0 32 23" id="icon-arrow-right" xmlns="http://www.w3.org/2000/svg"><path d="M.6 11.894h17.19z" fill="#fff"/><path d="M.6 11.894h17.19" stroke="#fff" stroke-width="5"/><path d="M18.6 3.202l10 8.5-10 8.5v-17z" fill="#fff" stroke="#fff" stroke-width="5" stroke-linecap="round" stroke-linejoin="round"/></svg><svg fill="none" viewBox="0 0 39 36" id="icon-cart" xmlns="http://www.w3.org/2000/svg"><path d="M20.156 22.661l.545-6.462h6.145L25.16 22.66h-5.005zM5.322 16.199h6.148l.545 6.462H7.007l-1.685-6.462zm5.489-7.82l.544 6.462H4.968L3.283 8.38h7.528zm8.438 7.82l-.545 6.462h-5.237l-.545-6.462h6.327zm-6.441-1.358l-.546-6.462h7.646l-.545 6.462h-6.555zm14.393 0h-6.386l.544-6.462h7.526l-1.684 6.462zM38.79.81c-.123-.551-.703-.9-1.284-.788l-6.12 1.203c-.41.08-.733.374-.833.754l-1.138 4.364H1.9c-.334 0-.649.144-.854.39a.971.971 0 00-.2.871L5.1 23.921c.119.456.554.776 1.054.776H24.63l-.462 1.775H6.687c-.599 0-1.085.456-1.085 1.018 0 .563.486 1.018 1.086 1.018h18.33c.5 0 .936-.32 1.054-.776l.991-3.8.006-.011 4.255-16.318c.002-.006.001-.013.004-.019L32.5 3.085l5.45-1.07c.587-.116.963-.655.84-1.206z" fill="#fff"/><mask id="ca" style="mask-type:luminance" maskUnits="userSpaceOnUse" x="6" y="29" width="7" height="7"><path d="M6.653 29.967h5.77v5.437h-5.77v-5.437z" fill="#fff"/></mask><g mask="url(#ca)"><path d="M9.534 29.994c-1.571 0-2.846 1.211-2.846 2.705s1.275 2.705 2.846 2.705c1.573 0 2.848-1.21 2.848-2.705 0-1.494-1.275-2.705-2.848-2.705z" fill="#fff"/></g><mask id="cb" style="mask-type:luminance" maskUnits="userSpaceOnUse" x="19" y="29" width="7" height="7"><path d="M19.252 29.967h5.887v5.437h-5.887v-5.437z" fill="#fff"/></mask><g mask="url(#cb)"><path d="M22.207 29.994c-1.571 0-2.846 1.211-2.846 2.705s1.275 2.705 2.846 2.705c1.573 0 2.848-1.21 2.848-2.705 0-1.494-1.275-2.705-2.848-2.705z" fill="#fff"/></g></svg><svg fill="none" viewBox="0 0 9 13" id="icon-chevron-left" xmlns="http://www.w3.org/2000/svg"><path d="M6.8 12.702l-6-6 6-6 1.4 1.4-4.6 4.6 4.6 4.6-1.4 1.4z" fill="#fff"/></svg><svg fill="none" viewBox="0 0 8 13" id="icon-chevron-right" xmlns="http://www.w3.org/2000/svg"><path d="M1.6 12.702l-1.4-1.4 4.6-4.6-4.6-4.6 1.4-1.4 6 6-6 6z" fill="#fff"/></svg><svg fill="none" viewBox="0 0 18 15" id="icon-heart" xmlns="http://www.w3.org/2000/svg"><mask id="fa" style="mask-type:luminance" maskUnits="userSpaceOnUse" x="0" y="0" width="18" height="15"><path d="M.15.575h17.207v14.254H.15V.575z" fill="#fff"/></mask><g mask="url(#fa)"><mask id="fb" style="mask-type:luminance" maskUnits="userSpaceOnUse" x="0" y="0" width="18" height="15"><path d="M.877 2.85c-1.39 2.177-.411 4.295.82 5.42l7.195 6.56 7.043-6.537c1.145-1.21 1.583-2.492 1.34-3.92-.337-1.977-2.05-3.51-4.167-3.728-1.298-.133-2.552.216-3.53.989-.264.208-.5.44-.705.693a4.785 4.785 0 00-.852-.784A5.165 5.165 0 004.087.658C2.784.898 1.614 1.696.877 2.851z" fill="#fff"/></mask><g mask="url(#fb)"><path d="M.197.575H17.34V14.83H.197V.575z" fill="#fff"/></g></g></svg><svg fill="none" viewBox="0 0 20 17" id="icon-home" xmlns="http://www.w3.org/2000/svg"><mask id="ga" style="mask-type:luminance" maskUnits="userSpaceOnUse" x="0" y="0" width="20" height="17"><path d="M0 .79h19.15v15.825H0V.789z" fill="#fff"/></mask><g mask="url(#ga)"><path d="M9.582.742L.02 8.048h3.44v8.542h3.597v-5.976h5.05v5.976h3.597V8.048h3.44L9.581.742z" fill="#fff"/></g></svg><svg fill="none" viewBox="0 0 17 30" id="icon-location" xmlns="http://www.w3.org/2000/svg"><path d="M8.6 13.356A5.483 5.483 0 118.602 2.39 5.483 5.483 0 018.6 13.356zM8.543.138c-7.146 0-9.996 6.52-6.365 14.564L8.75 29.266l6.365-14.564C18.632 6.66 15.69.138 8.543.138z" fill="#fff"/></svg><svg fill="none" viewBox="0 0 26 16" id="icon-message" xmlns="http://www.w3.org/2000/svg"><path d="M2.438.5C1.091.5 0 1.34 0 2.375c0 .59.36 1.145.975 1.5l11.05 6.375a2.033 2.033 0 001.95 0l11.05-6.375c.615-.355.975-.91.975-1.5C26 1.34 24.908.5 23.562.5H2.438zM0 4.875V13c0 1.379 1.457 2.5 3.25 2.5h19.5c1.793 0 3.25-1.121 3.25-2.5V4.875L14.95 11.25a3.923 3.923 0 01-1.95.501 3.923 3.923 0 01-1.95-.501L0 4.875z" fill="#fff"/></svg><svg fill="none" viewBox="0 0 20 20" id="icon-modal-close" xmlns="http://www.w3.org/2000/svg"><path d="M16.95.742c-.577 0-1.126.22-1.566.632L10 6.759 4.615 1.374A2.274 2.274 0 003.05.742c-.577 0-1.126.22-1.566.632l-.137.137a2.205 2.205 0 000 3.104L6.758 10l-5.385 5.385a2.205 2.205 0 000 3.104l.138.137c.412.412.989.632 1.566.632.577 0 1.126-.22 1.566-.632l5.384-5.385 5.385 5.385c.412.412.989.632 1.565.632.578 0 1.127-.22 1.567-.632l.137-.137a2.205 2.205 0 000-3.104L13.241 10l5.385-5.385a2.205 2.205 0 000-3.104l-.138-.137A2.208 2.208 0 0016.95.742z" fill="#fff"/></svg><svg fill="none" viewBox="0 0 26 26" id="icon-phone" xmlns="http://www.w3.org/2000/svg"><path d="M25.01 18.488a4.784 4.784 0 01.306 1.698 4.874 4.874 0 01-4.873 4.874C9.484 25.06.6 16.177.6 5.217A4.874 4.874 0 017.174.65l1.83 7.92c0 .005-.002.007-.006.009l-3.356 1.508-.01.004a15.617 15.617 0 009.938 9.937l.003-.01 1.51-3.358 7.928 1.828z" fill="#fff"/></svg><svg fill="none" viewBox="0 0 22 22" id="icon-plus" xmlns="http://www.w3.org/2000/svg"><path fill="#D9D9D9" d="M0 0h22v22H0z"/><path fill="#fff" d="M10 5h2v12h-2z"/><path fill="#fff" d="M5 12v-2h12v2z"/></svg><svg fill="none" viewBox="0 0 27 21" id="icon-question" xmlns="http://www.w3.org/2000/svg"><path d="M10.293.815C4.823.815.387 4.37.387 8.755c0 2.364 1.29 4.485 3.336 5.94-.436.963-1.296 2.193-3.075 3.86-.291.271-.654.665.52.384 1.968-.47 4.068-1.668 5.669-2.742 1.076.321 2.24.498 3.457.498 5.47 0 9.906-3.554 9.906-7.94 0-4.386-4.436-7.94-9.907-7.94z" fill="#fff"/><path d="M26.595 20.216c-1.57-1.367-1.793-2.139-1.87-2.7 1.095-.881 1.764-2.06 1.764-3.355 0-2.41-2.315-4.416-5.377-4.852-.253 3.449-2.947 6.305-6.791 7.558 1.184 1.345 3.223 2.235 5.543 2.235.998 0 1.944-.166 2.794-.461.895.637 2.425 1.614 3.787 1.916.623.138.304-.207.15-.341z" fill="#fff"/></svg><svg fill="none" viewBox="0 0 23 22" id="icon-register" xmlns="http://www.w3.org/2000/svg"><mask id="na" style="mask-type:luminance" maskUnits="userSpaceOnUse" x="11" y="11" width="12" height="11"><path d="M11.17 11.102h10.898V22H11.17V11.102z" fill="#fff"/></mask><g mask="url(#na)"><path d="M16.659 11.152a5.421 5.421 0 100 10.842 5.421 5.421 0 000-10.841zm2.99 6.192h-2.24v2.226h-1.51v-2.226h-2.24v-1.54h2.24v-2.226h1.51v2.226h2.24v1.54z" fill="#fff"/></g><mask id="nb" style="mask-type:luminance" maskUnits="userSpaceOnUse" x="0" y="0" width="14" height="22"><path d="M0 0h13.622v21.319H0V0z" fill="#fff"/></mask><g mask="url(#nb)"><path d="M9.95 16.573a6.67 6.67 0 011.395-4.084c-.13-.303-.18-.765.054-1.49h-.007c1.335-1.395 2.22-3.642 2.22-5.854 0-3.4-2.093-5.182-4.68-5.182-2.591 0-4.67 1.783-4.67 5.182 0 2.22.879 4.477 2.222 5.87.523 1.394-.412 1.91-.609 1.984-2.71.995-5.89 2.81-5.89 4.6v.671c0 2.44 4.66 2.995 8.973 2.995.946 0 1.903-.028 2.824-.095a6.682 6.682 0 01-1.832-4.597z" fill="#fff"/></g></svg><svg fill="none" viewBox="0 0 23 22" id="icon-search" xmlns="http://www.w3.org/2000/svg"><mask id="oa" style="mask-type:luminance" maskUnits="userSpaceOnUse" x="0" y="0" width="23" height="22"><path d="M.814.249H22.8v20.906H.814V.25z" fill="#fff"/></mask><g mask="url(#oa)"><path fill-rule="evenodd" clip-rule="evenodd" d="M14.999 15.584l5.405 5.134a1.424 1.424 0 001.94 0 1.259 1.259 0 00-.001-1.843l-5.402-5.131a8.16 8.16 0 001.73-5.015c0-4.68-4-8.48-8.925-8.48-4.925 0-8.923 3.8-8.923 8.48 0 4.68 3.998 8.48 8.923 8.48A9.194 9.194 0 0015 15.584zM9.746 2.855c3.412 0 6.182 2.632 6.182 5.874 0 3.242-2.77 5.874-6.182 5.874-3.411 0-6.18-2.632-6.18-5.874 0-3.242 2.769-5.874 6.18-5.874z" fill="#fff"/></g></svg><svg fill="none" viewBox="0 0 11 7" id="icon-select" xmlns="http://www.w3.org/2000/svg"><path d="M5.75 6.122L10.944.42H.553L5.75 6.122z" fill="#fff"/></svg><svg fill="none" viewBox="0 0 20 19" id="icon-user" xmlns="http://www.w3.org/2000/svg"><path d="M19.055 18.73H.66a.294.294 0 01-.302-.287v-1.632c0-2.715 2.326-4.924 5.185-4.924h8.63c2.859 0 5.185 2.21 5.185 4.924v1.632a.294.294 0 01-.302.287zm-9.198-7.613c-3.032 0-5.498-2.342-5.498-5.221 0-2.88 2.466-5.222 5.498-5.222s5.498 2.343 5.498 5.222c0 2.879-2.466 5.221-5.498 5.221z" fill="#fff"/></svg><svg fill="none" viewBox="0 0 112 112" id="instagram-big" xmlns="http://www.w3.org/2000/svg"><mask id="ra" style="mask-type:luminance" maskUnits="userSpaceOnUse" x="0" y="0" width="112" height="112"><path d="M0 0h112v112H0V0z" fill="#fff"/></mask><g mask="url(#ra)"><path d="M16.8 0h78.4a16.749 16.749 0 014.877.724A16.786 16.786 0 01112 16.8v78.4a16.78 16.78 0 01-1.984 7.919 16.631 16.631 0 01-2.937 3.96 16.678 16.678 0 01-2.545 2.089c-.458.307-.929.589-1.415.848a16.579 16.579 0 01-3.042 1.26 16.912 16.912 0 01-4.876.724H16.8a16.78 16.78 0 01-7.92-1.984 16.83 16.83 0 01-3.96-2.937 16.634 16.634 0 01-2.09-2.545 16.88 16.88 0 01-2.107-4.457c-.16-.527-.293-1.06-.401-1.599A17.083 17.083 0 010 95.2V16.8a16.777 16.777 0 011.279-6.43 16.842 16.842 0 014.864-6.557 16.786 16.786 0 014.229-2.534 16.632 16.632 0 013.15-.956A17.083 17.083 0 0116.8 0z" fill="#D43377"/><path d="M40.688 23.625h30.624a16.872 16.872 0 013.329.328 17.19 17.19 0 013.202.971 16.961 16.961 0 014.293 2.574 17.16 17.16 0 013.364 3.71 17.032 17.032 0 012.792 7.807c.056.556.083 1.114.083 1.672v30.626a16.902 16.902 0 01-.328 3.328 16.801 16.801 0 01-.971 3.201 17.006 17.006 0 01-3.698 5.535 17.206 17.206 0 01-2.586 2.123 17.278 17.278 0 01-2.95 1.576 16.889 16.889 0 01-3.201.97 16.902 16.902 0 01-3.329.328H40.689a16.857 16.857 0 01-3.329-.327 16.801 16.801 0 01-3.2-.971 17.303 17.303 0 01-2.95-1.576 17.296 17.296 0 01-2.587-2.123 17.16 17.16 0 01-2.12-2.585 16.943 16.943 0 01-2.142-4.527 17.19 17.19 0 01-.653-3.28 16.872 16.872 0 01-.082-1.672V40.686a17.105 17.105 0 012.015-8.044 17.167 17.167 0 014.223-5.145 17.28 17.28 0 012.782-1.858 17.066 17.066 0 018.042-2.015z" stroke="#fff" stroke-width="6"/></g><path d="M71.094 56a15.064 15.064 0 01-1.15 5.777 14.934 14.934 0 01-1.394 2.608 14.87 14.87 0 01-1.877 2.288 15.007 15.007 0 01-3.558 2.638c-.435.234-.882.445-1.338.634a14.975 14.975 0 01-4.297 1.076 15.064 15.064 0 01-7.257-1.076 14.934 14.934 0 01-2.608-1.395 15.108 15.108 0 01-4.165-4.165 15.28 15.28 0 01-1.395-2.608 14.975 14.975 0 01-1.076-4.297 15.064 15.064 0 011.076-7.257 14.934 14.934 0 011.395-2.608 15.11 15.11 0 014.165-4.165 15.28 15.28 0 012.608-1.395A15.081 15.081 0 0156 40.905a15.064 15.064 0 014.382.65c.472.145.938.311 1.395.5a15.28 15.28 0 013.798 2.277 15.286 15.286 0 012.093 2.093A15.108 15.108 0 0171.094 56z" stroke="#fff" stroke-width="6"/><path d="M79.188 36.969a4.204 4.204 0 01-.317 1.59 4.126 4.126 0 01-.384.719 4.125 4.125 0 01-1.865 1.531 4.205 4.205 0 01-2.4.236 4.174 4.174 0 01-3.03-2.486 4.204 4.204 0 01-.236-2.4c.053-.27.131-.528.235-.78a4.223 4.223 0 01.902-1.348 4.123 4.123 0 011.348-.902 4.228 4.228 0 011.59-.316 4.205 4.205 0 011.59.316 4.223 4.223 0 011.35.902 4.126 4.126 0 011.217 2.938z" fill="#fff"/></svg></svg>