<?xml version="1.0" standalone="no"?>
<!DOCTYPE svg PUBLIC "-//W3C//DTD SVG 20010904//EN"
 "http://www.w3.org/TR/2001/REC-SVG-20010904/DTD/svg10.dtd">
<svg version="1.0" xmlns="http://www.w3.org/2000/svg"
 width="700.000000pt" height="700.000000pt" viewBox="0 0 700.000000 700.000000"
 preserveAspectRatio="xMidYMid meet">
<metadata>
Created by potrace 1.14, written by Peter Selinger 2001-2017
</metadata>
<g transform="translate(0.000000,700.000000) scale(0.100000,-0.100000)"
fill="#000000" stroke="none">
<path d="M1149 6996 c-2 -2 -24 -6 -49 -10 -52 -6 -98 -15 -122 -22 -9 -3 -25
-6 -35 -8 -37 -8 -160 -54 -228 -87 -224 -107 -440 -314 -562 -540 -50 -91
-99 -227 -125 -339 l-23 -105 0 -2365 c0 -1301 4 -2392 8 -2425 70 -516 475
-951 992 -1065 28 -6 64 -14 80 -18 17 -3 1092 -7 2390 -9 2531 -2 2418 -4
2602 47 216 61 456 211 593 371 60 69 126 157 142 189 7 14 15 27 18 30 3 3
21 37 39 75 44 90 84 208 107 315 18 82 19 179 19 2450 0 1301 -3 2388 -7
2415 -54 412 -323 786 -695 969 -121 60 -205 87 -378 124 -32 7 -4759 15
-4766 8z"/>
</g>
</svg>
