<svg width="20" height="20" fill="none" xmlns="http://www.w3.org/2000/svg"><path d="M16.95.742c-.577 0-1.126.22-1.566.632L10 6.759 4.615 1.374A2.274 2.274 0 003.05.742c-.577 0-1.126.22-1.566.632l-.137.137a2.205 2.205 0 000 3.104L6.758 10l-5.385 5.385a2.205 2.205 0 000 3.104l.138.137c.412.412.989.632 1.566.632.577 0 1.126-.22 1.566-.632l5.384-5.385 5.385 5.385c.412.412.989.632 1.565.632.578 0 1.127-.22 1.567-.632l.137-.137a2.205 2.205 0 000-3.104L13.241 10l5.385-5.385a2.205 2.205 0 000-3.104l-.138-.137A2.208 2.208 0 0016.95.742z" fill="#fff"/></svg>