<svg width="23" height="22" fill="none" xmlns="http://www.w3.org/2000/svg"><mask id="mask0_205_50" style="mask-type:luminance" maskUnits="userSpaceOnUse" x="0" y="0" width="23" height="22"><path d="M.814.249H22.8v20.906H.814V.25z" fill="#fff"/></mask><g mask="url(#mask0_205_50)"><path fill-rule="evenodd" clip-rule="evenodd" d="M14.999 15.584l5.405 5.134a1.424 1.424 0 001.94 0 1.259 1.259 0 00-.001-1.843l-5.402-5.131a8.16 8.16 0 001.73-5.015c0-4.68-4-8.48-8.925-8.48-4.925 0-8.923 3.8-8.923 8.48 0 4.68 3.998 8.48 8.923 8.48A9.194 9.194 0 0015 15.584zM9.746 2.855c3.412 0 6.182 2.632 6.182 5.874 0 3.242-2.77 5.874-6.182 5.874-3.411 0-6.18-2.632-6.18-5.874 0-3.242 2.769-5.874 6.18-5.874z" fill="#fff"/></g></svg>