<svg width="18" height="15" fill="none" xmlns="http://www.w3.org/2000/svg"><mask id="mask0_205_7" style="mask-type:luminance" maskUnits="userSpaceOnUse" x="0" y="0" width="18" height="15"><path d="M.15.575h17.207v14.254H.15V.575z" fill="#fff"/></mask><g mask="url(#mask0_205_7)"><mask id="mask1_205_7" style="mask-type:luminance" maskUnits="userSpaceOnUse" x="0" y="0" width="18" height="15"><path d="M.877 2.85c-1.39 2.177-.411 4.295.82 5.42l7.195 6.56 7.043-6.537c1.145-1.21 1.583-2.492 1.34-3.92-.337-1.977-2.05-3.51-4.167-3.728-1.298-.133-2.552.216-3.53.989-.264.208-.5.44-.705.693a4.785 4.785 0 00-.852-.784A5.165 5.165 0 004.087.658C2.784.898 1.614 1.696.877 2.851z" fill="#fff"/></mask><g mask="url(#mask1_205_7)"><path d="M.197.575H17.34V14.83H.197V.575z" fill="#fff"/></g></g></svg>