<svg width="23" height="22" viewBox="0 0 23 22" fill="none" xmlns="http://www.w3.org/2000/svg">
<mask id="mask0_94_5293" style="mask-type:luminance" maskUnits="userSpaceOnUse" x="11" y="11" width="12" height="11">
<path d="M11.1704 11.1022H22.0682V22H11.1704V11.1022Z" fill="white"/>
</mask>
<g mask="url(#mask0_94_5293)">
<path d="M16.6585 11.1525C13.6653 11.1525 11.2378 13.5792 11.2378 16.5734C11.2378 19.5677 13.6643 21.9941 16.6585 21.9941C19.6528 21.9941 22.0795 19.5677 22.0795 16.5734C22.0795 13.5792 19.652 11.1525 16.6585 11.1525ZM19.6493 17.3437H17.4083V19.5703H15.8986V17.3437H13.6584V15.804H15.8986V13.5784H17.4083V15.804H19.6493V17.3437Z" fill="white"/>
</g>
<mask id="mask1_94_5293" style="mask-type:luminance" maskUnits="userSpaceOnUse" x="0" y="0" width="14" height="22">
<path d="M0 0H13.6223V21.3189H0V0Z" fill="white"/>
</mask>
<g mask="url(#mask1_94_5293)">
<path d="M9.95044 16.5726C9.95044 15.0345 10.4735 13.6204 11.3449 12.4886C11.2153 12.1864 11.1647 11.7237 11.3991 10.9997H11.3922C12.7273 9.60425 13.6128 7.35711 13.6128 5.14534C13.6128 1.74563 11.5191 -0.0369797 8.93117 -0.0369797C6.34054 -0.0369797 4.26181 1.74563 4.26181 5.14534C4.26181 7.36589 5.14087 9.62154 6.48394 11.0152C7.00702 12.4088 6.07182 12.9257 5.8752 12.9994C3.16511 13.994 -0.0153809 15.8082 -0.0153809 17.5996C-0.0153809 18.0831 -0.0153809 17.7909 -0.0153809 18.2701C-0.0153809 20.7104 4.64467 21.2651 8.95777 21.2651C9.90415 21.2651 10.8606 21.2369 11.782 21.1699C10.6494 19.9678 9.95044 18.3534 9.95044 16.5726Z" fill="white"/>
</g>
</svg>
