<svg width="112" height="112" fill="none" xmlns="http://www.w3.org/2000/svg"><mask id="mask0_65_4271" style="mask-type:luminance" maskUnits="userSpaceOnUse" x="0" y="0" width="112" height="112"><path d="M0 0h112v112H0V0z" fill="#fff"/></mask><g mask="url(#mask0_65_4271)"><path d="M16.8 0h78.4a16.749 16.749 0 014.877.724A16.786 16.786 0 01112 16.8v78.4a16.78 16.78 0 01-1.984 7.919 16.631 16.631 0 01-2.937 3.96 16.678 16.678 0 01-2.545 2.089c-.458.307-.929.589-1.415.848a16.579 16.579 0 01-3.042 1.26 16.912 16.912 0 01-4.876.724H16.8a16.78 16.78 0 01-7.92-1.984 16.83 16.83 0 01-3.96-2.937 16.634 16.634 0 01-2.09-2.545 16.88 16.88 0 01-2.107-4.457c-.16-.527-.293-1.06-.401-1.599A17.083 17.083 0 010 95.2V16.8a16.777 16.777 0 011.279-6.43 16.842 16.842 0 014.864-6.557 16.786 16.786 0 014.229-2.534 16.632 16.632 0 013.15-.956A17.083 17.083 0 0116.8 0z" fill="#D43377"/><path d="M40.688 23.625h30.624a16.872 16.872 0 013.329.328 17.19 17.19 0 013.202.971 16.961 16.961 0 014.293 2.574 17.16 17.16 0 013.364 3.71 17.032 17.032 0 012.792 7.807c.056.556.083 1.114.083 1.672v30.626a16.902 16.902 0 01-.328 3.328 16.801 16.801 0 01-.971 3.201 17.006 17.006 0 01-3.698 5.535 17.206 17.206 0 01-2.586 2.123 17.278 17.278 0 01-2.95 1.576 16.889 16.889 0 01-3.201.97 16.902 16.902 0 01-3.329.328H40.689a16.857 16.857 0 01-3.329-.327 16.801 16.801 0 01-3.2-.971 17.303 17.303 0 01-2.95-1.576 17.296 17.296 0 01-2.587-2.123 17.16 17.16 0 01-2.12-2.585 16.943 16.943 0 01-2.142-4.527 17.19 17.19 0 01-.653-3.28 16.872 16.872 0 01-.082-1.672V40.686a17.105 17.105 0 012.015-8.044 17.167 17.167 0 014.223-5.145 17.28 17.28 0 012.782-1.858 17.066 17.066 0 018.042-2.015z" stroke="#fff" stroke-width="6"/></g><path d="M71.094 56a15.064 15.064 0 01-1.15 5.777 14.934 14.934 0 01-1.394 2.608 14.87 14.87 0 01-1.877 2.288 15.007 15.007 0 01-3.558 2.638c-.435.234-.882.445-1.338.634a14.975 14.975 0 01-4.297 1.076 15.064 15.064 0 01-7.257-1.076 14.934 14.934 0 01-2.608-1.395 15.108 15.108 0 01-4.165-4.165 15.28 15.28 0 01-1.395-2.608 14.975 14.975 0 01-1.076-4.297 15.064 15.064 0 011.076-7.257 14.934 14.934 0 011.395-2.608 15.11 15.11 0 014.165-4.165 15.28 15.28 0 012.608-1.395A15.081 15.081 0 0156 40.905a15.064 15.064 0 014.382.65c.472.145.938.311 1.395.5a15.28 15.28 0 013.798 2.277 15.286 15.286 0 012.093 2.093A15.108 15.108 0 0171.094 56z" stroke="#fff" stroke-width="6"/><path d="M79.188 36.969a4.204 4.204 0 01-.317 1.59 4.126 4.126 0 01-.384.719 4.125 4.125 0 01-1.865 1.531 4.204 4.204 0 01-2.4.236 4.174 4.174 0 01-3.03-2.486 4.204 4.204 0 01-.236-2.4c.053-.27.131-.528.235-.78a4.223 4.223 0 01.902-1.348 4.123 4.123 0 011.348-.902 4.228 4.228 0 011.59-.316 4.204 4.204 0 011.59.316 4.223 4.223 0 011.35.902 4.126 4.126 0 011.217 2.938z" fill="#fff"/></svg>