<svg width="26" height="18" fill="none" xmlns="http://www.w3.org/2000/svg"><path d="M1.728.818h23.404a.419.419 0 01.177.038.454.454 0 01.207.182.497.497 0 01.07.178.55.55 0 01.008.097v15.503a.547.547 0 01-.035.19.484.484 0 01-.25.267.412.412 0 01-.177.038H1.728a.422.422 0 01-.177-.038.437.437 0 01-.15-.107.487.487 0 01-.126-.253.52.52 0 01-.009-.097V1.313a.522.522 0 01.136-.35.465.465 0 01.236-.135c.03-.007.06-.01.09-.01z" fill="#fff"/><mask id="mask0_238_3907" style="mask-type:luminance" maskUnits="userSpaceOnUse" x="0" y="0" width="26" height="18"><path d="M.955.508h24.953v17.105H.955V.508z" fill="#fff"/></mask><g mask="url(#mask0_238_3907)"><path d="M1.728.818h23.404a.419.419 0 01.177.038.454.454 0 01.207.182.497.497 0 01.07.178.55.55 0 01.008.097v15.503a.546.546 0 01-.035.19.484.484 0 01-.25.267.418.418 0 01-.177.038H1.728a.422.422 0 01-.177-.038.443.443 0 01-.15-.107.487.487 0 01-.126-.253.519.519 0 01-.009-.097V1.313a.522.522 0 01.136-.35.465.465 0 01.236-.135c.03-.007.06-.01.09-.01z" stroke="#000" stroke-width=".5" stroke-linecap="round" stroke-linejoin="round"/></g><mask id="mask1_238_3907" style="mask-type:luminance" maskUnits="userSpaceOnUse" x="1" y="7" width="25" height="11"><path d="M1.263 7.423h24.645v10.19H1.263V7.423z" fill="#fff"/></mask><g mask="url(#mask1_238_3907)"><path d="M1.574 16.98l11.702-9.235 12.318 9.566" stroke="#000" stroke-width=".5" stroke-linejoin="round"/></g><path fill-rule="evenodd" clip-rule="evenodd" d="M1.565.932l11.667 9.89L25.287.824 1.566.932z" fill="#fff"/><mask id="mask2_238_3907" style="mask-type:luminance" maskUnits="userSpaceOnUse" x="1" y="0" width="25" height="12"><path d="M1.263.508h24.336v10.633H1.264V.508z" fill="#fff"/></mask><g mask="url(#mask2_238_3907)"><path d="M1.564.932l11.667 9.89L25.286.824 1.565.932h0z" stroke="#000" stroke-width=".5" stroke-linejoin="round"/></g></svg>