<svg width="27" height="21" fill="none" xmlns="http://www.w3.org/2000/svg"><path d="M10.293.815C4.823.815.387 4.37.387 8.755c0 2.364 1.29 4.485 3.336 5.94-.436.963-1.296 2.193-3.075 3.86-.291.271-.654.665.52.384 1.968-.47 4.068-1.668 5.669-2.742 1.076.321 2.24.498 3.457.498 5.47 0 9.906-3.554 9.906-7.94 0-4.386-4.436-7.94-9.907-7.94z" fill="#fff"/><path d="M26.595 20.216c-1.57-1.367-1.793-2.139-1.87-2.7 1.095-.881 1.764-2.06 1.764-3.355 0-2.41-2.315-4.416-5.377-4.852-.253 3.449-2.947 6.305-6.791 7.558 1.184 1.345 3.223 2.235 5.543 2.235.998 0 1.944-.166 2.794-.461.895.637 2.425 1.614 3.787 1.916.623.138.304-.207.15-.341z" fill="#fff"/></svg>