<svg width="39" height="36" fill="none" xmlns="http://www.w3.org/2000/svg"><path d="M20.156 22.661l.545-6.462h6.145L25.16 22.66h-5.005zM5.322 16.199h6.148l.545 6.462H7.007l-1.685-6.462zm5.489-7.82l.544 6.462H4.968L3.283 8.38h7.528zm8.438 7.82l-.545 6.462h-5.237l-.545-6.462h6.327zm-6.441-1.358l-.546-6.462h7.646l-.545 6.462h-6.555zm14.393 0h-6.386l.544-6.462h7.526l-1.684 6.462zM38.79.81c-.123-.551-.703-.9-1.284-.788l-6.12 1.203c-.41.08-.733.374-.833.754l-1.138 4.364H1.9c-.334 0-.649.144-.854.39a.971.971 0 00-.2.871L5.1 23.921c.119.456.554.776 1.054.776H24.63l-.462 1.775H6.687c-.599 0-1.085.456-1.085 1.018 0 .563.486 1.018 1.086 1.018h18.33c.5 0 .936-.32 1.054-.776l.991-3.8.006-.011 4.255-16.318c.002-.006.001-.013.004-.019L32.5 3.085l5.45-1.07c.587-.116.963-.655.84-1.206z" fill="#fff"/><mask id="mask0_205_38" style="mask-type:luminance" maskUnits="userSpaceOnUse" x="6" y="29" width="7" height="7"><path d="M6.653 29.967h5.77v5.437h-5.77v-5.437z" fill="#fff"/></mask><g mask="url(#mask0_205_38)"><path d="M9.534 29.994c-1.571 0-2.846 1.211-2.846 2.705s1.275 2.705 2.846 2.705c1.573 0 2.848-1.21 2.848-2.705 0-1.494-1.275-2.705-2.848-2.705z" fill="#fff"/></g><mask id="mask1_205_38" style="mask-type:luminance" maskUnits="userSpaceOnUse" x="19" y="29" width="7" height="7"><path d="M19.252 29.967h5.887v5.437h-5.887v-5.437z" fill="#fff"/></mask><g mask="url(#mask1_205_38)"><path d="M22.207 29.994c-1.571 0-2.846 1.211-2.846 2.705s1.275 2.705 2.846 2.705c1.573 0 2.848-1.21 2.848-2.705 0-1.494-1.275-2.705-2.848-2.705z" fill="#fff"/></g></svg>