<svg width="114" height="114" fill="none" xmlns="http://www.w3.org/2000/svg"><mask id="mask0_65_4303" style="mask-type:luminance" maskUnits="userSpaceOnUse" x="0" y="0" width="114" height="114"><path d="M0 0h114v114H0V0z" fill="#fff"/></mask><g mask="url(#mask0_65_4303)"><path d="M17.1 0h79.8a17.077 17.077 0 018.06 2.019c.495.264.975.551 1.441.863a17.281 17.281 0 013.718 3.37c.354.433.688.883.999 1.347a16.995 16.995 0 012.145 4.537A16.961 16.961 0 01114 17.1v79.8a17.07 17.07 0 01-2.882 9.5c-.311.466-.645.916-.999 1.349-.356.433-.732.848-1.127 1.244-.396.395-.811.771-1.244 1.127-.433.354-.883.688-1.347.999a17.309 17.309 0 01-2.957 1.58 16.78 16.78 0 01-1.58.565c-.536.162-1.079.299-1.627.409a17.07 17.07 0 01-3.338.328H17.1a17.069 17.069 0 01-8.06-2.019 17.32 17.32 0 01-2.788-1.862 17.281 17.281 0 01-3.37-3.72 16.951 16.951 0 01-2.145-4.535A17.09 17.09 0 010 96.899V17.1a17.07 17.07 0 011.302-6.543 17.147 17.147 0 013.706-5.548A17.256 17.256 0 017.6 2.882 17.147 17.147 0 0113.763.328 16.958 16.958 0 0117.102 0z" fill="#3B5998"/></g><path d="M63.902 101.531V34.957c0-4.676 1.336-7.793 7.793-7.793h8.461V13.137c-1.558-.223-6.457-.668-12.246-.668-12.023 0-20.262 7.347-20.262 20.93v68.132m31.84-56.554H33.844v16.03h43.64" fill="#fff"/></svg>