<svg width="112" height="112" fill="none" xmlns="http://www.w3.org/2000/svg"><path fill-rule="evenodd" clip-rule="evenodd" d="M34.837 4.975c5.474-.252 7.219-.308 21.163-.308 13.944 0 15.69.06 21.159.308 5.469.247 9.202 1.12 12.469 2.384a25.254 25.254 0 019.09 5.927 25.072 25.072 0 015.918 9.086c1.269 3.267 2.137 7 2.389 12.46.252 5.483.308 7.229.308 21.168 0 13.944-.06 15.69-.308 21.163-.247 5.46-1.12 9.194-2.389 12.46a25.175 25.175 0 01-5.917 9.096 25.17 25.17 0 01-9.091 5.917c-3.267 1.269-7 2.137-12.46 2.389-5.479.252-7.224.308-21.168.308-13.944 0-15.69-.06-21.163-.308-5.46-.247-9.194-1.12-12.46-2.389a25.178 25.178 0 01-9.096-5.917 25.162 25.162 0 01-5.922-9.09c-1.264-3.268-2.132-7-2.384-12.46-.252-5.484-.308-7.23-.308-21.169 0-13.944.06-15.69.308-21.159.247-5.469 1.12-9.202 2.384-12.469a25.181 25.181 0 015.927-9.09 25.161 25.161 0 019.086-5.923c3.267-1.264 7.005-2.132 12.465-2.384zm41.906 9.24c-5.413-.248-7.037-.299-20.743-.299s-15.33.051-20.743.299c-5.008.228-7.724 1.064-9.534 1.768-2.394.934-4.107 2.04-5.904 3.836a15.923 15.923 0 00-3.836 5.904c-.704 1.81-1.54 4.526-1.768 9.534-.248 5.413-.299 7.037-.299 20.743s.051 15.33.299 20.743c.228 5.008 1.064 7.724 1.768 9.534a15.934 15.934 0 003.836 5.904 15.934 15.934 0 005.904 3.836c1.81.704 4.526 1.54 9.534 1.768 5.413.248 7.032.3 20.743.3 13.71 0 15.33-.052 20.743-.3 5.008-.228 7.724-1.064 9.534-1.768 2.394-.934 4.107-2.04 5.904-3.836a15.933 15.933 0 003.836-5.904c.704-1.81 1.54-4.526 1.768-9.534.248-5.413.299-7.037.299-20.743s-.051-15.33-.299-20.743c-.228-5.008-1.064-7.724-1.768-9.534-.934-2.394-2.04-4.107-3.836-5.904a15.927 15.927 0 00-5.904-3.836c-1.81-.704-4.526-1.54-9.534-1.768zm-27.3 57.61A17.122 17.122 0 0068.11 43.89a17.128 17.128 0 10-18.667 27.935zm-12.1-34.482a26.386 26.386 0 1137.315 37.316 26.386 26.386 0 01-37.315-37.316zm50.894-3.799a6.24 6.24 0 10-8.565-9.078 6.24 6.24 0 008.565 9.078z" fill="#fff"/></svg>