<svg width="23" height="22" fill="none" xmlns="http://www.w3.org/2000/svg"><mask id="mask0_94_5293" style="mask-type:luminance" maskUnits="userSpaceOnUse" x="11" y="11" width="12" height="11"><path d="M11.17 11.102h10.898V22H11.17V11.102z" fill="#fff"/></mask><g mask="url(#mask0_94_5293)"><path d="M16.659 11.152a5.421 5.421 0 100 10.842 5.421 5.421 0 000-10.841zm2.99 6.192h-2.24v2.226h-1.51v-2.226h-2.24v-1.54h2.24v-2.226h1.51v2.226h2.24v1.54z" fill="#fff"/></g><mask id="mask1_94_5293" style="mask-type:luminance" maskUnits="userSpaceOnUse" x="0" y="0" width="14" height="22"><path d="M0 0h13.622v21.319H0V0z" fill="#fff"/></mask><g mask="url(#mask1_94_5293)"><path d="M9.95 16.573a6.67 6.67 0 011.395-4.084c-.13-.303-.18-.765.054-1.49h-.007c1.335-1.395 2.22-3.642 2.22-5.854 0-3.4-2.093-5.182-4.68-5.182-2.591 0-4.67 1.783-4.67 5.182 0 2.22.879 4.477 2.222 5.87.523 1.394-.412 1.91-.609 1.984-2.71.995-5.89 2.81-5.89 4.6v.671c0 2.44 4.66 2.995 8.973 2.995.946 0 1.903-.028 2.824-.095a6.682 6.682 0 01-1.832-4.597z" fill="#fff"/></g></svg>