<svg width="112" height="112" viewBox="0 0 112 112" fill="none" xmlns="http://www.w3.org/2000/svg">
<mask id="mask0_65_4271" style="mask-type:luminance" maskUnits="userSpaceOnUse" x="0" y="0" width="112" height="112">
<path d="M0 0H112V112H0V0Z" fill="white"/>
</mask>
<g mask="url(#mask0_65_4271)">
<path d="M16.8005 0H95.2008C95.7504 0 96.3 0.0270062 96.8468 0.0810185C97.3951 0.135031 97.9379 0.216049 98.478 0.322724C99.0168 0.430748 99.5502 0.564429 100.077 0.723765C100.603 0.883102 101.121 1.06809 101.63 1.27874C102.137 1.48939 102.634 1.72434 103.119 1.9836C103.605 2.24286 104.076 2.52508 104.534 2.8316C104.992 3.13677 105.432 3.46489 105.857 3.81327C106.283 4.163 106.691 4.53164 107.079 4.92052C107.468 5.30941 107.838 5.71721 108.187 6.14255C108.536 6.5679 108.863 7.00945 109.168 7.46586C109.475 7.92361 109.757 8.39487 110.016 8.88098C110.276 9.36574 110.511 9.86265 110.721 10.3704C110.932 10.8794 111.117 11.3966 111.276 11.9232C111.437 12.4498 111.571 12.9832 111.677 13.522C111.785 14.0621 111.865 14.6063 111.919 15.1532C111.973 15.7014 112 16.2496 112 16.8005V95.1995C112 95.7504 111.973 96.2986 111.919 96.8468C111.865 97.3937 111.785 97.9379 111.677 98.478C111.571 99.0168 111.437 99.5502 111.276 100.077C111.117 100.603 110.932 101.121 110.721 101.63C110.511 102.137 110.276 102.634 110.016 103.119C109.757 103.605 109.475 104.076 109.168 104.534C108.863 104.991 108.536 105.432 108.187 105.857C107.838 106.283 107.468 106.691 107.079 107.079C106.691 107.468 106.283 107.837 105.857 108.187C105.432 108.535 104.992 108.863 104.534 109.168C104.076 109.475 103.605 109.757 103.119 110.016C102.634 110.276 102.137 110.511 101.63 110.721C101.121 110.932 100.603 111.117 100.077 111.276C99.5502 111.437 99.0168 111.571 98.478 111.677C97.9379 111.784 97.3951 111.865 96.8468 111.919C96.3 111.973 95.7504 112 95.2008 112H16.8005C16.2496 112 15.7014 111.973 15.1532 111.919C14.6063 111.865 14.0621 111.784 13.522 111.677C12.9832 111.571 12.4498 111.437 11.9232 111.276C11.3966 111.117 10.8794 110.932 10.3717 110.721C9.86265 110.511 9.36574 110.276 8.88098 110.016C8.39487 109.757 7.92361 109.475 7.46721 109.168C7.00945 108.863 6.5679 108.535 6.14255 108.187C5.71721 107.837 5.30941 107.468 4.92052 107.079C4.53164 106.691 4.163 106.283 3.81327 105.857C3.46489 105.432 3.13677 104.991 2.8316 104.534C2.52643 104.076 2.24286 103.605 1.9836 103.119C1.72434 102.634 1.48939 102.137 1.27874 101.63C1.06809 101.121 0.883102 100.603 0.723765 100.077C0.564429 99.5502 0.430748 99.0168 0.322724 98.478C0.216049 97.9379 0.135031 97.3937 0.0810185 96.8468C0.0270062 96.2986 0 95.7504 0 95.1995V16.8005C0 16.2496 0.0270062 15.7014 0.0810185 15.1532C0.135031 14.6063 0.216049 14.0621 0.322724 13.522C0.430748 12.9832 0.564429 12.4498 0.723765 11.9232C0.883102 11.3966 1.06809 10.8794 1.27874 10.3704C1.48939 9.86265 1.72434 9.36574 1.9836 8.88098C2.24286 8.39487 2.52643 7.92361 2.8316 7.46586C3.13677 7.00945 3.46489 6.5679 3.81327 6.14255C4.163 5.71721 4.53164 5.30941 4.92052 4.92052C5.30941 4.53164 5.71721 4.163 6.14255 3.81327C6.5679 3.46489 7.00945 3.13677 7.46721 2.8316C7.92361 2.52508 8.39487 2.24286 8.88098 1.9836C9.36574 1.72434 9.86265 1.48939 10.3717 1.27874C10.8794 1.06809 11.3966 0.883102 11.9232 0.723765C12.4498 0.564429 12.9832 0.430748 13.522 0.322724C14.0621 0.216049 14.6063 0.135031 15.1532 0.0810185C15.7014 0.0270062 16.2496 0 16.8005 0Z" fill="#D43377"/>
<path d="M40.6875 23.625H71.3125C71.8715 23.625 72.4292 23.652 72.9855 23.7074C73.5418 23.7614 74.0927 23.8437 74.641 23.9531C75.1892 24.0625 75.7307 24.1975 76.2654 24.3596C76.8001 24.5216 77.3254 24.7106 77.8426 24.924C78.3584 25.1373 78.8634 25.3763 79.3562 25.6397C79.8491 25.903 80.3271 26.1906 80.7916 26.5012C81.2561 26.8117 81.7044 27.1439 82.1365 27.4977C82.5686 27.8528 82.9818 28.2268 83.3775 28.6225C83.7731 29.0181 84.1471 29.4313 84.5023 29.8634C84.856 30.2955 85.1896 30.7438 85.5001 31.2083C85.8094 31.6728 86.097 32.1522 86.3603 32.6437C86.6236 33.1366 86.8626 33.6416 87.076 34.1574C87.2907 34.6746 87.4783 35.1998 87.6404 35.7346C87.8024 36.2693 87.9388 36.8108 88.0468 37.359C88.1562 37.9072 88.2386 38.4595 88.2926 39.0158C88.3479 39.5708 88.3749 40.1285 88.3749 40.6875V71.3125C88.3749 71.8715 88.3479 72.4292 88.2926 72.9855C88.2386 73.5405 88.1562 74.0927 88.0468 74.641C87.9388 75.1892 87.8024 75.7307 87.6404 76.2654C87.4783 76.8001 87.2907 77.3254 87.076 77.8425C86.8626 78.3584 86.6236 78.8634 86.3603 79.3562C86.097 79.8491 85.8094 80.3271 85.5001 80.7916C85.1896 81.2561 84.856 81.7044 84.5023 82.1365C84.1471 82.5686 83.7731 82.9818 83.3775 83.3775C82.9818 83.7731 82.5686 84.1471 82.1365 84.5023C81.7044 84.8561 81.2561 85.1896 80.7916 85.5001C80.3271 85.8094 79.8491 86.097 79.3562 86.3603C78.8634 86.6236 78.3584 86.8626 77.8426 87.0759C77.3254 87.2906 76.8001 87.4783 76.2654 87.6404C75.7307 87.8024 75.1892 87.9388 74.641 88.0468C74.0927 88.1562 73.5418 88.2386 72.9855 88.2926C72.4292 88.3479 71.8715 88.3749 71.3125 88.3749H40.6875C40.1285 88.3749 39.5708 88.3479 39.0158 88.2926C38.4595 88.2386 37.9072 88.1562 37.359 88.0468C36.8108 87.9388 36.2693 87.8024 35.7346 87.6404C35.1998 87.4783 34.6746 87.2906 34.1587 87.0759C33.6416 86.8626 33.1379 86.6236 32.6451 86.3603C32.1522 86.097 31.6728 85.8094 31.2083 85.5001C30.7438 85.1896 30.2955 84.8561 29.8634 84.5023C29.4313 84.1471 29.0181 83.7731 28.6225 83.3775C28.2268 82.9818 27.8528 82.5686 27.4977 82.1365C27.1439 81.7044 26.8117 81.2561 26.5012 80.7916C26.1906 80.3271 25.903 79.8491 25.6397 79.3562C25.3763 78.8634 25.1373 78.3584 24.924 77.8425C24.7106 77.3254 24.5216 76.8001 24.3596 76.2654C24.1975 75.7307 24.0625 75.1892 23.9531 74.641C23.8437 74.0927 23.7627 73.5405 23.7074 72.9855C23.652 72.4292 23.625 71.8715 23.625 71.3125V40.6875C23.625 40.1285 23.652 39.5708 23.7074 39.0158C23.7627 38.4595 23.8437 37.9072 23.9531 37.359C24.0625 36.8108 24.1975 36.2693 24.3596 35.7346C24.5216 35.1998 24.7106 34.6746 24.924 34.1574C25.1373 33.6416 25.3763 33.1366 25.6397 32.6437C25.903 32.1522 26.1906 31.6728 26.5012 31.2083C26.8117 30.7438 27.1439 30.2955 27.4977 29.8634C27.8528 29.4313 28.2268 29.0181 28.6225 28.6225C29.0181 28.2268 29.4313 27.8528 29.8634 27.4977C30.2955 27.1439 30.7438 26.8117 31.2083 26.5012C31.6728 26.1906 32.1522 25.903 32.6451 25.6397C33.1379 25.3763 33.6416 25.1373 34.1587 24.924C34.6746 24.7106 35.1998 24.5216 35.7346 24.3596C36.2693 24.1975 36.8108 24.0625 37.359 23.9531C37.9072 23.8437 38.4595 23.7614 39.0158 23.7074C39.5708 23.652 40.1285 23.625 40.6875 23.625Z" stroke="white" stroke-width="6"/>
</g>
<path d="M71.0937 56C71.0937 56.4942 71.0694 56.9871 71.0208 57.4799C70.9722 57.9714 70.9006 58.4603 70.8034 58.945C70.7075 59.4298 70.5874 59.9091 70.4442 60.3817C70.3011 60.8543 70.1337 61.3189 69.9446 61.7766C69.7556 62.233 69.5449 62.6786 69.3113 63.1148C69.0791 63.5509 68.8252 63.9749 68.5497 64.3854C68.2756 64.7972 67.9813 65.1929 67.668 65.575C67.3547 65.9572 67.0225 66.3231 66.6728 66.6728C66.3231 67.0225 65.9572 67.3547 65.575 67.668C65.1929 67.9813 64.7972 68.2756 64.3854 68.5497C63.9749 68.8252 63.5509 69.0791 63.1148 69.3113C62.68 69.5449 62.233 69.7556 61.7766 69.9446C61.3202 70.1337 60.8543 70.2997 60.3817 70.4442C59.9091 70.5874 59.4298 70.7075 58.945 70.8034C58.4602 70.9006 57.9714 70.9722 57.4799 71.0208C56.9871 71.0694 56.4942 71.0937 56 71.0937C55.5058 71.0937 55.0129 71.0694 54.5201 71.0208C54.0285 70.9722 53.5397 70.9006 53.055 70.8034C52.5702 70.7075 52.0922 70.5874 51.6182 70.4442C51.1456 70.2997 50.6811 70.1337 50.2234 69.9446C49.767 69.7556 49.3214 69.5449 48.8852 69.3113C48.4491 69.0791 48.0251 68.8252 47.6146 68.5497C47.2041 68.2756 46.8071 67.9813 46.425 67.668C46.0428 67.3547 45.6769 67.0225 45.3272 66.6728C44.9774 66.3231 44.6466 65.9572 44.332 65.575C44.0187 65.1929 43.7243 64.7972 43.4502 64.3854C43.1761 63.9749 42.9223 63.5509 42.6887 63.1148C42.4551 62.6786 42.2444 62.233 42.0554 61.7766C41.8663 61.3189 41.7002 60.8543 41.5557 60.3817C41.4126 59.9091 41.2924 59.4298 41.1966 58.945C41.0993 58.4603 41.0278 57.9714 40.9792 57.4799C40.9306 56.9871 40.9062 56.4942 40.9062 56C40.9062 55.5058 40.9306 55.0129 40.9792 54.5201C41.0278 54.0285 41.0993 53.5397 41.1966 53.055C41.2924 52.5702 41.4126 52.0922 41.5557 51.6182C41.7002 51.1456 41.8663 50.6811 42.0554 50.2234C42.2444 49.767 42.4551 49.3214 42.6887 48.8852C42.9223 48.4491 43.1761 48.0251 43.4502 47.6146C43.7243 47.2041 44.0187 46.8071 44.332 46.425C44.6466 46.0428 44.9774 45.6769 45.3272 45.3272C45.6769 44.9774 46.0428 44.6466 46.425 44.332C46.8071 44.0187 47.2041 43.7243 47.6146 43.4502C48.0251 43.1761 48.4491 42.9223 48.8852 42.6887C49.3214 42.4551 49.767 42.2444 50.2234 42.0554C50.6811 41.8663 51.1456 41.7002 51.6182 41.5557C52.0922 41.4126 52.5702 41.2924 53.055 41.1966C53.5397 41.0993 54.0285 41.0278 54.5214 40.9792C55.0129 40.9306 55.5058 40.9062 56 40.9062C56.4942 40.9062 56.9871 40.9306 57.4799 40.9792C57.9714 41.0278 58.4602 41.0993 58.945 41.1966C59.4298 41.2924 59.9091 41.4126 60.3817 41.5557C60.8543 41.7002 61.3202 41.8663 61.7766 42.0554C62.233 42.2444 62.68 42.4551 63.1148 42.6887C63.5509 42.9223 63.9749 43.1761 64.3854 43.4502C64.7972 43.7243 65.1929 44.0187 65.575 44.332C65.9572 44.6466 66.3231 44.9774 66.6728 45.3272C67.0225 45.6769 67.3547 46.0428 67.668 46.425C67.9813 46.8071 68.2756 47.2041 68.5497 47.6146C68.8252 48.0251 69.0791 48.4491 69.3113 48.8852C69.5449 49.3214 69.7556 49.767 69.9446 50.2234C70.1337 50.6811 70.3011 51.1456 70.4442 51.6182C70.5874 52.0922 70.7075 52.5702 70.8034 53.055C70.9006 53.5397 70.9722 54.0285 71.0208 54.5201C71.0694 55.0129 71.0937 55.5058 71.0937 56Z" stroke="white" stroke-width="6"/>
<path d="M79.1875 36.9688C79.1875 37.2415 79.1605 37.5116 79.1078 37.7803C79.0552 38.0476 78.9755 38.3069 78.8715 38.5594C78.7662 38.8119 78.6393 39.0509 78.4867 39.2778C78.3355 39.5046 78.164 39.7153 77.9709 39.9084C77.7778 40.1001 77.5671 40.273 77.3403 40.4242C77.1134 40.5768 76.8744 40.7037 76.6219 40.809C76.3694 40.913 76.1101 40.9913 75.8428 41.0453C75.5741 41.098 75.304 41.125 75.0312 41.125C74.7585 41.125 74.4884 41.098 74.2211 41.0453C73.9524 40.9913 73.6931 40.913 73.4406 40.809C73.1894 40.7037 72.9491 40.5768 72.7222 40.4242C72.4954 40.273 72.2861 40.1001 72.093 39.9084C71.8999 39.7153 71.727 39.5046 71.5758 39.2778C71.4246 39.0509 71.2963 38.8119 71.191 38.5594C71.087 38.3069 71.0087 38.0476 70.9547 37.7803C70.902 37.5116 70.875 37.2415 70.875 36.9688C70.875 36.696 70.902 36.4259 70.9547 36.1586C71.0087 35.8899 71.087 35.6306 71.191 35.3781C71.2963 35.1256 71.4246 34.8866 71.5758 34.6597C71.727 34.4329 71.8999 34.2236 72.093 34.0305C72.2861 33.8374 72.4954 33.6645 72.7222 33.5133C72.9491 33.3621 73.1894 33.2338 73.4406 33.1285C73.6931 33.0245 73.9524 32.9462 74.2211 32.8922C74.4884 32.8395 74.7585 32.8125 75.0312 32.8125C75.304 32.8125 75.5741 32.8395 75.8428 32.8922C76.1101 32.9462 76.3694 33.0245 76.6219 33.1285C76.8744 33.2338 77.1134 33.3621 77.3403 33.5133C77.5671 33.6645 77.7778 33.8374 77.9709 34.0305C78.164 34.2236 78.3355 34.4329 78.4867 34.6597C78.6393 34.8866 78.7662 35.1256 78.8715 35.3781C78.9755 35.6306 79.0552 35.8899 79.1078 36.1586C79.1605 36.4259 79.1875 36.696 79.1875 36.9688Z" fill="white"/>
</svg>
